STARTFONT 2.3
FONT -FontForge-Courgette-Book-R-Normal--24-240-72-72-P-124-ISO10646-1
SIZE 24 72 72  4
FONTBOUNDINGBOX 32 31 -5 -7
COMMENT "Generated by fontforge, http://fontforge.sourceforge.net"
COMMENT "Copyright (c) 2012, Sorkin Type Co (www.sorkintype.com) with Reserved Font Name "Courgette"."
STARTPROPERTIES 41
FOUNDRY "FontForge"
FAMILY_NAME "Courgette"
WEIGHT_NAME "Book"
SLANT "R"
SETWIDTH_NAME "Normal"
ADD_STYLE_NAME ""
PIXEL_SIZE 24
POINT_SIZE 240
RESOLUTION_X 72
RESOLUTION_Y 72
SPACING "P"
AVERAGE_WIDTH 124
CHARSET_REGISTRY "ISO10646"
CHARSET_ENCODING "1"
FONTNAME_REGISTRY ""
CHARSET_COLLECTIONS "ISO8859-2 ISO8859-9 ISO8859-4 ISO10646-1"
BITS_PER_PIXEL 4
FONT_NAME "Courgette-Regular"
FACE_NAME "Courgette Regular"
COPYRIGHT "Copyright (c) 2012, Sorkin Type Co (www.sorkintype.com) with Reserved Font Name "Courgette"."
FONT_VERSION "1.002"
FONT_ASCENT 19
FONT_DESCENT 5
UNDERLINE_POSITION -2
UNDERLINE_THICKNESS 2
X_HEIGHT 11
CAP_HEIGHT 17
DEFAULT_CHAR 1
RAW_ASCENT 799
RAW_DESCENT 200
NORM_SPACE 7
RELATIVE_WEIGHT 40
RELATIVE_SETWIDTH 50
SUPERSCRIPT_X 0
SUPERSCRIPT_Y 11
SUPERSCRIPT_SIZE 15
SUBSCRIPT_X 0
SUBSCRIPT_Y 3
SUBSCRIPT_SIZE 15
AVG_LOWERCASE_WIDTH 119
AVG_UPPERCASE_WIDTH 140
ENDPROPERTIES
CHARS 407
STARTCHAR .null.dup1
ENCODING 0
SWIDTH 0 0
DWIDTH 0 0
BBX 1 1 0 0
BITMAP
00
ENDCHAR
STARTCHAR uni0001
ENCODING 1
SWIDTH 0 0
DWIDTH 0 0
BBX 1 1 0 0
BITMAP
00
ENDCHAR
STARTCHAR uni0002
ENCODING 2
SWIDTH 0 0
DWIDTH 0 0
BBX 1 1 0 0
BITMAP
00
ENDCHAR
STARTCHAR uni0003
ENCODING 3
SWIDTH 0 0
DWIDTH 0 0
BBX 1 1 0 0
BITMAP
00
ENDCHAR
STARTCHAR uni0004
ENCODING 4
SWIDTH 0 0
DWIDTH 0 0
BBX 1 1 0 0
BITMAP
00
ENDCHAR
STARTCHAR uni0005
ENCODING 5
SWIDTH 0 0
DWIDTH 0 0
BBX 1 1 0 0
BITMAP
00
ENDCHAR
STARTCHAR uni0006
ENCODING 6
SWIDTH 0 0
DWIDTH 0 0
BBX 1 1 0 0
BITMAP
00
ENDCHAR
STARTCHAR uni0007
ENCODING 7
SWIDTH 0 0
DWIDTH 0 0
BBX 1 1 0 0
BITMAP
00
ENDCHAR
STARTCHAR uni0008
ENCODING 8
SWIDTH 0 0
DWIDTH 0 0
BBX 1 1 0 0
BITMAP
00
ENDCHAR
STARTCHAR uni0009
ENCODING 9
SWIDTH 0 0
DWIDTH 0 0
BBX 1 1 0 0
BITMAP
00
ENDCHAR
STARTCHAR nonmarkingreturn
ENCODING 13
SWIDTH 0 0
DWIDTH 0 0
BBX 1 1 0 0
BITMAP
00
ENDCHAR
STARTCHAR uni0015
ENCODING 21
SWIDTH 0 0
DWIDTH 0 0
BBX 1 1 0 0
BITMAP
00
ENDCHAR
STARTCHAR uni0016
ENCODING 22
SWIDTH 0 0
DWIDTH 0 0
BBX 1 1 0 0
BITMAP
00
ENDCHAR
STARTCHAR uni0017
ENCODING 23
SWIDTH 0 0
DWIDTH 0 0
BBX 1 1 0 0
BITMAP
00
ENDCHAR
STARTCHAR uni0018
ENCODING 24
SWIDTH 0 0
DWIDTH 0 0
BBX 1 1 0 0
BITMAP
00
ENDCHAR
STARTCHAR uni0019
ENCODING 25
SWIDTH 0 0
DWIDTH 0 0
BBX 1 1 0 0
BITMAP
00
ENDCHAR
STARTCHAR space
ENCODING 32
SWIDTH 307 0
DWIDTH 7 0
BBX 1 1 0 0
BITMAP
00
ENDCHAR
STARTCHAR exclam
ENCODING 33
SWIDTH 417 0
DWIDTH 10 0
BBX 10 19 1 -1
BITMAP
0000001BFB
000000BFF8
000005FFD1
00000DFF50
00005FFB00
0000BFF300
0001FFB000
0006FF4000
000AFC0000
000DF60000
001FE10000
002F900000
002F300000
0005000000
0275000000
0DFF900000
1FFF900000
08FD200000
0010000000
ENDCHAR
STARTCHAR quotedbl
ENCODING 34
SWIDTH 437 0
DWIDTH 10 0
BBX 10 6 3 13
BITMAP
05EE406EE3
1EFD12FFD1
6FF307FF30
9F900AF800
AE100BE100
7700086000
ENDCHAR
STARTCHAR numbersign
ENCODING 35
SWIDTH 725 0
DWIDTH 17 0
BBX 17 18 1 0
BITMAP
000000008E401BE000
00000003FF108FB000
00000009FA00DF5000
0000000EF404FE0000
0000004FD009F80000
0000009F700EF20000
008FFFFFFFFFFFFF10
02FFFFFFFFFFFFF800
000119F611EF210000
00000DF103FB000000
00113FC117F7110000
3EFFFFFFFFFFFF8000
9FFFFFFFFFFFFC2000
0002FA006F60000000
0007F500BF10000000
000BE101FA00000000
002F9006F500000000
005D200AA000000000
ENDCHAR
STARTCHAR dollar
ENCODING 36
SWIDTH 545 0
DWIDTH 13 0
BBX 13 25 1 -3
BITMAP
00000000000560
00000000007FA0
0000000001EF20
0000000005F800
0000006CEFF500
00002CFC66EF30
0001DF80005FA0
0009FC00004FE0
001EF700008FE0
005FF40002EFB0
007FF5002DFF50
007FF900AFFB00
004FFF20397000
000DFFB0000000
0004FFF6000000
00008FFD000000
00000BFF500000
1BA002FF800000
7FA000BF700000
9FD000DF200000
4FFA6BF6000000
05EFEB40000000
01EC0000000000
05F50000000000
06E10000000000
ENDCHAR
STARTCHAR percent
ENCODING 37
SWIDTH 876 0
DWIDTH 21 0
BBX 19 18 1 0
BITMAP
0004BEE910000007E600
006FF8AF9000007FD100
04FF505FD00005FF4000
0CFB008FD0003EF60000
1FF500DFA001DF900000
2FF206FF300CFB000000
0EF55EF7009FD1000000
05EFFD5007FE20000000
001330004FF400010000
00000002EF6019EFD300
0000001DF802DFA6FE00
000000BFB00BFC00FF30
000009FC105FF301FF40
00006FE200AFC005FF20
0004FE3000CF800BFC00
002EF50000AF705FF400
00CF6000006FC7EF7000
04E700000008EEB40000
ENDCHAR
STARTCHAR ampersand
ENCODING 38
SWIDTH 563 0
DWIDTH 14 0
BBX 14 18 0 0
BITMAP
00000039DEEA20
000019FFC76CE1
0001CFF60003F7
0009FF600007F9
002FFB00006FF7
006FF4001AFFE1
007FF1003FFE40
004FF200058200
000BFC9B400000
0003EFFF900000
004EFF81000000
02EFE302531253
0AFF300DFFFFF6
1FF90001DFFD60
2FF60000CF5000
1FF90005FE1000
08FFA7AFD30000
006CFEC7100000
ENDCHAR
STARTCHAR quotesingle
ENCODING 39
SWIDTH 231 0
DWIDTH 6 0
BBX 5 6 3 13
BITMAP
05EE40
1EFD10
6FF300
9F9000
AE1000
770000
ENDCHAR
STARTCHAR parenleft
ENCODING 40
SWIDTH 478 0
DWIDTH 11 0
BBX 13 27 2 -6
BITMAP
00000000018E50
000000004DE600
00000005FE3000
0000005FE30000
000003FF300000
00001EF7000000
0000AFB0000000
0005FF20000000
000DF900000000
005FF200000000
00CFB000000000
03FF5000000000
07FF1000000000
0CFB0000000000
1FF80000000000
3FF60000000000
4FF40000000000
5FF40000000000
5FF30000000000
4FF40000000000
2FF60000000000
0DF80000000000
09FD0000000000
03FF2000000000
00AFA000000000
001EF600000000
0002CD00000000
ENDCHAR
STARTCHAR parenright
ENCODING 41
SWIDTH 478 0
DWIDTH 11 0
BBX 13 27 -3 -6
BITMAP
0000000CD30000
00000005FE2000
000000008FB000
000000001FF400
000000000BFA00
0000000007FE00
0000000004FF30
0000000003FF50
0000000002FF70
0000000002FF70
0000000003FF60
0000000004FF40
0000000007FF20
000000000AFE00
000000000EFA00
000000003FF500
000000009FE000
00000001EF7000
00000007FE1000
0000002EF60000
000000BFB00000
000005FE200000
00003EF5000000
0002EF60000000
002DF600000000
04EE5000000000
3E910000000000
ENDCHAR
STARTCHAR asterisk
ENCODING 42
SWIDTH 518 0
DWIDTH 12 0
BBX 9 9 3 9
BITMAP
00008EC000
0201FF9000
4E25FD1000
3FC7F5AEB0
08FFEEFDA0
00BFF91000
0AF9DE3000
7F504FE100
63000AC000
ENDCHAR
STARTCHAR plus
ENCODING 43
SWIDTH 617 0
DWIDTH 15 0
BBX 13 12 1 3
BITMAP
000002D4000000
000005F6000000
000005F6000000
000005F6000000
001115F7111100
2EFFFFFFFFFF60
044447F8444300
000005F6000000
000005F6000000
000005F6000000
000005F6000000
000003D2000000
ENDCHAR
STARTCHAR comma
ENCODING 44
SWIDTH 312 0
DWIDTH 8 0
BBX 5 7 0 -3
BITMAP
07EC10
0DFF70
06FF60
03FF20
06F900
3EC100
C91000
ENDCHAR
STARTCHAR hyphen
ENCODING 45
SWIDTH 452 0
DWIDTH 11 0
BBX 8 3 2 6
BITMAP
01222210
8FFFFFF2
DFFFFF90
ENDCHAR
STARTCHAR period
ENCODING 46
SWIDTH 270 0
DWIDTH 6 0
BBX 5 4 0 -1
BITMAP
1CEB10
5FFF50
3FFE20
058300
ENDCHAR
STARTCHAR slash
ENCODING 47
SWIDTH 405 0
DWIDTH 10 0
BBX 16 25 -2 -4
BITMAP
00000000000002CB
0000000000000CF7
0000000000006FD0
000000000001EF40
000000000009FA00
00000000003FF200
0000000000BF8000
0000000004FE1000
000000000DF60000
000000006FC00000
00000001EF400000
00000008FA000000
0000002FF2000000
000000BF80000000
000004FE10000000
00000CF600000000
00006FC000000000
0001EF4000000000
0008FA0000000000
002FF20000000000
00AF800000000000
04FD100000000000
0CF6000000000000
6FC0000000000000
CC20000000000000
ENDCHAR
STARTCHAR zero
ENCODING 48
SWIDTH 621 0
DWIDTH 15 0
BBX 14 18 1 0
BITMAP
00000003AEFC50
0000019FE86EF4
00001BFD2007FB
0000BFE20005FD
0006FF600006FE
001EFB000009FE
008FF400000CFC
01FFC000001FF9
06FF5000006FF5
0BFE000000CFF1
0FF9000003FFA0
3FF500000BFF30
5FF200003FF900
6FE00000CFE100
5FD00009FF5000
2FF1007FF70000
0BFA6BFE500000
019EFD81000000
ENDCHAR
STARTCHAR one
ENCODING 49
SWIDTH 405 0
DWIDTH 10 0
BBX 9 18 1 0
BITMAP
000002CD40
00004EFFB0
0018FFFFA0
00DFFAFF70
005625FF30
00000AFD00
00000EF800
00005FF200
0000AFB000
0001FF5000
0006FE0000
000CF70000
003FE10000
009F800000
01FE100000
07F7000000
0DB0000000
4C10000000
ENDCHAR
STARTCHAR two
ENCODING 50
SWIDTH 524 0
DWIDTH 13 0
BBX 13 18 0 0
BITMAP
0000017CFEA200
00002DFB68FE10
0001CFA0009F80
0007FF20007FB0
000BFF0000AFB0
000CFF5002FF80
0007FF700BFF30
000054009FF900
00000008FFD100
0000008FFE2000
000008FFD20000
00008FFC200000
0008FFA1000000
006FF700000000
04FF5000000000
1EF52222488000
8FEFFFFFFF8000
7D6358CEEA1000
ENDCHAR
STARTCHAR three
ENCODING 51
SWIDTH 537 0
DWIDTH 13 0
BBX 13 18 1 0
BITMAP
000004BEEC6000
0001AFD76DF700
000AFC1005FE00
005FF30003FF20
00AFF10005FF20
00BFF7000AFE00
006FF7005FF800
00033006FFD100
000003AFFE2000
00009FFFC20000
0000EFFF600000
0000007FF20000
0010003FF50000
4EF2005FF40000
DFB000BFD00000
EF6007FF500000
9FD7AFF6000000
18DFD930000000
ENDCHAR
STARTCHAR four
ENCODING 52
SWIDTH 529 0
DWIDTH 13 0
BBX 12 18 1 0
BITMAP
00009D400000
0000DFC00000
0001FFB00000
0006FF700000
000CFF100400
003FF9004FC0
00BFE2008FF2
04FF8000CFD0
0CFD0002FF80
5FF40008FF20
8FB2123DFD60
2EFFFFFFFFF6
013443DF9010
000004FE1000
00000BF70000
00003FD00000
0000AF300000
0000E5000000
ENDCHAR
STARTCHAR five
ENCODING 53
SWIDTH 540 0
DWIDTH 13 0
BBX 15 18 0 0
BITMAP
000000CEA8668D70
000004FFFFFFFF50
00000AF927BDC700
00001EF300000000
00007FB000000000
0001EF4000000000
0007FEBEEB400000
000EFF96CFF30000
002FE4001FF90000
000630000EFB0000
000000000FFB0000
000000003FF90000
029800008FF40000
0CFA0001EFD00000
2FF30008FF400000
1FF2005FF7000000
09FB7AFF60000000
007DFD9200000000
ENDCHAR
STARTCHAR six
ENCODING 54
SWIDTH 554 0
DWIDTH 13 0
BBX 13 18 1 0
BITMAP
00000017CFD800
000004DFB69F70
00004FF7003FB0
0003EF7001BFA0
000CFB000EFF40
006FF20009D700
01EF9001000000
06FF47DFE70000
0BFECD65EF6000
0EFFD1008FD000
3FFF30006FF000
5FFB00007FF100
5FF70000BFE000
5FF40002FF9000
3FF3000AFF2000
0DF5006FF60000
05FD6AFE600000
005CFD92000000
ENDCHAR
STARTCHAR seven
ENCODING 55
SWIDTH 473 0
DWIDTH 11 0
BBX 12 18 2 0
BITMAP
0DA53347BE80
0DFFFFFFDFF2
03CFEB739FB0
00000005FE20
0000003EF500
000001DF9000
00000AFD1000
00006FF30000
0002EF800000
000BFD100000
005FF5000000
00CFC0000000
05FF50000000
0BFD00000000
1FF900000000
4FF500000000
5FF300000000
0BF100000000
ENDCHAR
STARTCHAR eight
ENCODING 56
SWIDTH 524 0
DWIDTH 13 0
BBX 13 18 1 0
BITMAP
000005CEEC4000
00009FA6AFF600
0006F9000BFE00
000EF20007FF30
003FF00006FF30
004FF30008FF00
002FF8001EF900
000EFE10AFD100
0008FFBCFD2000
0001EFFE810000
0018EFFD000000
03DF99FF600000
2EF500CFB00000
9FB0005FD00000
CF90002FC00000
AFC0006F700000
3FFB68FB000000
04BEFC60000000
ENDCHAR
STARTCHAR nine
ENCODING 57
SWIDTH 554 0
DWIDTH 13 0
BBX 13 18 1 0
BITMAP
0000029DFD7000
00007FF86DF700
0007FE3004FE10
004FF60003FF30
00BFD00005FF40
01FF800008FF20
04FF50000CFF00
06FF30004FFD00
05FF4001DFFA00
01EFB25DFFF600
004EFFFA9FF100
00003310CFA000
00000003FF3000
0570000AF90000
7FE1005FD10000
BF9004EE300000
8FC59FD3000000
19EFC710000000
ENDCHAR
STARTCHAR colon
ENCODING 58
SWIDTH 312 0
DWIDTH 8 0
BBX 7 12 0 -1
BITMAP
00047400
003FFF50
005FFF50
001CFA00
00001000
00000000
00000000
00000000
0AFC3000
3FFF8000
1EFF4000
03840000
ENDCHAR
STARTCHAR semicolon
ENCODING 59
SWIDTH 312 0
DWIDTH 8 0
BBX 7 15 0 -3
BITMAP
00047400
002FFF60
004FFF60
000BFB00
00001000
00000000
00000000
00000000
07EC1000
0DFF7000
06FF6000
03FF2000
06F90000
3EC10000
C9100000
ENDCHAR
STARTCHAR less
ENCODING 60
SWIDTH 637 0
DWIDTH 15 0
BBX 13 13 1 1
BITMAP
00000000003B80
000000002AFF40
00000018FFB200
000006EFD50000
0004DFF8100000
03BFFB20000000
4FFF5000000000
07EFD400000000
002AFFB2000000
00003BFF810000
0000005DFE6000
000000007EFC30
00000000018E60
ENDCHAR
STARTCHAR equal
ENCODING 61
SWIDTH 617 0
DWIDTH 15 0
BBX 13 7 1 5
BITMAP
0BFFFFFFFFFFB0
04555555555510
00000000000000
00000000000000
00111111111100
2EFFFFFFFFFF80
04444444444300
ENDCHAR
STARTCHAR greater
ENCODING 62
SWIDTH 606 0
DWIDTH 15 0
BBX 13 13 1 1
BITMAP
2DB30000000000
19FFA200000000
003CFE81000000
00006EFE600000
0000019FFC4000
00000003CFFB20
000000001DFF90
00000006EFD600
000003CFE71000
0001AFF9100000
007EFB30000000
1CFD4000000000
2D600000000000
ENDCHAR
STARTCHAR question
ENCODING 63
SWIDTH 516 0
DWIDTH 12 0
BBX 12 18 1 0
BITMAP
000003AEEC50
00005FF96BF6
0001EF8002FC
0004FF5003FE
0004FF700AFC
000089109FF6
0000001BFFB0
000004EFFA00
00005FFE6000
0004FFD20000
000CFB100000
001FD1000000
000C30000000
000000000000
08ED30000000
1FFFA0000000
1FFF80000000
06EB10000000
ENDCHAR
STARTCHAR at
ENCODING 64
SWIDTH 905 0
DWIDTH 22 0
BBX 21 21 1 -4
BITMAP
0000000000001000000000
000000016ADFFFEA500000
0000007EEA65458DFC2000
00002CE7000000008FE200
0003EC200000000009FA00
002ED1000000001001FF10
00CF30003AEF95FA00CF30
06F90005FE76FFF800AF40
0DF3004FF400AFE100BF30
4FE000DF9000DF8000EF10
8FA005FF3005FF2006FA00
BF8008FE000DFB000DF300
CF700AFC008FF600AF7000
CF8008FE28CAF64BF80000
AFB001CFFA14FFFC400000
6FF1000320001420000000
1EF9000000000000000000
06FF700000000000000000
006FFC631247B200000000
00029EFFFFEB4000000000
0000002332000000000000
ENDCHAR
STARTCHAR A
ENCODING 65
SWIDTH 615 0
DWIDTH 15 0
BBX 18 18 -2 0
BITMAP
000000000000039DF7
0000000000019FDFF6
00000000002CE55FF1
0000000002DD20CFA0
000000001CE204FF40
00000000AF500BFD00
00000006F9002FF700
0000002ED1008FF100
000000BFDCEEFFFFC0
00008EFFFFFFFFFE60
00028FF32228FF3000
00007F90000BFD0000
0001EF20000EFA0000
0009FA00001FF60000
003FF200003FF50000
02DF9000004FF73400
5DFC1000001FFFF700
AEA100000006EE8000
ENDCHAR
STARTCHAR B
ENCODING 66
SWIDTH 551 0
DWIDTH 13 0
BBX 14 18 1 0
BITMAP
00159CEFFDA400
06EFFD9668EF70
0CFC5100005FF2
0131DE50002FF5
0008FF80004FF6
002FFE10009FF2
00AFF50005FFA0
01FFC0007FFC10
07FF537DFFB100
0DFFFFFFF50000
2FFC856CFC1000
6FE00001EF7000
AFA00000CFA000
CF600001EF8000
DF400008FF2000
CF50019FF70000
7FE89DFE600000
08DFEB61000000
ENDCHAR
STARTCHAR C
ENCODING 67
SWIDTH 533 0
DWIDTH 13 0
BBX 14 18 1 0
BITMAP
00000005BEFB30
000002CFE86CE1
00004EFB1007F6
0003EFB0000AF8
001DFD10004FF6
00AFF40003EFF2
03FFB0004EFF70
0AFF30004FF900
1FFC0000033000
5FF70000000000
9FF30000000000
BFF10000000000
CFE00000000000
CFF00000000000
AFF10000030000
5FF60003CD0000
0BFE76AFF80000
007CEED9300000
ENDCHAR
STARTCHAR D
ENCODING 68
SWIDTH 630 0
DWIDTH 15 0
BBX 15 18 1 0
BITMAP
0048BDEFEB720000
07FFFC8669FF7000
02CD4000003EF700
00004A810007FF10
0001EFF20002FF60
0007FF800001FF80
001EFE100001FF70
007FF7000004FF60
00DFE1000008FF20
04FF9000001EFD00
0AFF3000008FF600
0EFC000002FFC000
4FF700001DFE3000
8FF20001BFF50000
BFD0001CFF600000
DFA004DFE4000000
9FC7BFFA20000000
08DEC82000000000
ENDCHAR
STARTCHAR E
ENCODING 69
SWIDTH 509 0
DWIDTH 12 0
BBX 13 18 1 0
BITMAP
0000017CEFD910
00003DFFA67FA0
0004FFD3000DF0
002EFD10005FE0
009FF40006FF90
01FFB000AFFE20
03FF6000DFE300
02FF5000141000
00CF9021000000
003DFFFD100000
006EFFC7000000
08FFE500000000
5FFD2000000000
CFF30000100000
FFC00002D50000
EFB0003DF40000
6FF86AFF700000
05BEED93000000
ENDCHAR
STARTCHAR F
ENCODING 70
SWIDTH 518 0
DWIDTH 12 0
BBX 15 18 0 0
BITMAP
003BEEDB863104B0
03EFFFFFFFFFFF90
09FF8439FDCEEA10
09F8001EF6000000
0192007FF1000000
000000DFB0000000
000004FF60000000
000009FF20000000
00001EFFDFD40000
0008EFFFFFFC0000
001BEFF532210000
0001EFC000000000
0006FF6000000000
000DFD0000000000
005FF60000000000
01DFB00000000000
0BFD200000000000
2EB2000000000000
ENDCHAR
STARTCHAR G
ENCODING 71
SWIDTH 598 0
DWIDTH 14 0
BBX 14 18 1 0
BITMAP
00000004AEFC30
000002BFE96CE2
00003EFC2006F8
0003EFD10009F9
001DFE20004FF7
009FF60004EFF2
02FFD0003FFF70
09FF50002EF700
0EFD0000001000
4FF80000200020
8FF4001CFFDEF2
AFF1003DFFFFC0
BFE00000CFEB20
CFE00000AF4000
AFF00001EE0000
5FF50009F50000
0BFE76CF600000
008DFEA3000000
ENDCHAR
STARTCHAR H
ENCODING 72
SWIDTH 668 0
DWIDTH 16 0
BBX 18 18 -1 0
BITMAP
0005BEFD50000005E7
0008FABFE000000BFC
000010AFE000000EFA
000000DFC000003FF6
000002FF9000007FF2
000006FF500000CFC0
00000AFF100002FF60
00000EFC000017FF10
0003AFFEDEEFFFFFC0
0009FFF65456AFFE50
0001EFA000009FD000
0006FF400000EF7000
000CFC000004FF2000
004FF500000AFB0000
00CFC000000EF60000
07FF3000003FF43200
5FF50000004FFFF300
AD500000000AFC4000
ENDCHAR
STARTCHAR I
ENCODING 73
SWIDTH 327 0
DWIDTH 8 0
BBX 10 18 -1 0
BITMAP
0002AEFD60
0003EC9FF3
0000105FF4
0000008FF3
000000BFF0
000000EFC0
000003FF80
000008FF30
00000CFE00
00002FF900
00007FF300
0000DFC000
0004FF6000
000BFD1000
004FF50000
01DFB00000
0BFD100000
2EB1000000
ENDCHAR
STARTCHAR J
ENCODING 74
SWIDTH 393 0
DWIDTH 9 0
BBX 15 24 -4 -6
BITMAP
000000039DFEB400
000001AFFE8BFF10
00000AFFA10AFF20
000004C8000CFF00
00000000001FFC00
00000000005FF800
00000000009FF400
0000000000EFE100
0000000004FFA000
0000000009FF5000
000000001EFE0000
000000006FF90000
00000000CFF20000
00000004FFA00000
0000000BFF300000
0000004FFB000000
000000CFF3000000
000005FF90000000
00001EFD10000000
0000AFF400000000
0007FF6000000000
007FF70000000000
2AFF600000000000
EE92000000000000
ENDCHAR
STARTCHAR K
ENCODING 75
SWIDTH 616 0
DWIDTH 15 0
BBX 17 18 -1 0
BITMAP
0018DED7000006EA10
002FD7FF600004FF60
000212FF700003FF80
000005FF600007FF50
000008FF30001DFD00
00000BFF1000AFF400
00001FFC0008FF5000
00005FF8009FE40000
00009FF31BFB100000
0000EFD3DF70000000
0004FFDFF400000000
000AFF6EFC10000000
001FFC04FF90000000
008FF500AFF5000000
01EFC0002FFE100000
0AFF300007FFB00000
8FF6000000BFFB5300
DD5000000018EFB300
ENDCHAR
STARTCHAR L
ENCODING 76
SWIDTH 517 0
DWIDTH 12 0
BBX 15 18 -1 0
BITMAP
0000000018DFC300
00000001CFC6CD10
0000000BFC106F50
0000007FF3008F70
000001EFA001EF60
000008FF301BFF10
00001EFC02BFF800
00006FF60EFFC100
0000CFF108EA1000
0002FFA000000000
0007FF3000000000
000DFC0000000000
003FF50000000000
009FC00000000000
02FF300000000000
1BF848ACEFC30000
7FFEFFFFFFFE0000
2DEB8643359E1000
ENDCHAR
STARTCHAR M
ENCODING 77
SWIDTH 931 0
DWIDTH 22 0
BBX 26 18 -3 0
BITMAP
00000000000007DE7000007DE4
000000000002CEFF90001BFFF5
00000000001DD7FF3000BF9FE1
0000000000CE2BFC0008F7BFA0
0000000008F62FF7004FC2FF50
000000003FC07FF200DF37FE00
00000000CF30CFC007F90DFA00
00000006FA01FF801EE13FF500
0000001EF205FF408F708FE100
0000008F9008FF01EE10DFA000
000002EE100BFC08F602FF6000
00000AF8000EF91ED006FF2000
00004FE1001FF78F6009FE0000
0000DF60002FF7ED000CFB0000
0008FC00002FFDF5000DF90000
005FF300002FFFB0000DFC2420
17FF7000000FFE200009FFFF30
5ED600000008E4000001BFD600
ENDCHAR
STARTCHAR N
ENCODING 78
SWIDTH 708 0
DWIDTH 17 0
BBX 19 18 0 0
BITMAP
00000005DE30001CE800
0000006FFF30002EFF50
000004FFFF000007FF80
00001DFBFD000005FF80
00008F99FD000006FF40
0001EE1AFD000008FE00
0008F80AFE00000DF800
001EF209FF00003FF200
006FB008FF20009F8000
00CF5007FF5001EE1000
02FF1004FF7008F70000
07FB0001FFB01ED00000
0CF70000DFE06F600000
1FF300008FF4DD000000
4FE000003FFDF5000000
7FB000000CFFE0000000
8F80000003FF90000000
3E500000005E60000000
ENDCHAR
STARTCHAR O
ENCODING 79
SWIDTH 655 0
DWIDTH 16 0
BBX 16 18 1 0
BITMAP
000000039DFDA200
000001AFF969FE20
00001CFE4000AF90
0001CFF300007FE0
000AFF6000006FF1
004FFA0000007FF1
00DFF2000000AFF0
05FF90000000EFC0
0BFF20000004FF90
1FFC00000009FF40
4FF70000002FFD00
7FF30000009FF500
8FF0000002FFB000
8FE000000CFE2000
5FE000009FF50000
1EF40009FF600000
06FE77DFD4000000
004BEEC710000000
ENDCHAR
STARTCHAR P
ENCODING 80
SWIDTH 553 0
DWIDTH 13 0
BBX 16 18 -1 0
BITMAP
0000049CEFED9400
0002CFFFB767DF90
0006FF9200001EF7
0000634E90000AFC
000000DFC0000BFD
000005FF60002FFA
00000BFF1000BFF4
00001FFA001AFF90
00007FF504DFF900
0000CFF9DFFD5000
0002FFFED9400000
0008FF2000000000
000EFB0000000000
006FF40000000000
00DFB00000000000
07FE200000000000
5FF5000000000000
AD50000000000000
ENDCHAR
STARTCHAR Q
ENCODING 81
SWIDTH 655 0
DWIDTH 16 0
BBX 17 22 1 -4
BITMAP
00000005BEFD810000
000003CFE86AFB0000
00004EFB1000CF5000
0003FFB000009FA000
000DFC1000009FD000
008FF4000000BFD000
01FFA0000000EFC000
07FF30000004FF8000
0BFD00000009FF3000
0EF90000002FFC0000
1FF8000000AFF40000
2FF8000005FF900000
0FFD00002EFD100000
0AFF7001CFE2000000
01DF601CFD20000000
000105EFB200000000
0017DFFC1000000000
00AFFFFFE810000000
0000026CFFD5000000
000000005DFFC52520
00000000017DFFFD10
000000000000233000
ENDCHAR
STARTCHAR R
ENCODING 82
SWIDTH 623 0
DWIDTH 15 0
BBX 16 19 -1 -1
BITMAP
0000038BDFFDA400
0001BFFFA767CFA0
0004FF9200000CF7
0000442EC00008FD
000000BFE00008FF
000003FF90000DFD
000009FF30006FF8
00000EFD0005FFD1
00004FF8019FFC20
0000AFF9AFFF8000
0001EFEFFE820000
0006FF55FE300000
000CFD00BFD00000
004FF7004FF70000
00BFD0000CFE1000
05FF400005FFA000
3EF8000000AFFA62
7E700000001AFFC1
0000000000002300
ENDCHAR
STARTCHAR S
ENCODING 83
SWIDTH 474 0
DWIDTH 11 0
BBX 14 18 0 0
BITMAP
0000006CEEB400
00001BFC76CF40
0000CFA0002FC0
0007FE10001FF1
000DF900005FF1
003FF70001DFE0
004FF8002CFF70
004FFB006FFC00
001FFF30066000
000AFFC0000000
0002EFF8000000
00004FFF200000
000007FF800000
09D000DFA00000
4FD0008F900000
6FF100AF400000
2EFC69F7000000
03BEEB40000000
ENDCHAR
STARTCHAR T
ENCODING 84
SWIDTH 471 0
DWIDTH 11 0
BBX 15 18 1 0
BITMAP
019EFDC964103C10
1CFFFFFFFFFFFD00
5FFB436FFDEEC300
5FC0008FF1000000
1A5000EFB0000000
000004FF70000000
000009FF20000000
00000EFD00000000
00003FF800000000
00008FF300000000
0000CFD000000000
0002FF8000000000
0007FF2000000000
000DFA0000000000
005FF30000000000
00DF900000000000
0AFC100000000000
5EA1000000000000
ENDCHAR
STARTCHAR U
ENCODING 85
SWIDTH 624 0
DWIDTH 15 0
BBX 17 18 0 0
BITMAP
00004DFA0000009E50
00003EFF100003FF70
00000CFD00000BFE10
00001FF900003FF900
00007FF30000BFF300
0000DFC00004FFC000
0005FF50000CFF6000
000CFD00005FFF1000
003FF60000DFFB0000
00AFE10007FFF60000
01FF80001EFFF10000
07FF1000AECFB00000
0DFA0005F6EF700000
3FF5001EA2FF400000
6FF201CD15FF200000
8FF53CE206FF533000
5FFFFD2003FFFF6000
08EE9100008EE70000
ENDCHAR
STARTCHAR V
ENCODING 86
SWIDTH 587 0
DWIDTH 14 0
BBX 16 19 2 0
BITMAP
000000000000BE70
06BEE9100002FFF2
9FFFFFA000009FF4
4EA57FF000007FF3
0000CFD00000AFE0
0006FF700003FF90
001EFE10000CFF20
007FF700007FF700
00DFE10004FFB000
05FF70002EFD1000
0BFE1001CFD20000
2FF8000BFD200000
7FF200AFD2000000
BFB009FC10000000
EF708FC100000000
FF55FC1000000000
EF8EC10000000000
AFFD200000000000
1DE3000000000000
ENDCHAR
STARTCHAR W
ENCODING 87
SWIDTH 941 0
DWIDTH 23 0
BBX 23 18 1 0
BITMAP
017CEE60000000000004DE30
0DFFFFF500000000000BFF90
09E94AFB000000000006FFD0
00002FF9000002410002FFE0
0000BFF300006EF90000FFD0
0003FFC00009FFD10000FFC0
000BFF4000AFFF300001FF90
003FFB0009FFF9000004FF50
00AFF4007FFFF2000008FF10
01FFC005FEEFB000000DF900
06FF502EE5FF6000004FF200
0BFD00CF56FF300000CF9000
1FF807F809FE000005FE1000
3FF42EB00AFC00001EF40000
4FF1BE100AFB0000BF600000
4FF6F40008FC001BF7000000
0EFE800003FF87DE40000000
04EC0000006DFC7100000000
ENDCHAR
STARTCHAR X
ENCODING 88
SWIDTH 552 0
DWIDTH 13 0
BBX 20 18 -2 0
BITMAP
000000009E100002AEC1
00000009FF00005EFD40
0000000EFD0005FFA100
0000000EFC003EF90000
0000000EFC01DF900000
0000000DFC0AFB000000
0000000BFD6FD1000000
00000009FEFE20000000
00000007FFF500000000
00000004FFA000000000
0000000BFF9000000000
0000006FFFD000000000
000004FEAFF300000000
00002EF54FF900000000
0002DF700EFF20000000
003EF90007FFC2420000
06FF900000CFFFF30000
2ED60000001AED500000
ENDCHAR
STARTCHAR Y
ENCODING 89
SWIDTH 580 0
DWIDTH 14 0
BBX 17 24 0 -6
BITMAP
00005DF9000000AE40
00004FFF000004FF60
00000DFC00000CFD00
00002FF800005FF700
00008FF20000CFF100
0001EFB00005FFA000
0006FF40000DFF4000
000DFC00006FFE0000
004FF50001EFF80000
00BFD00008FFF30000
02FF60002FFFC00000
08FE1000BEEF700000
0EF90006F9FF100000
4FF4002EA9FA000000
7FF101DC2FF4000000
9FF44DD29FC0000000
6FFFFD22FF40000000
09EE810AFB00000000
0000005FE200000000
000002EF6000000000
00001DF90000000000
0002DFA00000000000
017EF9000000000000
09EB40000000000000
ENDCHAR
STARTCHAR Z
ENCODING 90
SWIDTH 501 0
DWIDTH 12 0
BBX 16 18 -1 0
BITMAP
0000D943347ADE60
0000CFFFFFFECFF3
00004CFFC842DFF2
00000000001DFF80
0000000001CFFA00
000000001CFFB000
00000000BFFC1000
0000000AFFC10000
0000009FFC100000
000007FFC1000000
00005FFC10000000
0003FFC100000000
001DFD1000000000
00BFE20000000000
07FF300012100000
1EF748BEFFF60000
4FFEFFFFFFFF1000
0CEB8421026D3000
ENDCHAR
STARTCHAR bracketleft
ENCODING 91
SWIDTH 396 0
DWIDTH 10 0
BBX 13 26 0 -5
BITMAP
000000006BBA40
00000001FFD610
00000007FF2000
0000000CFB0000
0000002FF50000
0000007FE00000
000000DF900000
000003FF400000
000008FD000000
00000DF8000000
00004FF3000000
00009FD0000000
0000EF80000000
0005FF30000000
000AFC00000000
001EF700000000
005FF200000000
00BFC000000000
01FF7000000000
06FF2000000000
0CFB0000000000
2FF60000000000
7FF10000000000
CFD10000000000
EFFFB000000000
14430000000000
ENDCHAR
STARTCHAR backslash
ENCODING 92
SWIDTH 464 0
DWIDTH 11 0
BBX 9 25 1 -4
BITMAP
CA00000000
AF50000000
6F90000000
2FD0000000
0DF1000000
0AF5000000
06F9000000
02FD000000
00DF200000
009F600000
005FA00000
001FD00000
000CF20000
0009F60000
0005FA0000
0001FE0000
0000CF3000
00008F6000
00004FA000
00001FE000
00000BF300
000008F700
000004FB00
000000EE00
0000007E10
ENDCHAR
STARTCHAR bracketright
ENCODING 93
SWIDTH 394 0
DWIDTH 9 0
BBX 14 27 -2 -5
BITMAP
00000000001100
000000008EFFE1
0000000014BFF1
0000000000BFA0
0000000001FF50
0000000006FE10
000000000CFA00
000000002FF400
000000007FE000
00000000CF9000
00000002FF4000
00000007FE0000
0000000CF80000
0000002FF30000
0000007FD00000
000000CF800000
000003FF300000
000008FD000000
00000DF7000000
00003FF2000000
00008FC0000000
0000EF70000000
0004FF20000000
000AFB00000000
004FF600000000
3CFFE100000000
03441000000000
ENDCHAR
STARTCHAR asciicircum
ENCODING 94
SWIDTH 540 0
DWIDTH 13 0
BBX 11 10 2 8
BITMAP
00002E800000
0000AFE10000
0003FFF70000
000BFEFE0000
004FF3DF6000
00CF705FD000
05FC000BF500
0DF30003FC00
6F8000009F40
9C0000001D70
ENDCHAR
STARTCHAR underscore
ENCODING 95
SWIDTH 530 0
DWIDTH 13 0
BBX 16 2 -4 -4
BITMAP
6EFFFFFFFFFFFFFD
BFFFFFFFFFFFFFF7
ENDCHAR
STARTCHAR grave
ENCODING 96
SWIDTH 219 0
DWIDTH 5 0
BBX 5 6 0 13
BITMAP
08E800
1FF800
0EF800
08F900
01CE10
001610
ENDCHAR
STARTCHAR a
ENCODING 97
SWIDTH 541 0
DWIDTH 13 0
BBX 13 13 0 -1
BITMAP
000005BFD56EA0
00009FE78FFFB0
000BFD200DFF40
007FF3001FFC00
02FF80005FF500
09FF2000BFE000
0EFC0003FF8000
2FF8000BFF3000
3FF7005FFE0000
1FF602EBFE0000
0AFC6E95FFCE20
01BFD601EFF900
00000000164000
ENDCHAR
STARTCHAR b
ENCODING 98
SWIDTH 525 0
DWIDTH 13 0
BBX 11 20 1 0
BITMAP
000054000000
0001FF300000
0004FF300000
0007FF100000
000BFB000000
000EF7000000
004FF2000000
009FC0000000
00DF64BFD600
03FF6F89FF30
08FDE501FF90
0DFF7001FFB0
3FFC0002FFA0
8FF30005FF80
CFB00009FF30
EF60001EFB00
FF2000AFF300
DF2019FF6000
7FC9DFE40000
07DFD8100000
ENDCHAR
STARTCHAR c
ENCODING 99
SWIDTH 465 0
DWIDTH 11 0
BBX 11 12 0 0
BITMAP
000005BEEB10
0001BFD79FA0
001DFD104FE0
00AFF3009FD0
04FF8006FF80
0AFF2006FC10
0FFC00001000
2FF800000000
3FF700001000
1FF90004E200
08FF86AF9000
007DFEB50000
ENDCHAR
STARTCHAR d
ENCODING 100
SWIDTH 557 0
DWIDTH 13 0
BBX 15 20 1 0
BITMAP
0000000000003710
000000000001EF70
000000000007FF20
00000000000DFA00
00000000004FF500
00000000009FE000
0000000000EF8000
0000000004FF3000
00002AEE99FD0000
0005EF96EFF80000
006FF4008FF30000
03FF6000BFD00000
0DFC0001FF900000
5FF50005FF400000
BFE0000DFF100000
EFB0006FFB000000
FFA001DFF8000000
EFA00AACF9240000
9FE6BC1AFFF90000
1AEE8102CE910000
ENDCHAR
STARTCHAR e
ENCODING 101
SWIDTH 471 0
DWIDTH 11 0
BBX 10 12 1 0
BITMAP
00004BEEA1
0009FD6BF9
00AFD106FD
07FF4009FE
1FFB003FF9
8FF504EFD1
CFF7BFFA10
EFECB72000
FF90000000
CFC0001B70
5FF969EF40
05CFED9300
ENDCHAR
STARTCHAR f
ENCODING 102
SWIDTH 393 0
DWIDTH 9 0
BBX 14 23 -1 -3
BITMAP
000000003CFFA1
00000003EF7AF9
0000000BF905FD
0000004FF20BFC
000000AFC07FF6
000000EF702B80
000004FF300000
000008FE000000
00000DFA210000
00016FFFFFB000
005EFFFFFFF200
007AEFB1000000
0001FF70000000
0005FF30000000
000AFD00000000
000EF900000000
004FF500000000
009FE100000000
00EFA000000000
05FF5000000000
0BFD0000000000
3FF70000000000
5EA00000000000
ENDCHAR
STARTCHAR g
ENCODING 103
SWIDTH 526 0
DWIDTH 13 0
BBX 13 19 0 -7
BITMAP
000004BEE70510
00009FD78FCFB0
000AFD2009FF70
007FF4000AFF10
02FFA0001EFA00
08FF40006FF600
0DFE0000DFF100
1FFA0007FFB000
1FF9002EFF7000
0EF901CFFF2000
09FE6CDAFC0000
01AED81DF60000
0000004FE10000
000000BF800000
000005FE100000
00002EF6000000
0004EF90000000
03BFF800000000
02993000000000
ENDCHAR
STARTCHAR h
ENCODING 104
SWIDTH 555 0
DWIDTH 13 0
BBX 13 20 0 0
BITMAP
00000063000000
000005FE100000
000008FF100000
00000BFD000000
00000EF9000000
00003FF5000000
00007FF1000000
0000BFB0000000
0001FF505DE900
0005FE16FFFF40
000AFA4F96FF40
001EF6E807FF10
005FDCA00EFB00
00BFFC106FF400
02FFE200DFB000
08FF5004FF5000
1EFB0008FF1000
7FF3000AFE2500
EFB00008FFFD00
9E300001BFB200
ENDCHAR
STARTCHAR i
ENCODING 105
SWIDTH 286 0
DWIDTH 7 0
BBX 8 18 0 0
BITMAP
00005EE5
0000CFFA
00009FF6
00000640
00000000
00000000
003DFC00
002EFF00
000CFB00
001FF600
006FE000
00DF7000
04FE1000
0AF90000
1FF40000
4FF74000
4FFFE000
0AFD4000
ENDCHAR
STARTCHAR j
ENCODING 106
SWIDTH 281 0
DWIDTH 7 0
BBX 13 24 -5 -6
BITMAP
000000001CFA00
000000007FFF10
000000004FFB00
00000000046000
00000000000000
00000000000000
00000005EF9000
00000005FFC000
00000001FFA000
00000002FF8000
00000004FF5000
00000008FF1000
0000000BFC0000
0000001FF70000
0000006FF20000
000000BFB00000
000002FF500000
000009FD000000
00001FF6000000
00009FC0000000
0004FF20000000
002DF600000000
04DF6000000000
1EB30000000000
ENDCHAR
STARTCHAR k
ENCODING 107
SWIDTH 497 0
DWIDTH 12 0
BBX 13 20 0 0
BITMAP
00000062000000
000005FE000000
000008FE000000
00000BFC000000
00000EF8000000
00003FF4000000
00007FE0000000
0000BFA0000000
0001FF502DE800
0005FE100CFF10
000AF9001EFE00
001EF401BFF500
005FD05EFD4000
00BFCDFC600000
02FFFFB0000000
08FF9FF1000000
1EF92FFA000000
7FF209FF914100
EFA001DFFFF200
9E30002BFC4000
ENDCHAR
STARTCHAR l
ENCODING 108
SWIDTH 279 0
DWIDTH 7 0
BBX 8 20 0 0
BITMAP
00000361
00000CF8
00000EF9
00002FF6
00006FF3
00009FD0
0000DF90
0003FF40
0008FD00
000DF800
003FF300
008FD000
00DF8000
03FF3000
08FD0000
0CF90000
1FF50000
3FF54200
1FFFF300
06ED6000
ENDCHAR
STARTCHAR m
ENCODING 109
SWIDTH 814 0
DWIDTH 20 0
BBX 19 12 0 0
BITMAP
003DE8004CE8002AEB10
002EFE05FFFF12DFFF80
000CFC3EC4EF1DC4FF90
001FF7DB11FBAC13FF50
005FECC107FDE20BFD00
00BFFD100DFF503FF600
02FFE3006FF900AFE000
08FF5000DFD001FF8000
0EFB0005FF5004FF2000
6FF4000CFC0006FF2510
DFC0002FF60005FFFE10
8E40001CC000009EC300
ENDCHAR
STARTCHAR n
ENCODING 110
SWIDTH 561 0
DWIDTH 13 0
BBX 13 12 0 0
BITMAP
003DE7004CEA00
002EFD05FFFF60
000CFB4FA5FF70
001FF8EA05FF40
005FECB00CFD00
00BFFD104FF600
02FFE300BFD000
08FF5001FF7000
0EFB0006FF2000
6FF40008FE2410
DFC00006FFFE10
8E400000AEC400
ENDCHAR
STARTCHAR o
ENCODING 111
SWIDTH 514 0
DWIDTH 12 0
BBX 12 12 0 0
BITMAP
000006CEEA20
0001BFE7AFC0
001CFE203FF5
009FF4002FF7
03FFA0004FF7
09FF30008FF4
0EFD0000DFE0
1FF90005FF90
2FF7001DFE10
0EF700AFF400
07FD6BFE4000
007DFD910000
ENDCHAR
STARTCHAR p
ENCODING 112
SWIDTH 550 0
DWIDTH 13 0
BBX 15 18 -2 -6
BITMAP
00009EC207DEB200
00008FF6BE7BFC00
00004FFDD205FF30
00007FFF3005FF40
0000AFF70006FF40
0000EFD0000AFF10
0003FF60001EFA00
0008FF10008FF400
000CFD0003FF9000
001FFD003DFC1000
006FFFBAFFA10000
00AFB6DFB5000000
01EF700000000000
05FF200000000000
0AFC000000000000
2FF7000000000000
8FE1000000000000
6E60000000000000
ENDCHAR
STARTCHAR q
ENCODING 113
SWIDTH 533 0
DWIDTH 13 0
BBX 12 18 1 -6
BITMAP
00003AEE8021
0007FF87ECFD
008FE3009FFB
05FF5000CFF4
1EFB0002FFD0
6FF40006FF60
CFE0000DFE10
EFB0006FF800
FF9001EFF200
DF900BDFB000
8FE6CD9F6000
1AEE81EF1000
000006FB0000
00000CF70000
00001FF30000
00003FF20000
00002FF20000
000009E30000
ENDCHAR
STARTCHAR r
ENCODING 114
SWIDTH 407 0
DWIDTH 10 0
BBX 11 12 0 0
BITMAP
006ED402BE80
005FF91DFFC0
000FF7BC8E60
002FF8C10000
006FDE200000
00BFF7000000
01FFC0000000
06FF50000000
0CFD00000000
3FF600000000
8FF100000000
4D9000000000
ENDCHAR
STARTCHAR s
ENCODING 115
SWIDTH 423 0
DWIDTH 10 0
BBX 11 12 0 0
BITMAP
00018DFDA200
001CF96CFD00
007FD004FF20
00AFE004FB00
008FF7002000
002FFF300000
0008FFC00000
0000CFF50000
2A303FF90000
9F800EF70000
8FF8AFB10000
08DEC7100000
ENDCHAR
STARTCHAR t
ENCODING 116
SWIDTH 358 0
DWIDTH 9 0
BBX 9 15 1 0
BITMAP
00003EC000
0000CFC000
0005FF5000
08FFFFFFC0
018FF74300
00AFD00000
01EF800000
04FF300000
09FD000000
0CF9000000
0FF5000000
2FF3002000
2FF528D000
0EFFFF6000
04DEB40000
ENDCHAR
STARTCHAR u
ENCODING 117
SWIDTH 553 0
DWIDTH 13 0
BBX 14 12 0 0
BITMAP
002CFA00003EC1
001DFF1000CFD0
000BFD0006FF60
001FF9001EFD00
007FF3008FF700
00DFC003FFE100
05FF500CFF9000
0CFD009DCF4000
2FF607E4FF0000
6FF58F55FF3500
5FFFF605FFFD00
0AEC4000BFC300
ENDCHAR
STARTCHAR v
ENCODING 118
SWIDTH 510 0
DWIDTH 12 0
BBX 12 12 0 0
BITMAP
002CFB003DE4
001DFF202FFC
000BFE000BFE
001EF9000AFD
006FF3000BFA
00DFB0001EF5
04FF40006FC0
0BFD0001EF30
1FF7000BF600
3FF502BF7000
2FFECFE50000
07EEC7100000
ENDCHAR
STARTCHAR w
ENCODING 119
SWIDTH 750 0
DWIDTH 18 0
BBX 18 12 0 0
BITMAP
005EE8000000005ED2
004EFF0004EE105FF8
000AFC000CFD000EFA
000DF8006FF6000CF9
003FF201DFE0000DF6
009FB009FF70001FF1
01EF504FFF20006FA0
05FE02ECFE0000DE20
0BF91CB6FC0008F600
0FF8DC15FF208F8000
2FFFC102FFEEF70000
0AE800006DEB400000
ENDCHAR
STARTCHAR x
ENCODING 120
SWIDTH 467 0
DWIDTH 11 0
BBX 14 12 -1 0
BITMAP
00006E40008ED2
0002FF401CFD40
0005FF51DFA100
0004FF6AF90000
0002FFDF900000
0000DFFA000000
00008FF3000000
0001DFF7000000
001BFDFD000000
01BF75FF824000
2CF900BFFFC000
5E80001BEB2000
ENDCHAR
STARTCHAR y
ENCODING 121
SWIDTH 549 0
DWIDTH 13 0
BBX 14 19 0 -7
BITMAP
001BFC10002DC1
001CFF3000AFE1
0009FF1003FFA0
000EFA000CFF40
005FF5005FFE00
00CFD001DFF900
04FF7009FFF300
0AFE106FBFD000
1FF804F6DF7000
4FF66F93FF2000
3FFFFA08FB0000
09ED601EF40000
0000006FC00000
000001EF400000
00000AFA000000
00009FD1000000
002AFE20000000
05FFC200000000
01640000000000
ENDCHAR
STARTCHAR z
ENCODING 122
SWIDTH 430 0
DWIDTH 10 0
BBX 11 12 0 0
BITMAP
002EA6447D90
001EFFFFEFF0
00015536FF90
0000007FFB00
00000AFF9000
0001BFF80000
001CFE500000
01CFE3000000
0BFE20000000
6FF668960000
CFFFFFFF8000
6EB6336BA000
ENDCHAR
STARTCHAR braceleft
ENCODING 123
SWIDTH 424 0
DWIDTH 10 0
BBX 13 27 1 -5
BITMAP
00000000001000
000000008EFE20
00000007FF8300
0000000EFA0000
0000005FF40000
0000009FE00000
000000DFA00000
000002FF600000
000007FF100000
00000DFB000000
00007FF4000000
0028FFA0000000
07FFFA00000000
06FE3000000000
009FA000000000
007FD000000000
009FC000000000
00DFA000000000
03FF5000000000
09FE0000000000
0EF90000000000
4FF40000000000
8FE00000000000
BFC00000000000
BFD10000000000
5FFF3000000000
01420000000000
ENDCHAR
STARTCHAR bar
ENCODING 124
SWIDTH 306 0
DWIDTH 7 0
BBX 3 25 3 -4
BITMAP
7E10
EF20
FF30
FF30
FF30
FF30
FF30
FF30
FF30
FF30
FF20
FF20
FF20
FF20
FF20
FF20
FF20
FF20
FF20
FF20
FF20
FF20
FF20
FF20
D900
ENDCHAR
STARTCHAR braceright
ENCODING 125
SWIDTH 424 0
DWIDTH 10 0
BBX 13 26 -2 -5
BITMAP
000000007FFB10
0000000017FF60
0000000002FF60
0000000004FF40
0000000008FE10
000000000DFA00
000000003FF500
000000008FE000
00000000DF9000
00000002FF5000
00000003FF3000
00000001FF4000
000000006FC200
0000001AFFF300
000000CFF83000
000008FF400000
00001EFA000000
00005FF3000000
0000AFD0000000
0000EF90000000
0003FF50000000
0007FF10000000
000DFA00000000
019FF300000000
6FFF7000000000
03410000000000
ENDCHAR
STARTCHAR asciitilde
ENCODING 126
SWIDTH 624 0
DWIDTH 15 0
BBX 14 5 1 6
BITMAP
0019EE91000096
02DFFFFD1004F5
0CE54DFFD45EC0
5F4001DFFFFD20
6A00002AEE9100
ENDCHAR
STARTCHAR nonbreakingspace
ENCODING 160
SWIDTH 293 0
DWIDTH 7 0
BBX 1 1 0 0
BITMAP
00
ENDCHAR
STARTCHAR exclamdown
ENCODING 161
SWIDTH 417 0
DWIDTH 10 0
BBX 10 20 0 -6
BITMAP
000001BE70
000007FFF1
000009FFF2
000003CF90
0000000000
0000065000
00006F5000
0002EE0000
0009F90000
002FF40000
009FE00000
01EFA00000
06FF600000
0AFF200000
0EFE000000
2FFB000000
4FF8000000
4FF6000000
0CF4000000
0160000000
ENDCHAR
STARTCHAR cent
ENCODING 162
SWIDTH 487 0
DWIDTH 12 0
BBX 11 18 1 0
BITMAP
000000006E70
00000002FE10
00000008F600
0000026EF300
00019FEBFE10
001CFD20BF50
00AFF301EF50
04FF800CFE10
0AFF200AE500
0EFC00000000
2FF900000000
2FF700000000
1FF90004D000
0AFE427FB000
01AFFFE81000
002FB3100000
006F30000000
008C00000000
ENDCHAR
STARTCHAR sterling
ENCODING 163
SWIDTH 665 0
DWIDTH 16 0
BBX 18 18 -1 0
BITMAP
000000000002AEFB20
00000000003EFA6EC0
0000000002EFA00AF2
000000000AFE100CF3
000000004FF7004FF1
00000000BFF103EFB0
00000003FFA05FFF30
00000009FF408FF600
0000001EFE10053000
00007CEFFFFE600000
000089EFE445400000
000002FF9000000000
000107FF3000000000
04CFFEFC0000000000
2EA4AFFF7000007200
7F20CFFFFC6349F400
7F9AFF45EFFFFFE100
09EEA30017CEEB3000
ENDCHAR
STARTCHAR currency
ENCODING 164
SWIDTH 572 0
DWIDTH 14 0
BBX 14 16 1 0
BITMAP
00004A00000130
0000CF10002DF7
0000DF3101DFA0
0000BFEFFDFA00
0001CFD6AFD000
000CFE203FF200
008FF5004FF500
01EFC0007FF400
04FF6000CFE100
06FF2005FF8000
05FF101EFC1000
01FF73CFE10000
09FDFFEDF10000
4F702304F50000
6A000000C80000
00000000110000
ENDCHAR
STARTCHAR yen
ENCODING 165
SWIDTH 583 0
DWIDTH 14 0
BBX 16 18 1 0
BITMAP
09EC200000001AEB
7FFFD0000001DFFA
219FF600001DFF90
000DFC0000BFF800
0005FF1006FF9000
0000DF502EFB0000
00007F80AFE20000
00002FB4FF400000
00000EDCF9000000
00000BFFE1000000
00599DFFD9600000
00CEFFFFD9200000
00000EF800000000
04AABFFBA8000000
09EFFFFEC5000000
0000DF7000000000
0001FF2000000000
0002EA0000000000
ENDCHAR
STARTCHAR brokenbar
ENCODING 166
SWIDTH 292 0
DWIDTH 7 0
BBX 3 25 2 -4
BITMAP
0BA0
5FC0
5FC0
5FC0
5FC0
5FC0
5FC0
5FC0
5FC0
5FB0
3E40
0000
0000
0000
0BA0
5FC0
5FC0
5FC0
5FC0
5FC0
5FC0
5FC0
5FC0
5FB0
3E40
ENDCHAR
STARTCHAR section
ENCODING 167
SWIDTH 583 0
DWIDTH 14 0
BBX 15 26 0 -6
BITMAP
0000000000100000
00000002AEFE9100
0000003EFB57FB00
000000DFC000BF40
000004FF6000CF70
000007FF5007FF50
000006FF708FFD10
000003FFC08FD300
000000DFF4010000
00004CFFFC000000
0007FE6DFF500000
003FF504FFC00000
009FE000BFF40000
00BFE0005FF90000
00AFF3000EFC0000
006FFA000CFB0000
001FFF401EF60000
0008FFD6CF900000
0000DFFFB5000000
00003FFC00000000
18600AFF00000000
8F9005FF00000000
CF9005FC00000000
AFE33CF400000000
2CFFFD4000000000
0024200000000000
ENDCHAR
STARTCHAR dieresis
ENCODING 168
SWIDTH 412 0
DWIDTH 10 0
BBX 9 4 1 14
BITMAP
7ED303DE80
FFF709FFD0
CFF306FF80
1630005500
ENDCHAR
STARTCHAR copyright
ENCODING 169
SWIDTH 871 0
DWIDTH 21 0
BBX 19 18 1 0
BITMAP
000000049CEFDB600000
000003BFE9667BFD3000
00005FE60001004EF400
0005FD3018DFE503FE10
003FE202DFB5AF209F70
00CF601DFB006F404FC0
04FC009FE200DF401FE0
0AF601FF801BFD000FF0
0EF206FF306FF5001FE0
1FE008FE000740003FC0
2FD009FC000000008F80
1FE008FD00013000DF20
0EF202FF725D9007FA00
09F8004DFFFB103FD100
02FE2000341004EF3000
005FD30000007FE30000
0005EFB7569EFA100000
000017BEFEC830000000
ENDCHAR
STARTCHAR ordfeminine
ENCODING 170
SWIDTH 564 0
DWIDTH 14 0
BBX 12 12 2 6
BITMAP
000000100000
00004CFE5BF4
0008FE69FFF2
007FE201FFA0
03FF6005FF30
0BFC000BFB00
2FF6003FF500
5FF200BFE100
5FF006FFC000
2FF46F8FD230
07FFE51EFF60
002300014100
ENDCHAR
STARTCHAR guillemotleft
ENCODING 171
SWIDTH 662 0
DWIDTH 16 0
BBX 14 10 1 2
BITMAP
0000007A00007A
00004DF5004DF5
001AFE402AFE40
06EFC206EFC200
4FFA004FF90000
1DFB001DFB0000
02EFA002EFA000
003EF9003EF900
0003EF6003EF50
00003710003710
ENDCHAR
STARTCHAR logicalnot
ENCODING 172
SWIDTH 729 0
DWIDTH 18 0
BBX 15 9 1 1
BITMAP
0011111111111100
1DFFFFFFFFFFFF40
034444444444CF50
000000000000CF50
000000000000CF40
000000000000DF30
000000000000EF30
000000000000FE10
0000000000003100
ENDCHAR
STARTCHAR uni00AD
ENCODING 173
SWIDTH 833 0
DWIDTH 20 0
BBX 1 1 0 0
BITMAP
00
ENDCHAR
STARTCHAR registered
ENCODING 174
SWIDTH 742 0
DWIDTH 18 0
BBX 16 15 2 3
BITMAP
000004ADFEC71000
0001BFC8669FD300
002DD4033102DE20
01DD28EFFF803F90
09F32E931BF40BE0
2F9001D708F508F2
7F3007F34ED107F2
AF000CFEFB2009F1
BD002FBCC0000DD0
BE008F56F6004F80
8F31EB00DF61DE10
3FB16100263BF500
09F9100004DF7000
00AFE989DFE50000
0004AEFEB7100000
ENDCHAR
STARTCHAR macron
ENCODING 175
SWIDTH 392 0
DWIDTH 9 0
BBX 9 3 1 14
BITMAP
0011111100
1BFFFFFFE0
4FFFFFFE60
ENDCHAR
STARTCHAR degree
ENCODING 176
SWIDTH 405 0
DWIDTH 10 0
BBX 9 8 2 10
BITMAP
0019DFD500
02EFA7FF20
0BF900DF50
3FF200EF50
5FE006FE10
3FE23EF600
09FFFE7000
0025410000
ENDCHAR
STARTCHAR plusminus
ENCODING 177
SWIDTH 617 0
DWIDTH 15 0
BBX 13 16 1 0
BITMAP
000001D4000000
000005F6000000
000005F6000000
000005F6000000
000005F6000000
001116F6111100
3EFFFFFFFFFF60
044448F8444300
000005F6000000
000005F6000000
000005F6000000
000004D2000000
00000000000000
00000000000000
04555555555520
3FFFFFFFFFFE50
ENDCHAR
STARTCHAR twosuperior
ENCODING 178
SWIDTH 458 0
DWIDTH 11 0
BBX 11 13 1 5
BITMAP
00004BEEB300
0004FE78FE10
000DF600DF50
001FF401FF60
000EF908FF30
0003936FFA00
000007FFD100
00009FFC1000
001CFF800000
02DFD3000000
0CFD21257000
1EFCDFFF7000
021001320000
ENDCHAR
STARTCHAR threesuperior
ENCODING 179
SWIDTH 430 0
DWIDTH 10 0
BBX 11 13 1 5
BITMAP
00003BEEB300
0002EE79FE10
000AF501FF40
000BF704FF30
0004932DFC00
000018EFC200
0000DFFA0000
000047FF3000
07C400FF6000
2FF204FF3000
1EF23DF80000
04EFFD500000
000210000000
ENDCHAR
STARTCHAR acute
ENCODING 180
SWIDTH 322 0
DWIDTH 8 0
BBX 6 6 2 13
BITMAP
000680
001EF6
006FF4
01EFA0
1CF900
9C4000
ENDCHAR
STARTCHAR mu
ENCODING 181
SWIDTH 618 0
DWIDTH 15 0
BBX 16 18 -1 -6
BITMAP
000001CC10002DC1
00000AFE1000BFE1
00005FF60005FF70
0000DFD0000DFE10
0006FF70007FF800
000CFE1002EFF200
003FF9000AFFA000
009FF4006FFF5000
01EFF104F8FF2000
05FFF46E94FF5420
09FFFFFA02FFFF20
0EFAED60007ED500
2FF1000000000000
5FD0000000000000
8FB0000000000000
AF80000000000000
BF70000000000000
7E30000000000000
ENDCHAR
STARTCHAR paragraph
ENCODING 182
SWIDTH 739 0
DWIDTH 18 0
BBX 21 22 0 -2
BITMAP
0000000000000001111100
000000000159CEFFFFFE30
000000029EFFFE75FF8100
0000006FFFFFF305FF3000
000006FFFFFFB009FE0000
00001EFFFFFF600CFB0000
00005FFFFFFF201FF70000
00006FFFFFFE005FF20000
00004FFFFFFA009FD00000
00000AFFFFF700CF800000
0000008FFFF301FF300000
00000001EFE006FD000000
00000003FFA00AF8000000
00000007FF500EF3000000
0000000CFE104FD0000000
0001001FF900AF70000000
03CFA07FF201EF20000000
0DFE30CFA005FA00000000
4FF505FE100CF400000000
3FF43EF4003FB000000000
09FFFD4000BD2000000000
0024300000310000000000
ENDCHAR
STARTCHAR periodcentered
ENCODING 183
SWIDTH 353 0
DWIDTH 8 0
BBX 5 4 2 6
BITMAP
08FD40
1FFFA0
0DFF60
028500
ENDCHAR
STARTCHAR cedilla
ENCODING 184
SWIDTH 301 0
DWIDTH 7 0
BBX 5 6 1 -5
BITMAP
00C800
004F40
003F90
00AF90
2DFF40
1CE600
ENDCHAR
STARTCHAR onesuperior
ENCODING 185
SWIDTH 403 0
DWIDTH 10 0
BBX 7 13 3 5
BITMAP
0001CD30
002DFF90
05EFFF70
CFEAFF20
440AFC00
001EF700
006FE100
00CF9000
04FF2000
0BF80000
4FD10000
BE300000
63000000
ENDCHAR
STARTCHAR ordmasculine
ENCODING 186
SWIDTH 498 0
DWIDTH 12 0
BBX 10 12 2 6
BITMAP
0000001000
00018EFF91
001CFC5CF9
00CFC106FE
07FF3007FF
0EFA000AFD
4FF4001FF9
6FF1007FF3
6FE003FF80
2FF44DFA00
05EFFE7000
0013300000
ENDCHAR
STARTCHAR guillemotright
ENCODING 187
SWIDTH 665 0
DWIDTH 16 0
BBX 14 10 1 2
BITMAP
03EB1003EB1000
01DFB101DFB000
002EFB002EFB00
0003EFA003EFA0
00005FF6005FF6
0002DFE303DFE3
005EFA105EF910
09FD4009FC4000
7E70007E700000
42000042000000
ENDCHAR
STARTCHAR onequarter
ENCODING 188
SWIDTH 988 0
DWIDTH 24 0
BBX 20 20 2 0
BITMAP
00000000000001710000
0000000000001DF20000
00007E900000AFA00000
0019FFF20003FE100000
04DFFFE0000CF7000000
5FC6EFA0006FD0000000
0003FF5001EF50100000
0008FE1008FB03F90000
000DF8002EF305FF1000
005FF200AF900AFE0000
00BF9003FE101EF808C2
04FE200CF7007FF20CF8
0CF7005FD001EFA01FF5
4FA000DF4007FF305FF1
260007FB000CF900AFC0
00001EF20008FFFFFFFA
00009F900000588CF911
0003FE100000001EE100
000BF6000000009F5000
002E9000000000E60000
ENDCHAR
STARTCHAR onehalf
ENCODING 189
SWIDTH 988 0
DWIDTH 24 0
BBX 21 19 2 0
BITMAP
00000000000007E3000000
00005E9000005FD0000000
0006FFF20001EF50000000
008FFFE00009FA00000000
4DFDEFA0003FF200000000
3962FF5000BF8000000000
0006FE1005FD1000000000
000CF8001DF5006CFDA100
003FF2007FB009FD6AFD00
00AF9002EF302FF201FF30
03FE200AF9003FF303FF30
0BF6004FE1000AE50BFD00
4F9000CF60000000AFF400
250006FC0000001AFF6000
00001EF3000002DFD30000
00008FA000004EF8100000
0002FE100005FE41166000
000BF700002FFEFFFF7000
002E9000002EFFFFFB1000
ENDCHAR
STARTCHAR threequarters
ENCODING 190
SWIDTH 1007 0
DWIDTH 24 0
BBX 22 20 1 0
BITMAP
0000000000000001630000
000000000000000CF50000
0002AEEB4000007FC00000
001DE78FF20002EF300000
008F700EF6000AF9000000
00AF902FF5003FE1000000
003931CFD100CF70000000
00017EFD2005FD00A40000
000BFFB1000DF502FE0000
00046FF5007FB006FD0000
5C500EF801EF300CF80560
FF303FF509F9003FF20DF3
DF43DFA03FE100BF902FF1
3DFFD600BF7005FE107FB0
00210005FD000AF823DF80
0000000DF50004EFFFFFF2
0000007FB00000144CF620
000001EF300000002FB000
000009F900000000BE2000
00000EB100000003D30000
ENDCHAR
STARTCHAR questiondown
ENCODING 191
SWIDTH 516 0
DWIDTH 12 0
BBX 12 19 0 -5
BITMAP
00000001AE70
00000007FFF1
00000009FFF1
00000003CF80
000000000000
00000003C000
0000000CF200
000000BFD000
00001BFF5000
0004DFF80000
007FFF600000
08FFD3000000
4FFC10660000
BFD106FF4000
DF5004FF6000
DF2005FF2000
7F925EF80000
08FFFE700000
001330000000
ENDCHAR
STARTCHAR Agrave
ENCODING 192
SWIDTH 615 0
DWIDTH 15 0
BBX 18 24 -2 0
BITMAP
000000000000035000
0000000000003FE100
0000000000006FF600
0000000000001CFE20
000000000000017DB0
000000000000000000
000000000000039DF7
0000000000019FDFF6
00000000002CE55FF1
0000000002DD20CFA0
000000001CE204FF40
00000000AF500BFD00
00000006F9002FF700
0000002ED1008FF100
000000BFDCEEFFFFC0
00008EFFFFFFFFFE60
00028FF32228FF3000
00007F90000BFD0000
0001EF20000EFA0000
0009FA00001FF60000
003FF200003FF50000
02DF9000004FF73400
5DFC1000001FFFF700
AEA100000006EE8000
ENDCHAR
STARTCHAR Aacute
ENCODING 193
SWIDTH 615 0
DWIDTH 15 0
BBX 19 24 -2 0
BITMAP
00000000000000000410
00000000000000006FB0
0000000000000000DFC0
000000000000000AFE30
000000000000007D8100
00000000000000000000
000000000000039DF700
0000000000019FDFF600
00000000002CE55FF100
0000000002DD20CFA000
000000001CE204FF4000
00000000AF500BFD0000
00000006F9002FF70000
0000002ED1008FF10000
000000BFDCEEFFFFC000
00008EFFFFFFFFFE6000
00028FF32228FF300000
00007F90000BFD000000
0001EF20000EFA000000
0009FA00001FF6000000
003FF200003FF5000000
02DF9000004FF7340000
5DFC1000001FFFF70000
AEA100000006EE800000
ENDCHAR
STARTCHAR Acircumflex
ENCODING 194
SWIDTH 615 0
DWIDTH 15 0
BBX 20 24 -2 0
BITMAP
00000000000000002000
0000000000000008F700
00000000000001BFFE00
0000000000017EE6EF80
000000000007EA205EE1
00000000000000000000
000000000000039DF700
0000000000019FDFF600
00000000002CE55FF100
0000000002DD20CFA000
000000001CE204FF4000
00000000AF500BFD0000
00000006F9002FF70000
0000002ED1008FF10000
000000BFDCEEFFFFC000
00008EFFFFFFFFFE6000
00028FF32228FF300000
00007F90000BFD000000
0001EF20000EFA000000
0009FA00001FF6000000
003FF200003FF5000000
02DF9000004FF7340000
5DFC1000001FFFF70000
AEA100000006EE800000
ENDCHAR
STARTCHAR Atilde
ENCODING 195
SWIDTH 615 0
DWIDTH 15 0
BBX 21 24 -2 0
BITMAP
0000000000000020000100
0000000000004DFC100D20
000000000003FFFFB19E00
00000000000BB19FFFF400
00000000000C2009EC4000
0000000000000000000000
000000000000039DF70000
0000000000019FDFF60000
00000000002CE55FF10000
0000000002DD20CFA00000
000000001CE204FF400000
00000000AF500BFD000000
00000006F9002FF7000000
0000002ED1008FF1000000
000000BFDCEEFFFFC00000
00008EFFFFFFFFFE600000
00028FF32228FF30000000
00007F90000BFD00000000
0001EF20000EFA00000000
0009FA00001FF600000000
003FF200003FF500000000
02DF9000004FF734000000
5DFC1000001FFFF7000000
AEA100000006EE80000000
ENDCHAR
STARTCHAR Adieresis
ENCODING 196
SWIDTH 615 0
DWIDTH 15 0
BBX 21 23 -2 0
BITMAP
000000000005EE501CFA00
00000000000DFFA07FFF10
00000000000AFF504FFB00
0000000000016400046000
0000000000000000000000
000000000000039DF70000
0000000000019FDFF60000
00000000002CE55FF10000
0000000002DD20CFA00000
000000001CE204FF400000
00000000AF500BFD000000
00000006F9002FF7000000
0000002ED1008FF1000000
000000BFDCEEFFFFC00000
00008EFFFFFFFFFE600000
00028FF32228FF30000000
00007F90000BFD00000000
0001EF20000EFA00000000
0009FA00001FF600000000
003FF200003FF500000000
02DF9000004FF734000000
5DFC1000001FFFF7000000
AEA100000006EE80000000
ENDCHAR
STARTCHAR Aring
ENCODING 197
SWIDTH 615 0
DWIDTH 15 0
BBX 19 24 -2 0
BITMAP
00000000000000001000
000000000000019EFD30
0000000000000BF87FC0
0000000000004FC01FE0
0000000000007F804FC0
0000000000006FB1CF50
0000000000001FFFFE00
0000000000019FFFF600
00000000002CFC8FF100
0000000002DF809FA000
000000001CF602FF4000
00000000AF800AFD0000
00000006FB002FF70000
0000002EE1008FF10000
000000BFDCEEFFFFC000
00008EFFFFFFFFFE6000
00028FF32228FF300000
00007F90000BFD000000
0001EF20000EFA000000
0009FA00001FF6000000
003FF200003FF5000000
02DF9000004FF7340000
5DFC1000001FFFF70000
AEA100000006EE800000
ENDCHAR
STARTCHAR AE
ENCODING 198
SWIDTH 878 0
DWIDTH 21 0
BBX 25 18 -2 0
BITMAP
00000000000005CEE98DEED800
000000000001AFFFFFFE967F80
00000000001CFE68FFC2000ED0
0000000000AFD13FFC10007FD0
0000000008FD10CFF20007FF80
000000004FF303FF9000BFFD10
00000001DF6005FF4001EFD200
00000009FB0004FF3000240000
0000004FE21223EF7020000000
000002DFEDFFFFFFFEFC000000
00009FFFFFFFFFFFFFA6000000
00009FF300000AFFC200000000
0000CF9000006FFB0000000000
0007FE100000DFE10000300000
002EF6000002FF900005F40000
00BFC0000001FFA0007FF20000
3BFE200000008FFA8DFE500000
8EC30000000006CEEC82000000
ENDCHAR
STARTCHAR Ccedilla
ENCODING 199
SWIDTH 533 0
DWIDTH 13 0
BBX 14 23 1 -5
BITMAP
00000005BEFC30
000002BFE86CE1
00003EFC2006F7
0002EFC10009F9
001DFE20003FF8
008FF50002EFF2
02FFC0003EFF90
09FF50003FFA00
0EFD0000023000
4FF80000000000
7FF40000000000
AFF20000000000
BFF00000000000
BFF10000000000
9FF30000040000
4FF70002CE0000
0AFF76AFF90000
007FFED9400000
0008E100000000
0007F500000000
001DF500000000
05EFE100000000
03ED4000000000
ENDCHAR
STARTCHAR Egrave
ENCODING 200
SWIDTH 509 0
DWIDTH 12 0
BBX 13 24 1 0
BITMAP
00000001600000
0000000DF50000
0000001FFB0000
00000008FF6000
000000005CE100
00000000000000
0000017CEFD910
00003DFFA67FA0
0004FFD3000DF0
002EFD10005FE0
009FF40006FF90
01FFB000AFFE20
03FF6000DFE300
02FF5000141000
00CF9021000000
003DFFFD100000
006EFFC7000000
08FFE500000000
5FFD2000000000
CFF30000100000
FFC00002D50000
EFB0003DF40000
6FF86AFF700000
05BEED93000000
ENDCHAR
STARTCHAR Eacute
ENCODING 201
SWIDTH 509 0
DWIDTH 12 0
BBX 14 24 1 0
BITMAP
00000000000320
00000000001EF2
00000000008FF3
0000000005FF70
000000002EB300
00000000000000
0000017CEFD910
00003DFFA67FA0
0004FFD3000DF0
002EFD10005FE0
009FF40006FF90
01FFB000AFFE20
03FF6000DFE300
02FF5000141000
00CF9021000000
003DFFFD100000
006EFFC7000000
08FFE500000000
5FFD2000000000
CFF30000100000
FFC00002D50000
EFB0003DF40000
6FF86AFF700000
05BEED93000000
ENDCHAR
STARTCHAR Ecircumflex
ENCODING 202
SWIDTH 509 0
DWIDTH 12 0
BBX 14 24 1 0
BITMAP
00000000002000
0000000004EC00
000000007FFF40
0000005CFABFD0
000002EC502CF5
00000000000000
0000017CEFD910
00003DFFA67FA0
0004FFD3000DF0
002EFD10005FE0
009FF40006FF90
01FFB000AFFE20
03FF6000DFE300
02FF5000141000
00CF9021000000
003DFFFD100000
006EFFC7000000
08FFE500000000
5FFD2000000000
CFF30000100000
FFC00002D50000
EFB0003DF40000
6FF86AFF700000
05BEED93000000
ENDCHAR
STARTCHAR Edieresis
ENCODING 203
SWIDTH 509 0
DWIDTH 12 0
BBX 15 23 1 0
BITMAP
000002CE9008ED20
000008FFF02FFF60
000004FFA00DFE20
0000004600026200
0000000000000000
0000017CEFD91000
00003DFFA67FA000
0004FFD3000DF000
002EFD10005FE000
009FF40006FF9000
01FFB000AFFE2000
03FF6000DFE30000
02FF500014100000
00CF902100000000
003DFFFD10000000
006EFFC700000000
08FFE50000000000
5FFD200000000000
CFF3000010000000
FFC00002D5000000
EFB0003DF4000000
6FF86AFF70000000
05BEED9300000000
ENDCHAR
STARTCHAR Igrave
ENCODING 204
SWIDTH 327 0
DWIDTH 8 0
BBX 10 24 -1 0
BITMAP
0000003500
000002FF10
000004FF70
000000BFF3
00000007DC
0000000000
0002AEFD60
0003EC9FF3
0000105FF4
0000008FF3
000000BFF0
000000EFC0
000003FF80
000008FF30
00000CFE00
00002FF900
00007FF300
0000DFC000
0004FF6000
000BFD1000
004FF50000
01DFB00000
0BFD100000
2EB1000000
ENDCHAR
STARTCHAR Iacute
ENCODING 205
SWIDTH 327 0
DWIDTH 8 0
BBX 12 24 -1 0
BITMAP
000000000041
0000000004FD
000000000BFE
000000008FE4
00000005E920
000000000000
0002AEFD6000
0003EC9FF300
0000105FF400
0000008FF300
000000BFF000
000000EFC000
000003FF8000
000008FF3000
00000CFE0000
00002FF90000
00007FF30000
0000DFC00000
0004FF600000
000BFD100000
004FF5000000
01DFB0000000
0BFD10000000
2EB100000000
ENDCHAR
STARTCHAR Icircumflex
ENCODING 206
SWIDTH 327 0
DWIDTH 8 0
BBX 13 24 -1 0
BITMAP
00000000020000
000000007F9000
0000001AFFE100
000017EF7DF900
00005EA304DE20
00000000000000
0002AEFD600000
0003EC9FF30000
0000105FF40000
0000008FF30000
000000BFF00000
000000EFC00000
000003FF800000
000008FF300000
00000CFE000000
00002FF9000000
00007FF3000000
0000DFC0000000
0004FF60000000
000BFD10000000
004FF500000000
01DFB000000000
0BFD1000000000
2EB10000000000
ENDCHAR
STARTCHAR Idieresis
ENCODING 207
SWIDTH 327 0
DWIDTH 8 0
BBX 14 23 -1 0
BITMAP
00004DE601BFB0
0000BFFB05FFF2
00008FF602FFC0
00000640003610
00000000000000
0002AEFD600000
0003EC9FF30000
0000105FF40000
0000008FF30000
000000BFF00000
000000EFC00000
000003FF800000
000008FF300000
00000CFE000000
00002FF9000000
00007FF3000000
0000DFC0000000
0004FF60000000
000BFD10000000
004FF500000000
01DFB000000000
0BFD1000000000
2EB10000000000
ENDCHAR
STARTCHAR Eth
ENCODING 208
SWIDTH 630 0
DWIDTH 15 0
BBX 16 18 0 0
BITMAP
00059BEFFDB61000
009FFFB756AFE500
004EC2000005FF50
0000059700009FD0
00002FFD00005FF3
0000AFF500003FF5
0002FFC000004FF5
0BFFFFFFFA007FF3
4FFFFFFFE400BFE0
006FF6000002FFA0
00BFE100000AFF30
02FF9000004FFA00
06FF400002EFD100
0AFE00002DFE3000
0DFB0002DFE40000
1FF8006EFD300000
0CFA7CFF81000000
019EEC7200000000
ENDCHAR
STARTCHAR Ntilde
ENCODING 209
SWIDTH 708 0
DWIDTH 17 0
BBX 20 23 0 0
BITMAP
000000000003BEA100C2
00000000002EFFFA18E1
0000000000BC3AFFFF50
0000000000C2009EC400
00000000000000000000
00000005DE30001CE800
0000006FFF30002EFF50
000004FFFF000007FF80
00001DFBFD000005FF80
00008F99FD000006FF40
0001EE1AFD000008FE00
0008F80AFE00000DF800
001EF209FF00003FF200
006FB008FF20009F8000
00CF5007FF5001EE1000
02FF1004FF7008F70000
07FB0001FFB01ED00000
0CF70000DFE06F600000
1FF300008FF4DD000000
4FE000003FFDF5000000
7FB000000CFFE0000000
8F80000003FF90000000
3E500000005E60000000
ENDCHAR
STARTCHAR Ograve
ENCODING 210
SWIDTH 655 0
DWIDTH 16 0
BBX 16 24 1 0
BITMAP
0000000001610000
000000000BF80000
000000000DFD0000
0000000005FF9000
00000000003BE400
0000000000000000
000000039DFDA200
000001AFF969FE20
00001CFE4000AF90
0001CFF300007FE0
000AFF6000006FF1
004FFA0000007FF1
00DFF2000000AFF0
05FF90000000EFC0
0BFF20000004FF90
1FFC00000009FF40
4FF70000002FFD00
7FF30000009FF500
8FF0000002FFB000
8FE000000CFE2000
5FE000009FF50000
1EF40009FF600000
06FE77DFD4000000
004BEEC710000000
ENDCHAR
STARTCHAR Oacute
ENCODING 211
SWIDTH 655 0
DWIDTH 16 0
BBX 16 24 1 0
BITMAP
0000000000000230
0000000000000DF4
0000000000005FF5
000000000003EF90
00000000000DC500
0000000000000000
000000039DFDA200
000001AFF969FE20
00001CFE4000AF90
0001CFF300007FE0
000AFF6000006FF1
004FFA0000007FF1
00DFF2000000AFF0
05FF90000000EFC0
0BFF20000004FF90
1FFC00000009FF40
4FF70000002FFD00
7FF30000009FF500
8FF0000002FFB000
8FE000000CFE2000
5FE000009FF50000
1EF40009FF600000
06FE77DFD4000000
004BEEC710000000
ENDCHAR
STARTCHAR Ocircumflex
ENCODING 212
SWIDTH 655 0
DWIDTH 16 0
BBX 16 24 1 0
BITMAP
0000000000001100
000000000002DE10
00000000005EFF70
000000004BFB9FE2
00000001DD601AF7
0000000000000000
000000039DFDA200
000001AFF969FE20
00001CFE4000AF90
0001CFF300007FE0
000AFF6000006FF1
004FFA0000007FF1
00DFF2000000AFF0
05FF90000000EFC0
0BFF20000004FF90
1FFC00000009FF40
4FF70000002FFD00
7FF30000009FF500
8FF0000002FFB000
8FE000000CFE2000
5FE000009FF50000
1EF40009FF600000
06FE77DFD4000000
004BEEC710000000
ENDCHAR
STARTCHAR Otilde
ENCODING 213
SWIDTH 655 0
DWIDTH 16 0
BBX 17 24 1 0
BITMAP
000000000011000010
0000000019FF600690
00000000AFFFF43E70
00000004F52EFFFC00
000000059003DE9100
000000000000000000
000000039DFDA20000
000001AFF969FE2000
00001CFE4000AF9000
0001CFF300007FE000
000AFF6000006FF100
004FFA0000007FF100
00DFF2000000AFF000
05FF90000000EFC000
0BFF20000004FF9000
1FFC00000009FF4000
4FF70000002FFD0000
7FF30000009FF50000
8FF0000002FFB00000
8FE000000CFE200000
5FE000009FF5000000
1EF40009FF60000000
06FE77DFD400000000
004BEEC71000000000
ENDCHAR
STARTCHAR Odieresis
ENCODING 214
SWIDTH 655 0
DWIDTH 16 0
BBX 17 23 1 0
BITMAP
00000001BFB006ED40
00000005FFF20EFF80
00000002FFC00BFF40
000000003610016300
000000000000000000
000000039DFDA20000
000001AFF969FE2000
00001CFE4000AF9000
0001CFF300007FE000
000AFF6000006FF100
004FFA0000007FF100
00DFF2000000AFF000
05FF90000000EFC000
0BFF20000004FF9000
1FFC00000009FF4000
4FF70000002FFD0000
7FF30000009FF50000
8FF0000002FFB00000
8FE000000CFE200000
5FE000009FF5000000
1EF40009FF60000000
06FE77DFD400000000
004BEEC71000000000
ENDCHAR
STARTCHAR multiply
ENCODING 215
SWIDTH 573 0
DWIDTH 14 0
BBX 11 9 2 3
BITMAP
5E6000007E50
1CF60008FB10
01CF609FA000
001CFBFA0000
0002EFB00000
001BFEF60000
01CF71CF6000
1CF6001CF600
7E500001BE10
ENDCHAR
STARTCHAR Oslash
ENCODING 216
SWIDTH 655 0
DWIDTH 16 0
BBX 16 22 2 -2
BITMAP
0000000000003CE4
000000000001EFA0
00000005AEFEFB00
000002CFE89FFD10
00003EFC20CFEF70
0003EFD106F7BFB0
001DFF301EC0AFC0
008FF7008F30BFC0
02FFD002F800DFB0
08FF600BD102FF80
0EFD004F4007FF50
4FF800DA000CFE00
7FF307E1004FF900
AFE01E7000CFF200
BFC09D0005FF8000
CFA4F5001EFD0000
AFCDB001CFE20000
5FFF301BFE300000
0CFE67EFB2000000
1DEDFEB500000000
7F60000000000000
9B00000000000000
ENDCHAR
STARTCHAR Ugrave
ENCODING 217
SWIDTH 624 0
DWIDTH 15 0
BBX 17 24 0 0
BITMAP
000000000260000000
000000002EF2000000
000000003FF8000000
000000000BFF400000
00000000006CD00000
000000000000000000
00004DFA0000009E50
00003EFF100003FF70
00000CFD00000BFE10
00001FF900003FF900
00007FF30000BFF300
0000DFC00004FFC000
0005FF50000CFF6000
000CFD00005FFF1000
003FF60000DFFB0000
00AFE10007FFF60000
01FF80001EFFF10000
07FF1000AECFB00000
0DFA0005F6EF700000
3FF5001EA2FF400000
6FF201CD15FF200000
8FF53CE206FF533000
5FFFFD2003FFFF6000
08EE9100008EE70000
ENDCHAR
STARTCHAR Uacute
ENCODING 218
SWIDTH 624 0
DWIDTH 15 0
BBX 17 24 0 0
BITMAP
000000000000041000
0000000000003FD000
000000000000BFE100
000000000007FE5000
00000000004EA20000
000000000000000000
00004DFA0000009E50
00003EFF100003FF70
00000CFD00000BFE10
00001FF900003FF900
00007FF30000BFF300
0000DFC00004FFC000
0005FF50000CFF6000
000CFD00005FFF1000
003FF60000DFFB0000
00AFE10007FFF60000
01FF80001EFFF10000
07FF1000AECFB00000
0DFA0005F6EF700000
3FF5001EA2FF400000
6FF201CD15FF200000
8FF53CE206FF533000
5FFFFD2003FFFF6000
08EE9100008EE70000
ENDCHAR
STARTCHAR Ucircumflex
ENCODING 219
SWIDTH 624 0
DWIDTH 15 0
BBX 17 24 0 0
BITMAP
000000000000200000
000000000006FA0000
00000000019FFF2000
000000016DF7DFA000
00000005EB303DE200
000000000000000000
00004DFA0000009E50
00003EFF100003FF70
00000CFD00000BFE10
00001FF900003FF900
00007FF30000BFF300
0000DFC00004FFC000
0005FF50000CFF6000
000CFD00005FFF1000
003FF60000DFFB0000
00AFE10007FFF60000
01FF80001EFFF10000
07FF1000AECFB00000
0DFA0005F6EF700000
3FF5001EA2FF400000
6FF201CD15FF200000
8FF53CE206FF533000
5FFFFD2003FFFF6000
08EE9100008EE70000
ENDCHAR
STARTCHAR Udieresis
ENCODING 220
SWIDTH 624 0
DWIDTH 15 0
BBX 17 23 0 0
BITMAP
00000003DE701AFB10
0000000AFFC05FFF30
00000007FF702FFD00
000000006500036100
000000000000000000
00004DFA0000009E50
00003EFF100003FF70
00000CFD00000BFE10
00001FF900003FF900
00007FF30000BFF300
0000DFC00004FFC000
0005FF50000CFF6000
000CFD00005FFF1000
003FF60000DFFB0000
00AFE10007FFF60000
01FF80001EFFF10000
07FF1000AECFB00000
0DFA0005F6EF700000
3FF5001EA2FF400000
6FF201CD15FF200000
8FF53CE206FF533000
5FFFFD2003FFFF6000
08EE9100008EE70000
ENDCHAR
STARTCHAR Yacute
ENCODING 221
SWIDTH 580 0
DWIDTH 14 0
BBX 17 30 0 -6
BITMAP
0000000000002C5000
0000000000009FE000
000000000004FF9000
00000000003EF70000
000000000046100000
000000000000000000
00005DF9000000AE40
00004FFF000004FF60
00000DFC00000CFD00
00002FF800005FF700
00008FF20000CFF100
0001EFB00005FFA000
0006FF40000DFF4000
000DFC00006FFE0000
004FF50001EFF80000
00BFD00008FFF30000
02FF60002FFFC00000
08FE1000BEEF700000
0EF90006F9FF100000
4FF4002EA9FA000000
7FF101DC2FF4000000
9FF44DD29FC0000000
6FFFFD22FF40000000
09EE810AFB00000000
0000005FE200000000
000002EF6000000000
00001DF90000000000
0002DFA00000000000
017EF9000000000000
09EB40000000000000
ENDCHAR
STARTCHAR Thorn
ENCODING 222
SWIDTH 527 0
DWIDTH 13 0
BBX 15 18 -2 0
BITMAP
00019DFEA1000000
0002ED8FF5000000
0000003FF6000000
0000006FF5000000
0000009FF3000000
000000DFFFFC7100
000002FFC548FD20
000006FF5000BFB0
00000AFF10009FD0
00001EFB0000DFC0
00005FF50009FF60
0000BFE005CFFA00
0002FFECFFFE6000
0009FEBBA8400000
002FF80000000000
00BFD10000000000
09FE200000000000
1DC2000000000000
ENDCHAR
STARTCHAR germandbls
ENCODING 223
SWIDTH 520 0
DWIDTH 13 0
BBX 15 24 -2 -3
BITMAP
0000000000010000
000000002AFFE700
00000002DFA5BF60
0000000BFA004FC0
0000005FE2005FD0
000000CF90009FC0
000003FF3002EF80
000009FD000BFE10
00000DF9008FE300
00003FF504FE4000
00007FF10DF50000
0000BFC04FD00000
0000EF907FE00000
0003FF505FF60000
0007FF101EFE2000
000BFD0007FFB000
000EF90000BFF400
003FF52B401EF800
008FF19F900AF700
00CFB07FFA8FC100
02FF6008DED71000
07FF100000000000
0EFA000000000000
2EC2000000000000
ENDCHAR
STARTCHAR agrave
ENCODING 224
SWIDTH 541 0
DWIDTH 13 0
BBX 13 20 0 -1
BITMAP
00000009E60000
0000003FF60000
0000002FF60000
0000000CF70000
00000004FA0000
000000005D0000
00000000000000
000005BFD56EA0
00009FE78FFFB0
000BFD200DFF40
007FF3001FFC00
02FF80005FF500
09FF2000BFE000
0EFC0003FF8000
2FF8000BFF3000
3FF7005FFE0000
1FF602EBFE0000
0AFC6E95FFCE20
01BFD601EFF900
00000000164000
ENDCHAR
STARTCHAR aacute
ENCODING 225
SWIDTH 541 0
DWIDTH 13 0
BBX 13 20 0 -1
BITMAP
00000000049200
000000000AFA00
000000002FF900
00000000BFD100
00000008FC2000
0000005D700000
00000000000000
000005BFD56EA0
00009FE78FFFB0
000BFD200DFF40
007FF3001FFC00
02FF80005FF500
09FF2000BFE000
0EFC0003FF8000
2FF8000BFF3000
3FF7005FFE0000
1FF602EBFE0000
0AFC6E95FFCE20
01BFD601EFF900
00000000164000
ENDCHAR
STARTCHAR acircumflex
ENCODING 226
SWIDTH 541 0
DWIDTH 13 0
BBX 13 20 0 -1
BITMAP
00000000017200
000000001BFB00
00000003DFFE00
0000007FE4FF30
00003DFB20AFA0
00001740001750
00000000000000
000005BFD56EA0
00009FE78FFFB0
000BFD200DFF40
007FF3001FFC00
02FF80005FF500
09FF2000BFE000
0EFC0003FF8000
2FF8000BFF3000
3FF7005FFE0000
1FF602EBFE0000
0AFC6E95FFCE20
01BFD601EFF900
00000000164000
ENDCHAR
STARTCHAR atilde
ENCODING 227
SWIDTH 541 0
DWIDTH 13 0
BBX 14 19 0 -1
BITMAP
0000006DE6003B
000006FFFF62CA
00001F94DFFFD2
00003B002CEA20
00000000000000
00000000000000
000005BFD56EA0
00009FE78FFFB0
000BFD200DFF40
007FF3001FFC00
02FF80005FF500
09FF2000BFE000
0EFC0003FF8000
2FF8000BFF3000
3FF7005FFE0000
1FF602EBFE0000
0AFC6E95FFCE20
01BFD601EFF900
00000000164000
ENDCHAR
STARTCHAR adieresis
ENCODING 228
SWIDTH 541 0
DWIDTH 13 0
BBX 14 19 0 -1
BITMAP
000009EC105EE5
00003FFF50CFFA
00001EFE109FF5
00000262000640
00000000000000
00000000000000
000005BFD56EA0
00009FE78FFFB0
000BFD200DFF40
007FF3001FFC00
02FF80005FF500
09FF2000BFE000
0EFC0003FF8000
2FF8000BFF3000
3FF7005FFE0000
1FF602EBFE0000
0AFC6E95FFCE20
01BFD601EFF900
00000000164000
ENDCHAR
STARTCHAR aring
ENCODING 229
SWIDTH 541 0
DWIDTH 13 0
BBX 13 20 0 -1
BITMAP
00000004BEE900
0000005FD6DF60
000000DF309F70
000000EF44EE20
0000006FFFD400
00000001330000
00000000000000
000005BFD56EA0
00009FE78FFFB0
000BFD200DFF40
007FF3001FFC00
02FF80005FF500
09FF2000BFE000
0EFC0003FF8000
2FF8000BFF3000
3FF7005FFE0000
1FF602EBFE0000
0AFC6E95FFCE20
01BFD601EFF900
00000000164000
ENDCHAR
STARTCHAR ae
ENCODING 230
SWIDTH 769 0
DWIDTH 18 0
BBX 19 12 0 0
BITMAP
000005BFD56EAAEEB200
00009FE79FFFFB6DFB00
000BFD200DFFB009FF00
007FE2001EFE100CFF10
02FF80005FF8006FFB00
09FF1000BFF205FFE300
0EFB0003FFD5BFFC3000
2FF8000BFFFED9500000
3FF6005FFFB000000000
1FF702E9CFD000088000
0AFD6EA04FFA68EF6000
01BFD70005CEFDA40000
ENDCHAR
STARTCHAR ccedilla
ENCODING 231
SWIDTH 465 0
DWIDTH 11 0
BBX 11 18 0 -6
BITMAP
000005BEEA10
0001BFD69FA0
001DFC104FE0
00AFF300AFD0
04FF8006FF80
0AFF2007FC10
0FFB00001000
2FF800000000
3FF600001000
1FF90004E200
0AFF86AFA000
01AFFEC60000
0005F4000000
0002F9000000
0006FA000000
017FF7000000
02FFD1000000
004610000000
ENDCHAR
STARTCHAR egrave
ENCODING 232
SWIDTH 471 0
DWIDTH 11 0
BBX 10 19 1 0
BITMAP
000008E700
00002FF800
00001FF700
00000BF800
000003FB00
0000005D10
0000000000
00004BEEA1
0009FD6BF9
00AFD106FD
07FF4009FE
1FFB003FF9
8FF504EFD1
CFF7BFFA10
EFECB72000
FF90000000
CFC0001B70
5FF969EF40
05CFED9300
ENDCHAR
STARTCHAR eacute
ENCODING 233
SWIDTH 471 0
DWIDTH 11 0
BBX 10 19 1 0
BITMAP
0000000392
00000009FB
0000001EFA
000000AFE2
000007FD20
00004E7100
0000000000
00004BEEA1
0009FD6BF9
00AFD106FD
07FF4009FE
1FFB003FF9
8FF504EFD1
CFF7BFFA10
EFECB72000
FF90000000
CFC0001B70
5FF969EF40
05CFED9300
ENDCHAR
STARTCHAR ecircumflex
ENCODING 234
SWIDTH 471 0
DWIDTH 11 0
BBX 11 19 1 0
BITMAP
000000007200
0000001BFC00
000002CFFF10
00006EE5EF50
003DFB209FB0
001740000650
000000000000
00004BEEA100
0009FD6BF900
00AFD106FD00
07FF4009FE00
1FFB003FF900
8FF504EFD100
CFF7BFFA1000
EFECB7200000
FF9000000000
CFC0001B7000
5FF969EF4000
05CFED930000
ENDCHAR
STARTCHAR edieresis
ENCODING 235
SWIDTH 471 0
DWIDTH 11 0
BBX 12 18 1 0
BITMAP
0009ED204DE6
002FFF60BFFC
000DFE208FF6
000262000640
000000000000
000000000000
00004BEEB200
0009FC6BFA00
00AFB006FE00
07FE200CFC00
1FF7009FF400
8FF36DFD4000
CFFEDA500000
EF9000000000
FFA000033000
CFD0003E8000
5FFA6AFE2000
05CFEC810000
ENDCHAR
STARTCHAR igrave
ENCODING 236
SWIDTH 286 0
DWIDTH 7 0
BBX 7 19 0 0
BITMAP
0002CE10
0009FF00
0008FF00
0003FF10
0000AF40
00000A80
00000000
003DFC00
002EFF00
000CFB00
001FF600
006FE000
00DF7000
04FE1000
0AF90000
1FF40000
4FF74000
4FFFE000
0AFD4000
ENDCHAR
STARTCHAR iacute
ENCODING 237
SWIDTH 286 0
DWIDTH 7 0
BBX 9 19 0 0
BITMAP
0000008700
000002FF40
000008FF30
00002FF800
0001DF8000
000BB40000
0000000000
003DFC0000
002EFF0000
000CFB0000
001FF60000
006FE00000
00DF700000
04FE100000
0AF9000000
1FF4000000
4FF7400000
4FFFE00000
0AFD400000
ENDCHAR
STARTCHAR icircumflex
ENCODING 238
SWIDTH 286 0
DWIDTH 7 0
BBX 10 19 0 0
BITMAP
0000003600
000004EF50
00007FFF80
002BFB7FC0
08FE701EF4
0371000372
0000000000
003DFC0000
002EFF0000
000CFB0000
001FF60000
006FE00000
00DF700000
04FE100000
0AF9000000
1FF4000000
4FF7400000
4FFFE00000
0AFD400000
ENDCHAR
STARTCHAR idieresis
ENCODING 239
SWIDTH 286 0
DWIDTH 7 0
BBX 11 18 0 0
BITMAP
03DE8009EC10
09FFD03FFF40
06FF801EFD10
005500026100
000000000000
000000000000
003DFC000000
002EFF000000
000CFB000000
001FF6000000
006FE0000000
00DF70000000
04FE10000000
0AF900000000
1FF400000000
4FF740000000
4FFFE0000000
0AFD40000000
ENDCHAR
STARTCHAR eth
ENCODING 240
SWIDTH 524 0
DWIDTH 13 0
BBX 15 20 0 0
BITMAP
0000000006300000
0000000009E30000
0000000001EC5720
0000000004DFFFD0
000000009FFFB640
0000000AE88F8000
00000006107FA000
00000000008FA000
000004BEE7AF9000
00009FD68FFF6000
0009FD100BFF3000
006FF3000BFE0000
01EF90001FFA0000
08FF20007FF40000
0DFD0000DFC00000
1FF90006FF400000
1FF8001EF9000000
0EF900BFC1000000
08FE6BFB10000000
009EEB6000000000
ENDCHAR
STARTCHAR ntilde
ENCODING 241
SWIDTH 561 0
DWIDTH 13 0
BBX 14 18 0 0
BITMAP
0000006DE6003B
000006FFFF62CA
00001F94DFFFD2
00003B002CEA20
00000000000000
00000000000000
003DE7004CEA00
002EFD05FFFF60
000CFB4FA5FF70
001FF8EA05FF40
005FECB00CFD00
00BFFD104FF600
02FFE300BFD000
08FF5001FF7000
0EFB0006FF2000
6FF40008FE2410
DFC00006FFFE10
8E400000AEC400
ENDCHAR
STARTCHAR ograve
ENCODING 242
SWIDTH 514 0
DWIDTH 12 0
BBX 12 19 0 0
BITMAP
00000006E900
0000000FFA00
0000000DF900
00000009FA00
00000002ED00
000000003D30
000000000000
000006CEEA20
0001BFE7AFC0
001CFE203FF5
009FF4002FF7
03FFA0004FF7
09FF30008FF4
0EFD0000DFE0
1FF90005FF90
2FF7001DFE10
0EF700AFF400
07FD6BFE4000
007DFD910000
ENDCHAR
STARTCHAR oacute
ENCODING 243
SWIDTH 514 0
DWIDTH 12 0
BBX 12 19 0 0
BITMAP
0000000002A4
0000000007FD
000000000DFC
000000008FE3
00000005FE30
0000002E9100
000000000000
000006CEEA20
0001BFE7AFC0
001CFE203FF5
009FF4002FF7
03FFA0004FF7
09FF30008FF4
0EFD0000DFE0
1FF90005FF90
2FF7001DFE10
0EF700AFF400
07FD6BFE4000
007DFD910000
ENDCHAR
STARTCHAR ocircumflex
ENCODING 244
SWIDTH 514 0
DWIDTH 12 0
BBX 13 19 0 0
BITMAP
00000000006300
0000000009FE00
00000001BFFF20
0000005EF6CF60
00001CFC306FD0
00000650000660
00000000000000
000006CEEA2000
0001BFE7AFC000
001CFE203FF500
009FF4002FF700
03FFA0004FF700
09FF30008FF400
0EFD0000DFE000
1FF90005FF9000
2FF7001DFE1000
0EF700AFF40000
07FD6BFE400000
007DFD91000000
ENDCHAR
STARTCHAR otilde
ENCODING 245
SWIDTH 514 0
DWIDTH 12 0
BBX 14 18 0 0
BITMAP
0000004CE9001C
000003FFFF91AD
00000DB3BFFFF4
00000D101AEB30
00000000000000
00000000000000
000006CEEA2000
0001BFE7AFC000
001CFE203FF500
009FF4002FF700
03FFA0004FF700
09FF30008FF400
0EFD0000DFE000
1FF90005FF9000
2FF7001DFE1000
0EF700AFF40000
07FD6BFE400000
007DFD91000000
ENDCHAR
STARTCHAR odieresis
ENCODING 246
SWIDTH 514 0
DWIDTH 12 0
BBX 14 18 0 0
BITMAP
000007ED303DE8
00000FFF809FFD
00000CFF306FF8
00000163000550
00000000000000
00000000000000
000006CEEA2000
0001BFE7AFC000
001CFE203FF500
009FF4002FF700
03FFA0004FF700
09FF30008FF400
0EFD0000DFE000
1FF90005FF9000
2FF7001DFE1000
0EF700AFF40000
07FD6BFE400000
007DFD91000000
ENDCHAR
STARTCHAR divide
ENCODING 247
SWIDTH 617 0
DWIDTH 15 0
BBX 13 12 1 3
BITMAP
00000176000000
000009FF700000
000009FF500000
00000175000000
00000000000000
02555555555530
1EFFFFFFFFFF70
00000000000000
00000000000000
000008FB100000
00000EFF300000
000008FA000000
ENDCHAR
STARTCHAR oslash
ENCODING 248
SWIDTH 514 0
DWIDTH 12 0
BBX 13 16 0 -2
BITMAP
0000000001AE70
000000000AFE20
000006CEEFF400
0001BFE7DFD000
001CFE24EFF400
009FF40C6FF700
03FFA06B2FF600
09FF21D26FF500
0EFC0970BFE100
1FF83D03FF9000
1FF6C50CFE2000
0EFBB09FF50000
08FF8BFE500000
02FFFE92000000
08F50000000000
09B00000000000
ENDCHAR
STARTCHAR ugrave
ENCODING 249
SWIDTH 553 0
DWIDTH 13 0
BBX 14 19 0 0
BITMAP
00000001BE2000
00000007FF2000
00000006FF2000
00000002FF3000
000000008F6000
0000000009A000
00000000000000
002CFA00003EC1
001DFF1000CFD0
000BFD0006FF60
001FF9001EFD00
007FF3008FF700
00DFC003FFE100
05FF500CFF9000
0CFD009DCF4000
2FF607E4FF0000
6FF58F55FF3500
5FFFF605FFFD00
0AEC4000BFC300
ENDCHAR
STARTCHAR uacute
ENCODING 250
SWIDTH 553 0
DWIDTH 13 0
BBX 14 19 0 0
BITMAP
00000000006800
0000000000EF60
0000000006FF40
000000001EFA00
00000001CF9000
00000009C50000
00000000000000
002CFA00003EC1
001DFF1000CFD0
000BFD0006FF60
001FF9001EFD00
007FF3008FF700
00DFC003FFE100
05FF500CFF9000
0CFD009DCF4000
2FF607E4FF0000
6FF58F55FF3500
5FFFF605FFFD00
0AEC4000BFC300
ENDCHAR
STARTCHAR ucircumflex
ENCODING 251
SWIDTH 553 0
DWIDTH 13 0
BBX 14 19 0 0
BITMAP
00000000002700
0000000003EF70
000000005EFFA0
0000001AFC6FE0
000007EF800DF5
00000372000273
00000000000000
002CFA00003EC1
001DFF1000CFD0
000BFD0006FF60
001FF9001EFD00
007FF3008FF700
00DFC003FFE100
05FF500CFF9000
0CFD009DCF4000
2FF607E4FF0000
6FF58F55FF3500
5FFFF605FFFD00
0AEC4000BFC300
ENDCHAR
STARTCHAR udieresis
ENCODING 252
SWIDTH 553 0
DWIDTH 13 0
BBX 15 18 0 0
BITMAP
000002CFA008ED20
000007FFF01FFF60
000004FFA00DFE20
0000004600026200
0000000000000000
0000000000000000
002CFA00003EC100
001DFF1000CFD000
000BFD0006FF6000
001FF9001EFD0000
007FF3008FF70000
00DFC003FFE10000
05FF500CFF900000
0CFD009DCF400000
2FF607E4FF000000
6FF58F55FF350000
5FFFF605FFFD0000
0AEC4000BFC30000
ENDCHAR
STARTCHAR yacute
ENCODING 253
SWIDTH 549 0
DWIDTH 13 0
BBX 14 26 0 -7
BITMAP
0000000002A300
0000000009FC00
000000001EFA00
000000009FE200
00000006FD2000
0000003E810000
00000000000000
001BFC10002DC1
001CFF3000AFE1
0009FF1003FFA0
000EFA000CFF40
005FF5005FFE00
00CFD001DFF900
04FF7009FFF300
0AFE106FBFD000
1FF804F6DF7000
4FF66F93FF2000
3FFFFA08FB0000
09ED601EF40000
0000006FC00000
000001EF400000
00000AFA000000
00009FD1000000
002AFE20000000
05FFC200000000
01640000000000
ENDCHAR
STARTCHAR thorn
ENCODING 254
SWIDTH 552 0
DWIDTH 13 0
BBX 15 26 -2 -6
BITMAP
00000001DA000000
00000004FF000000
00000008FE000000
0000000BFA000000
0000001FF6000000
0000005FF2000000
000000AFC0000000
000000EF70000000
000004FF26CEC300
000009FBAE7BFD00
00000EFED205FF30
00004FFF3004FF50
00009FF70006FF50
0000DFD0000AFF20
0003FF70001EFB00
0008FF10008FF400
000DFD0003EFA000
002FFE003DFC1000
007FFFB9EFA10000
00DFB5DFC5000000
03FF500000000000
09FE100000000000
1EF9000000000000
7FF3000000000000
DFB0000000000000
BD20000000000000
ENDCHAR
STARTCHAR ydieresis
ENCODING 255
SWIDTH 549 0
DWIDTH 13 0
BBX 14 25 0 -7
BITMAP
000008ED203DE7
00001FFF60AFFC
00000DFE207FF7
00000262000550
00000000000000
00000000000000
001BFC10002DC1
001CFF3000AFE1
0009FF1003FFA0
000EFA000CFF40
005FF5005FFE00
00CFD001DFF900
04FF7009FFF300
0AFE106FBFD000
1FF804F6DF7000
4FF66F93FF2000
3FFFFA08FB0000
09ED601EF40000
0000006FC00000
000001EF400000
00000AFA000000
00009FD1000000
002AFE20000000
05FFC200000000
01640000000000
ENDCHAR
STARTCHAR Amacron
ENCODING 256
SWIDTH 615 0
DWIDTH 15 0
BBX 20 22 -2 0
BITMAP
000000000003DFFFFFF8
00000000000AFFFFFFD2
00000000000001111100
00000000000000000000
000000000000039DF700
0000000000019FDFF600
00000000002CE55FF100
0000000002DD20CFA000
000000001CE204FF4000
00000000AF500BFD0000
00000006F9002FF70000
0000002ED1008FF10000
000000BFDCEEFFFFC000
00008EFFFFFFFFFE6000
00028FF32228FF300000
00007F90000BFD000000
0001EF20000EFA000000
0009FA00001FF6000000
003FF200003FF5000000
02DF9000004FF7340000
5DFC1000001FFFF70000
AEA100000006EE800000
ENDCHAR
STARTCHAR amacron
ENCODING 257
SWIDTH 543 0
DWIDTH 13 0
BBX 14 17 0 -1
BITMAP
000009FFFFFFF1
00002FFFFFFF80
00000011111000
00000000000000
000004BFD66EA0
00009FE78FFFB0
000AFD200DFF40
007FF3001FFC00
02FF90005FF600
09FF2000BFE000
0EFC0003FF8000
2FF9000AFF3000
2FF7005FFE0000
1FF702EBFE0000
0AFC6D95FFCE30
01BFD701DFFA00
00000000164000
ENDCHAR
STARTCHAR Abreve
ENCODING 258
SWIDTH 615 0
DWIDTH 15 0
BBX 20 24 -2 0
BITMAP
00000000000005300015
0000000000006F90009B
0000000000007FE33AE3
0000000000001BFFFA20
00000000000000231000
00000000000000000000
000000000000039DF700
0000000000019FDFF600
00000000002CE55FF100
0000000002DD20CFA000
000000001CE204FF4000
00000000AF500BFD0000
00000006F9002FF70000
0000002ED1008FF10000
000000BFDCEEFFFFC000
00008EFFFFFFFFFE6000
00028FF32228FF300000
00007F90000BFD000000
0001EF20000EFA000000
0009FA00001FF6000000
003FF200003FF5000000
02DF9000004FF7340000
5DFC1000001FFFF70000
AEA100000006EE800000
ENDCHAR
STARTCHAR abreve
ENCODING 259
SWIDTH 543 0
DWIDTH 13 0
BBX 14 19 0 -1
BITMAP
0000007E000094
000000EF3004F2
000000DFA26E60
0000004EFFD500
00000001330000
00000000000000
000004BFD66EA0
00009FE78FFFB0
000AFD200DFF40
007FF3001FFC00
02FF90005FF600
09FF2000BFE000
0EFC0003FF8000
2FF9000AFF3000
2FF7005FFE0000
1FF702EBFE0000
0AFC6D95FFCE30
01BFD701DFFA00
00000000164000
ENDCHAR
STARTCHAR Aogonek
ENCODING 260
SWIDTH 615 0
DWIDTH 15 0
BBX 18 24 -2 -6
BITMAP
000000000000039DF7
0000000000019FDFF6
00000000002CE55FF1
0000000002DD20CFA0
000000001CE204FF40
00000000AF500BFD00
00000006F9002FF700
0000002ED1008FF100
000000BFDCEEFFFFC0
00008EFFFFFFFFFE60
00028FF32228FF3000
00007F90000BFD0000
0001EF20000EF90000
0009FA00001FF60000
003FF200003FF50000
02DF9000003FF84500
6EFC1000001FFFF700
AEA100000006FE8000
00000000001BE20000
0000000000BF400000
0000000007FC000000
000000000BFC330000
0000000008FFD30000
000000000033000000
ENDCHAR
STARTCHAR aogonek
ENCODING 261
SWIDTH 541 0
DWIDTH 13 0
BBX 13 18 0 -6
BITMAP
000005BFD56EA0
00009FE78FFFB0
000BFD200DFF40
007FF3001FFC00
02FF80005FF500
09FF2000BFE000
0EFC0003FF8000
2FF8000BFF3000
3FF7005FFE0000
1FF602EBFE0000
0AFC6E94FFCE20
01BFD600AFF800
00000001BF5000
0000000BF50000
0000007FC00000
000000CFB33000
0000009FFD2000
00000003300000
ENDCHAR
STARTCHAR Cacute
ENCODING 262
SWIDTH 533 0
DWIDTH 13 0
BBX 16 24 1 0
BITMAP
0000000000000320
0000000000002FE1
0000000000009FF1
000000000006FF60
00000000003EA300
0000000000000000
00000005BEFB3000
000002CFE86CE100
00004EFB1007F600
0003EFB0000AF800
001DFD10004FF600
00AFF40003EFF200
03FFB0004EFF7000
0AFF30004FF90000
1FFC000003300000
5FF7000000000000
9FF3000000000000
BFF1000000000000
CFE0000000000000
CFF0000000000000
AFF1000003000000
5FF60003CD000000
0BFE76AFF8000000
007CEED930000000
ENDCHAR
STARTCHAR cacute
ENCODING 263
SWIDTH 468 0
DWIDTH 11 0
BBX 13 19 0 0
BITMAP
00000000002A30
00000000008FD0
0000000001EFB0
0000000008FE30
000000006FD300
00000003E81000
00000000000000
000005BEEB2000
0001BFD79FB000
001CFD103FF000
00AFF3009FD000
03FF8005FF8000
0AFF2006FC1000
0EFC0000100000
2FF80000000000
2FF70000100000
0EFA0003E20000
08FF86AFA00000
007DFEB5000000
ENDCHAR
STARTCHAR Ccircumflex
ENCODING 264
SWIDTH 533 0
DWIDTH 13 0
BBX 16 24 1 0
BITMAP
0000000000002000
000000000005FB00
00000000008FFF30
000000006DF8CFB0
00000004EB403CF3
0000000000000000
00000005BEFB3000
000002CFE86CE100
00004EFB1007F600
0003EFB0000AF800
001DFD10004FF600
00AFF40003EFF200
03FFB0004EFF7000
0AFF30004FF90000
1FFC000003300000
5FF7000000000000
9FF3000000000000
BFF1000000000000
CFE0000000000000
CFF0000000000000
AFF1000003000000
5FF60003CD000000
0BFE76AFF8000000
007CEED930000000
ENDCHAR
STARTCHAR ccircumflex
ENCODING 265
SWIDTH 468 0
DWIDTH 11 0
BBX 13 19 0 0
BITMAP
00000000017200
000000001BFB00
00000003DFFE00
0000007FE4FF30
00003DFB20AFA0
00001740001750
00000000000000
000005BEEB2000
0001BFD79FB000
001CFD103FF000
00AFF3009FD000
03FF8005FF8000
0AFF2006FC1000
0EFC0000100000
2FF80000000000
2FF70000100000
0EFA0003E20000
08FF86AFA00000
007DFEB5000000
ENDCHAR
STARTCHAR Cdotaccent
ENCODING 266
SWIDTH 533 0
DWIDTH 13 0
BBX 14 23 1 0
BITMAP
0000000004EE50
000000000CFFB0
0000000009FF60
00000000006400
00000000000000
00000005BEFB30
000002CFE86CE1
00004EFB1007F6
0003EFB0000AF8
001DFD10004FF6
00AFF40003EFF2
03FFB0004EFF70
0AFF30004FF900
1FFC0000033000
5FF70000000000
9FF30000000000
BFF10000000000
CFE00000000000
CFF00000000000
AFF10000030000
5FF60003CD0000
0BFE76AFF80000
007CEED9300000
ENDCHAR
STARTCHAR cdotaccent
ENCODING 267
SWIDTH 468 0
DWIDTH 11 0
BBX 12 18 0 0
BITMAP
00000002CFA0
00000007FFF1
00000004FFA0
000000004600
000000000000
000000000000
000005BEEB20
0001BFD79FB0
001CFD103FF0
00AFF3009FD0
03FF8005FF80
0AFF2006FC10
0EFC00001000
2FF800000000
2FF700001000
0EFA0003E200
08FF86AFA000
007DFEB50000
ENDCHAR
STARTCHAR Ccaron
ENCODING 268
SWIDTH 533 0
DWIDTH 13 0
BBX 17 23 1 0
BITMAP
000000009DA0005D10
000000005FF82AFD10
0000000009FFFE8100
0000000002DB500000
000000000000000000
00000005BEFB300000
000002CFE86CE10000
00004EFB1007F60000
0003EFB0000AF80000
001DFD10004FF60000
00AFF40003EFF20000
03FFB0004EFF700000
0AFF30004FF9000000
1FFC00000330000000
5FF700000000000000
9FF300000000000000
BFF100000000000000
CFE000000000000000
CFF000000000000000
AFF100000300000000
5FF60003CD00000000
0BFE76AFF800000000
007CEED93000000000
ENDCHAR
STARTCHAR ccaron
ENCODING 269
SWIDTH 468 0
DWIDTH 11 0
BBX 15 18 0 0
BITMAP
0000005B60001C40
0000004FF104EF30
0000000DF69FD400
00000009FFE71000
00000003B6000000
0000000000000000
000005BEEB200000
0001BFD79FB00000
001CFD103FF00000
00AFF3009FD00000
03FF8005FF800000
0AFF2006FC100000
0EFC000010000000
2FF8000000000000
2FF7000010000000
0EFA0003E2000000
08FF86AFA0000000
007DFEB500000000
ENDCHAR
STARTCHAR Dcaron
ENCODING 270
SWIDTH 630 0
DWIDTH 15 0
BBX 15 23 1 0
BITMAP
0000001BD80007C0
00000007FF63BFB0
00000000CFEFD710
000000004EA40000
0000000000000000
0048BDEFEB720000
07FFFC8669FF7000
02CD4000003EF700
00004A810007FF10
0001EFF20002FF60
0007FF800001FF80
001EFE100001FF70
007FF7000004FF60
00DFE1000008FF20
04FF9000001EFD00
0AFF3000008FF600
0EFC000002FFC000
4FF700001DFE3000
8FF20001BFF50000
BFD0001CFF600000
DFA004DFE4000000
9FC7BFFA20000000
08DEC82000000000
ENDCHAR
STARTCHAR dcaron
ENCODING 271
SWIDTH 557 0
DWIDTH 13 0
BBX 19 20 1 0
BITMAP
00000000000037103710
000000000001EF71FF80
000000000007FF20DF80
00000000000DFA00CF40
00000000004FF502FB00
00000000009FE00CD200
0000000000EF80381000
0000000004FF30000000
00002AEE99FD00000000
0005EF96EFF800000000
006FF4008FF300000000
03FF6000BFD000000000
0DFC0001FF9000000000
5FF50005FF4000000000
BFE0000DFF1000000000
EFB0006FFB0000000000
FFA001DFF80000000000
EFA00AACF92400000000
9FE6BC1AFFF900000000
1AEE8102CE9100000000
ENDCHAR
STARTCHAR Dcroat
ENCODING 272
SWIDTH 630 0
DWIDTH 15 0
BBX 16 18 0 0
BITMAP
00059BEFFDB61000
009FFFB756AFE500
004EC2000005FF50
0000059700009FD0
00002FFD00005FF3
0000AFF500003FF5
0003FFC000004FF5
0BFFFFFFFA007FF3
4FFFFFFFE400BFE0
007FF6000002FFA0
00CFE100000AFF30
02FFA000004FFA00
06FF400002EFD100
0AFE00002DFE3000
0EFA0002DFE40000
0FF8006EFD300000
0CFA7CFF81000000
019EEC7200000000
ENDCHAR
STARTCHAR dcroat
ENCODING 273
SWIDTH 557 0
DWIDTH 13 0
BBX 16 20 1 0
BITMAP
0000000000003720
000000000002EF70
000000000009FE10
0000000AFFFFFFE1
0000002999CFF930
0000000000BFC000
0000000001FF7000
0000000005FF2000
00002AEE99FC0000
0005EF96EFF70000
006FF4008FF20000
03FF6000BFD00000
0DFC0001FF800000
5FF50005FF400000
BFE0000DFF000000
EFB0006FFB000000
FFA001DFF8000000
EFA00AACF9240000
9FE6BC1AFFF90000
1AEE8102CE910000
ENDCHAR
STARTCHAR Emacron
ENCODING 274
SWIDTH 509 0
DWIDTH 12 0
BBX 14 22 1 0
BITMAP
000001CFFFFFFC
000006FFFFFFE4
00000001111100
00000000000000
0000017CEFD910
00003DFFA67FA0
0004FFD3000DF0
002EFD10005FE0
009FF40006FF90
01FFB000AFFE20
03FF6000DFE300
02FF5000141000
00CF9021000000
003DFFFD100000
006EFFC7000000
08FFE500000000
5FFD2000000000
CFF30000100000
FFC00002D50000
EFB0003DF40000
6FF86AFF700000
05BEED93000000
ENDCHAR
STARTCHAR emacron
ENCODING 275
SWIDTH 471 0
DWIDTH 11 0
BBX 12 16 1 0
BITMAP
0008FFFFFFF2
001FFFFFFF90
000011111100
000000000000
00004BEEA100
0009FD6BF900
00AFD106FD00
07FF4009FE00
1FFB003FF900
8FF504EFD100
CFF7BFFA1000
EFECB7200000
FF9000000000
CFC0001B7000
5FF969EF4000
05CFED930000
ENDCHAR
STARTCHAR Ebreve
ENCODING 276
SWIDTH 509 0
DWIDTH 12 0
BBX 14 24 1 0
BITMAP
00000004500005
0000002FC0005E
0000003FF628E5
00000008FFFC40
00000000232000
00000000000000
0000017CEFD910
00003DFFA67FA0
0004FFD3000DF0
002EFD10005FE0
009FF40006FF90
01FFB000AFFE20
03FF6000DFE300
02FF5000141000
00CF9021000000
003DFFFD100000
006EFFC7000000
08FFE500000000
5FFD2000000000
CFF30000100000
FFC00002D50000
EFB0003DF40000
6FF86AFF700000
05BEED93000000
ENDCHAR
STARTCHAR ebreve
ENCODING 277
SWIDTH 471 0
DWIDTH 11 0
BBX 12 18 1 0
BITMAP
00006E100095
0000DF4004F3
0000CFB25E70
00003DFFD600
000000330000
000000000000
00004BEEA100
0009FD6BF900
00AFD106FD00
07FF4009FE00
1FFB003FF900
8FF504EFD100
CFF7BFFA1000
EFECB7200000
FF9000000000
CFC0001B7000
5FF969EF4000
05CFED930000
ENDCHAR
STARTCHAR Edotaccent
ENCODING 278
SWIDTH 509 0
DWIDTH 12 0
BBX 13 23 1 0
BITMAP
00000003DE7000
0000000AFFC000
00000007FF7000
00000000650000
00000000000000
0000017CEFD910
00003DFFA67FA0
0004FFD3000DF0
002EFD10005FE0
009FF40006FF90
01FFB000AFFE20
03FF6000DFE300
02FF5000141000
00CF9021000000
003DFFFD100000
006EFFC7000000
08FFE500000000
5FFD2000000000
CFF30000100000
FFC00002D50000
EFB0003DF40000
6FF86AFF700000
05BEED93000000
ENDCHAR
STARTCHAR edotaccent
ENCODING 279
SWIDTH 471 0
DWIDTH 11 0
BBX 10 18 1 0
BITMAP
000001BFA0
000006FFF1
000003FFB0
0000003610
0000000000
0000000000
00004BEEA1
0009FD6BF9
00AFD106FD
07FF4009FE
1FFB003FF9
8FF504EFD1
CFF7BFFA10
EFECB72000
FF90000000
CFC0001B70
5FF969EF40
05CFED9300
ENDCHAR
STARTCHAR Eogonek
ENCODING 280
SWIDTH 509 0
DWIDTH 12 0
BBX 13 24 1 -6
BITMAP
0000017CEFD910
00003DFFA67FA0
0004FFD3000DF0
002EFD10005FE0
009FF40006FF90
01FFB000AFFE20
03FF6000DFE300
02FF5000141000
00CF9021000000
003DFFFD100000
006EFFC7000000
08FFE500000000
5FFD2000000000
CFF30000100000
FFC00002D50000
DFB0003DF50000
6FF86AFF900000
05BEFFC4000000
0007F900000000
007FA000000000
02FF2000000000
07FF3500000000
04FFE600000000
00231000000000
ENDCHAR
STARTCHAR eogonek
ENCODING 281
SWIDTH 471 0
DWIDTH 11 0
BBX 10 18 1 -6
BITMAP
00004BEEA1
0009FD6BF9
00AFD106FD
07FF4009FD
1EFB003FF9
7FF504EFD1
CFF7BFFA10
EFEDB83000
FF90000000
CFC0001B70
4FF969EF50
04CEFFE500
0004EC2000
003ED10000
00DF600000
02FF651000
01EFFA0000
0013200000
ENDCHAR
STARTCHAR Ecaron
ENCODING 282
SWIDTH 509 0
DWIDTH 12 0
BBX 15 23 1 0
BITMAP
0000008DA1003D20
0000003EFA19FE20
00000008FFEE9200
00000001DC610000
0000000000000000
0000017CEFD91000
00003DFFA67FA000
0004FFD3000DF000
002EFD10005FE000
009FF40006FF9000
01FFB000AFFE2000
03FF6000DFE30000
02FF500014100000
00CF902100000000
003DFFFD10000000
006EFFC700000000
08FFE50000000000
5FFD200000000000
CFF3000010000000
FFC00002D5000000
EFB0003DF4000000
6FF86AFF70000000
05BEED9300000000
ENDCHAR
STARTCHAR ecaron
ENCODING 283
SWIDTH 471 0
DWIDTH 11 0
BBX 13 18 1 0
BITMAP
00005B60001B50
00003FF203DF40
00000CF79FE500
000008FFE71000
000002B6100000
00000000000000
00004BEEA10000
0009FD6BF90000
00AFD106FD0000
07FF4009FE0000
1FFB003FF90000
8FF504EFD10000
CFF7BFFA100000
EFECB720000000
FF900000000000
CFC0001B700000
5FF969EF400000
05CFED93000000
ENDCHAR
STARTCHAR Gcircumflex
ENCODING 284
SWIDTH 598 0
DWIDTH 14 0
BBX 16 24 1 0
BITMAP
0000000000002000
000000000006FA00
00000000019FFF20
000000016DF8DFA0
00000004EB303DF3
0000000000000000
00000004AEFC3000
000002BFE96CE200
00003EFC2006F800
0003EFD10009F900
001DFE20004FF700
009FF60004EFF200
02FFD0003FFF7000
09FF50002EF70000
0EFD000000100000
4FF8000020002000
8FF4001CFFDEF200
AFF1003DFFFFC000
BFE00000CFEB2000
CFE00000AF400000
AFF00001EE000000
5FF50009F5000000
0BFE76CF60000000
008DFEA300000000
ENDCHAR
STARTCHAR gcircumflex
ENCODING 285
SWIDTH 526 0
DWIDTH 13 0
BBX 13 26 0 -7
BITMAP
00000000007300
000000000AFD00
00000002CFFF20
0000006EE5DF60
00002DFC307FC0
00000650000660
00000000000000
000004BEE70510
00009FD78FCFB0
000AFD2009FF70
007FF4000AFF10
02FFA0001EFA00
08FF40006FF600
0DFE0000DFF100
1FFA0007FFB000
1FF9002EFF7000
0EF901CFFF2000
09FE6CDAFC0000
01AED81DF60000
0000004FE10000
000000BF800000
000005FE100000
00002EF6000000
0004EF90000000
03BFF800000000
02993000000000
ENDCHAR
STARTCHAR Gbreve
ENCODING 286
SWIDTH 598 0
DWIDTH 14 0
BBX 16 24 1 0
BITMAP
0000000005400005
000000005FA0008C
000000006FE439E3
000000000BFFFB20
0000000000231000
0000000000000000
00000004AEFC3000
000002BFE96CE200
00003EFC2006F800
0003EFD10009F900
001DFE20004FF700
009FF60004EFF200
02FFD0003FFF7000
09FF50002EF70000
0EFD000000100000
4FF8000020002000
8FF4001CFFDEF200
AFF1003DFFFFC000
BFE00000CFEB2000
CFE00000AF400000
AFF00001EE000000
5FF50009F5000000
0BFE76CF60000000
008DFEA300000000
ENDCHAR
STARTCHAR gbreve
ENCODING 287
SWIDTH 526 0
DWIDTH 13 0
BBX 14 25 0 -7
BITMAP
0000005E200076
000000CF5003E4
000000BFC25E80
0000002DFFE600
00000000330000
00000000000000
000004BEE70510
00009FD78FCFB0
000AFD2009FF70
007FF4000AFF10
02FFA0001EFA00
08FF40006FF600
0DFE0000DFF100
1FFA0007FFB000
1FF9002EFF7000
0EF901CFFF2000
09FE6CDAFC0000
01AED81DF60000
0000004FE10000
000000BF800000
000005FE100000
00002EF6000000
0004EF90000000
03BFF800000000
02993000000000
ENDCHAR
STARTCHAR Gdotaccent
ENCODING 288
SWIDTH 598 0
DWIDTH 14 0
BBX 14 23 1 0
BITMAP
0000000005EE50
000000000DFFA0
000000000AFF50
00000000016400
00000000000000
00000004AEFC30
000002BFE96CE2
00003EFC2006F8
0003EFD10009F9
001DFE20004FF7
009FF60004EFF2
02FFD0003FFF70
09FF50002EF700
0EFD0000001000
4FF80000200020
8FF4001CFFDEF2
AFF1003DFFFFC0
BFE00000CFEB20
CFE00000AF4000
AFF00001EE0000
5FF50009F50000
0BFE76CF600000
008DFEA3000000
ENDCHAR
STARTCHAR gdotaccent
ENCODING 289
SWIDTH 526 0
DWIDTH 13 0
BBX 13 25 0 -7
BITMAP
00000001AFB100
00000005FFF300
00000002FFD000
00000000361000
00000000000000
00000000000000
000004BEE70510
00009FD78FCFB0
000AFD2009FF70
007FF4000AFF10
02FFA0001EFA00
08FF40006FF600
0DFE0000DFF100
1FFA0007FFB000
1FF9002EFF7000
0EF901CFFF2000
09FE6CDAFC0000
01AED81DF60000
0000004FE10000
000000BF800000
000005FE100000
00002EF6000000
0004EF90000000
03BFF800000000
02993000000000
ENDCHAR
STARTCHAR Gcommaaccent
ENCODING 290
SWIDTH 598 0
DWIDTH 14 0
BBX 14 24 1 -6
BITMAP
00000004AEFC30
000002BFE96CE2
00003EFC2006F8
0003EFD10009F9
001DFE20004FF7
009FF60004EFF2
02FFD0003FFF70
09FF50002EF700
0EFD0000001000
4FF80000200020
8FF4001CFFDEF2
AFF1003DFFFFC0
BFE00000CFEB20
CFE00000AF4000
AFF00001EE0000
5FF50009F50000
0BFE76CF600000
008DFEA3000000
00000000000000
02DF5000000000
03FF9000000000
00DF5000000000
05FA0000000000
1D700000000000
ENDCHAR
STARTCHAR gcommaaccent
ENCODING 291
SWIDTH 526 0
DWIDTH 13 0
BBX 13 26 0 -7
BITMAP
0000000002B800
000000003EC100
00000000CF6000
00000001FFA000
00000000BF8000
00000000000000
00000000000000
000004BEE70510
00009FD78FCFB0
000AFD2009FF70
007FF4000AFF10
02FFA0001EFA00
08FF40006FF600
0DFE0000DFF100
1FFA0007FFB000
1FF9002EFF7000
0EF901CFFF2000
09FE6CDAFC0000
01AED81DF60000
0000004FE10000
000000BF800000
000005FE100000
00002EF6000000
0004EF90000000
03BFF800000000
02993000000000
ENDCHAR
STARTCHAR Hcircumflex
ENCODING 292
SWIDTH 668 0
DWIDTH 16 0
BBX 18 24 -1 0
BITMAP
000000000000020000
0000000000009F6000
00000000002CFFD000
0000000028EE6FF600
000000008E9206ED00
000000000000000000
0005BEFD50000005E7
0008FABFE000000BFC
000010AFE000000EFA
000000DFC000003FF6
000002FF9000007FF2
000006FF500000CFC0
00000AFF100002FF60
00000EFC000017FF10
0003AFFEDEEFFFFFC0
0009FFF65456AFFE50
0001EFA000009FD000
0006FF400000EF7000
000CFC000004FF2000
004FF500000AFB0000
00CFC000000EF60000
07FF3000003FF43200
5FF50000004FFFF300
AD500000000AFC4000
ENDCHAR
STARTCHAR hcircumflex
ENCODING 293
SWIDTH 555 0
DWIDTH 13 0
BBX 13 23 0 0
BITMAP
00000007E40000
0000009FFA0000
00002CFCFD0000
0018EE61FF3000
006EA2007E8000
000008E4000000
00000DFA000000
00001FF8000000
00004FF5000000
00008FF1000000
0000CFB0000000
0001FF605DE900
0006FF16FFFF40
000BFA4F96FF40
001FF6E807FF10
006FEDA01EFA00
00CFFC107FF300
03FFE200DFB000
09FF4004FF5000
1EFB0008FF1000
7FF3000AFE2500
EFB00008FFFD00
9E300001CFB200
ENDCHAR
STARTCHAR Hbar
ENCODING 294
SWIDTH 668 0
DWIDTH 16 0
BBX 20 18 -1 0
BITMAP
0005BEFD50000006E700
0008FABFE000000BFD00
000010AFE000000EFA00
000000DFC000114FF710
00037AFFEEFFFFFFFFF7
005FFFFFFFFFFFFFFFB1
000329FF200001FF6000
00000DFC000017FF1000
00006FFEDEEFFFFFC000
000AFFF654459FF93000
0001EFA000009FC00000
0005FF400000EF600000
000BFC000005FE100000
003FF500000AFA000000
00BFC000000EF5000000
06FF3000003FF4320000
5FF50000004FFFF30000
AD500000000AFC400000
ENDCHAR
STARTCHAR hbar
ENCODING 295
SWIDTH 555 0
DWIDTH 13 0
BBX 13 20 0 0
BITMAP
00000163000000
000006FF100000
000019FF111000
001CFFFFFFD100
00146FF8430000
00006FF2000000
00009FD0000000
0000DF80000000
0003FF305DE900
0007FD06FFFF40
000CF84F96FF40
002FF5E807FF10
007FDCA00EFB00
00DFFC106FF400
03FFE200DFB000
09FF5004FF5000
1FFB0008FF1000
8FF3000AFE2500
EFB00008FFFD00
9E300001BFB200
ENDCHAR
STARTCHAR Itilde
ENCODING 296
SWIDTH 327 0
DWIDTH 8 0
BBX 14 23 -1 0
BITMAP
000002BEB100B3
00001DFFFB17F1
0000AD49FFFF60
0000B3008ED500
00000000000000
0002AEFD600000
0003EC9FF30000
0000105FF40000
0000008FF30000
000000BFF00000
000000EFC00000
000003FF800000
000008FF300000
00000CFE000000
00002FF9000000
00007FF3000000
0000DFC0000000
0004FF60000000
000BFD10000000
004FF500000000
01DFB000000000
0BFD1000000000
2EB10000000000
ENDCHAR
STARTCHAR itilde
ENCODING 297
SWIDTH 286 0
DWIDTH 7 0
BBX 11 18 0 0
BITMAP
0019EC200850
00CFFFD25F40
07E57FFFF900
096006ED7000
000000000000
000000000000
003DFC000000
002EFF000000
000CFB000000
001FF6000000
006FE0000000
00DF70000000
04FE10000000
0AF900000000
1FF400000000
4FF740000000
4FFFE0000000
0AFD40000000
ENDCHAR
STARTCHAR Imacron
ENCODING 298
SWIDTH 327 0
DWIDTH 8 0
BBX 13 22 -1 0
BITMAP
00003DFFFFFF80
0000AFFFFFFD20
00000011111000
00000000000000
0002AEFD600000
0003EC9FF30000
0000105FF40000
0000008FF30000
000000BFF00000
000000EFC00000
000003FF800000
000008FF300000
00000CFE000000
00002FF9000000
00007FF3000000
0000DFC0000000
0004FF60000000
000BFD10000000
004FF500000000
01DFB000000000
0BFD1000000000
2EB10000000000
ENDCHAR
STARTCHAR imacron
ENCODING 299
SWIDTH 286 0
DWIDTH 7 0
BBX 10 16 0 0
BITMAP
04EFFFFFF6
0CFFFFFFC1
0011111100
0000000000
003DFC0000
002EFF0000
000CFB0000
001FF60000
006FE00000
00DF700000
04FE100000
0AF9000000
1FF4000000
4FF7400000
4FFFE00000
0AFD400000
ENDCHAR
STARTCHAR Ibreve
ENCODING 300
SWIDTH 327 0
DWIDTH 8 0
BBX 13 24 -1 0
BITMAP
00000063000150
000006F90009B0
000007FE33AE20
000001BFFFA200
00000002310000
00000000000000
0002AEFD600000
0003EC9FF30000
0000105FF40000
0000008FF30000
000000BFF00000
000000EFC00000
000003FF800000
000008FF300000
00000CFE000000
00002FF9000000
00007FF3000000
0000DFC0000000
0004FF60000000
000BFD10000000
004FF500000000
01DFB000000000
0BFD1000000000
2EB10000000000
ENDCHAR
STARTCHAR ibreve
ENCODING 301
SWIDTH 286 0
DWIDTH 7 0
BBX 10 18 0 0
BITMAP
001C80001C
006FC000AA
004FF52AD2
0009FFFA20
0000231000
0000000000
003DFC0000
002EFF0000
000CFB0000
001FF60000
006FE00000
00DF700000
04FE100000
0AF9000000
1FF4000000
4FF7400000
4FFFE00000
0AFD400000
ENDCHAR
STARTCHAR Iogonek
ENCODING 302
SWIDTH 327 0
DWIDTH 8 0
BBX 13 24 -4 -6
BITMAP
0000002AEFD600
0000003EC9FF30
0000000105FF40
0000000008FF30
000000000BFF00
000000000EFC00
000000003FF800
000000008FF400
00000000CFE000
00000002FF9000
00000007FF4000
0000000DFD0000
0000004FF70000
000000BFE10000
000004FF600000
00000CFC000000
0000AFE2000000
0004FC20000000
004EB100000000
04FC0000000000
1DF50000000000
4FF55000000000
2EFF8000000000
01310000000000
ENDCHAR
STARTCHAR iogonek
ENCODING 303
SWIDTH 297 0
DWIDTH 7 0
BBX 9 24 -1 -6
BITMAP
000002CE80
000009FFE0
000005FF90
0000005500
0000000000
0000000000
0001BFD200
0001CFF400
00008FF100
0000CFA000
0003FF4000
0009FC0000
001EF50000
007FE00000
00CF900000
01FF600000
01FFFE3000
008FF90000
006F700000
07F9000000
3FF1000000
8FE3400000
5FFE500000
0231000000
ENDCHAR
STARTCHAR Idotaccent
ENCODING 304
SWIDTH 327 0
DWIDTH 8 0
BBX 10 23 -1 0
BITMAP
0000006ED4
000000EFF9
000000BFF4
0000001630
0000000000
0002AEFD60
0003EC9FF3
0000105FF4
0000008FF3
000000BFF0
000000EFC0
000003FF80
000008FF30
00000CFE00
00002FF900
00007FF300
0000DFC000
0004FF6000
000BFD1000
004FF50000
01DFB00000
0BFD100000
2EB1000000
ENDCHAR
STARTCHAR dotlessi
ENCODING 305
SWIDTH 286 0
DWIDTH 7 0
BBX 6 12 0 0
BITMAP
003DFC
002EFF
000CFB
001FF6
006FE0
00DF70
04FE10
0AF900
1FF400
4FF740
4FFFE0
0AFD40
ENDCHAR
STARTCHAR IJ
ENCODING 306
SWIDTH 720 0
DWIDTH 17 0
BBX 19 24 -1 -6
BITMAP
0002AEFD600049DFEB30
0003EC9FF32BFFD7CFE0
0000105FF4CFF900BFF0
0000008FF36D7000EFD0
000000BFF0000003FFA0
000000EFC0000007FF60
000003FF8000000BFF20
000008FF3000001FFD00
00000CFE0000006FF800
00002FF9000000BFF200
00007FF3000002FFC000
0000DFC0000008FF7000
0004FF6000000EFE1000
000BFD1000006FF80000
004FF5000000DFF20000
01DFB0000006FF900000
0BFD1000000DFE100000
2EB10000007FF7000000
0000000002FFB0000000
000000000CFE20000000
000000009FF400000000
00000009FF5000000000
000003CFE40000000000
00002ED9100000000000
ENDCHAR
STARTCHAR ij
ENCODING 307
SWIDTH 567 0
DWIDTH 14 0
BBX 14 24 0 -6
BITMAP
00005EE5002CE8
0000CFFA009FFE
00009FF6006FF9
00000640000550
00000000000000
00000000000000
003DFC0007EE70
002EFF0007FFA0
000CFB0002FF80
001FF60004FF60
006FE00006FF30
00DF700009FE00
04FE10000DFA00
0AF900003FF500
1FF400008FE100
4FF74000DFA000
4FFFE004FF3000
0AFD400BFC0000
0000003FF40000
000000BFA00000
000005FE100000
00003EF4000000
0005EE50000000
003EB200000000
ENDCHAR
STARTCHAR Jcircumflex
ENCODING 308
SWIDTH 393 0
DWIDTH 9 0
BBX 17 30 -4 -6
BITMAP
000000000000077000
000000000001AFF300
00000000004DFEFA00
000000001CFD34FF50
000000000650003730
000000000000000000
000000039DFEB40000
000001AFFE8BFF1000
00000AFFA10AFF2000
000004C8000CFF0000
00000000001FFC0000
00000000005FF80000
00000000009FF40000
0000000000EFE10000
0000000004FFA00000
0000000009FF500000
000000001EFE000000
000000006FF9000000
00000000CFF2000000
00000004FFA0000000
0000000BFF30000000
0000004FFB00000000
000000CFF300000000
000005FF9000000000
00001EFD1000000000
0000AFF40000000000
0007FF600000000000
007FF7000000000000
2AFF60000000000000
EE9200000000000000
ENDCHAR
STARTCHAR jcircumflex
ENCODING 309
SWIDTH 282 0
DWIDTH 7 0
BBX 13 25 -4 -6
BITMAP
0000000003E800
000000005EFE00
00000019FCFF30
000005DF91BF80
00002EC4003EC0
00000000000000
00000000000000
0000005DFA0000
0000004FFD0000
0000000EFB0000
0000001FF90000
0000004FF50000
0000007FF20000
000000BFC00000
000001FF800000
000006FF200000
00000BFC000000
00003FF6000000
00009FD0000000
0001FF60000000
0009FC00000000
003FF300000000
01DF6000000000
3DF60000000000
DC400000000000
ENDCHAR
STARTCHAR Kcommaaccent
ENCODING 310
SWIDTH 616 0
DWIDTH 15 0
BBX 17 24 -1 -6
BITMAP
0018DED7000006EA10
002FD7FF600004FF60
000212FF700003FF80
000005FF600007FF50
000008FF30001DFD00
00000BFF1000AFF400
00001FFC0008FF5000
00005FF8009FE40000
00009FF31BFB100000
0000EFD3DF70000000
0004FFDFF400000000
000AFF6EFC10000000
001FFC04FF90000000
008FF500AFF5000000
01EFC0002FFE100000
0AFF300007FFB00000
8FF6000000BFFB5300
DD5000000018EFB300
000000000000000000
00006EC10000000000
00009FF30000000000
00004FD00000000000
0000BF400000000000
0006C3000000000000
ENDCHAR
STARTCHAR kcommaaccent
ENCODING 311
SWIDTH 497 0
DWIDTH 12 0
BBX 13 26 0 -6
BITMAP
00000062000000
000005FE000000
000008FE000000
00000BFC000000
00000EF8000000
00003FF4000000
00007FE0000000
0000BFA0000000
0001FF502DE800
0005FE100CFF10
000AF9001EFE00
001EF401BFF500
005FD05EFD4000
00BFCDFC600000
02FFFFB0000000
08FF9FF1000000
1EF92FFA000000
7FF209FF914100
EFA001DFFFF200
9E30002BFC4000
00000000000000
007EC000000000
00AFF200000000
005FD000000000
00CE3000000000
07C30000000000
ENDCHAR
STARTCHAR kgreenlandic
ENCODING 312
SWIDTH 497 0
DWIDTH 12 0
BBX 13 12 0 0
BITMAP
003DE7001CEA00
002EFD000AFF30
000CFB000CFF10
001FF601AFF700
006FF14DFE6000
00BFECFE810000
02FFFFD0000000
08FF9FF3000000
1EFD0CFC000000
7FF606FFA24200
EFD000BFFFF300
9E40001AED4000
ENDCHAR
STARTCHAR Lacute
ENCODING 313
SWIDTH 517 0
DWIDTH 12 0
BBX 16 24 -1 0
BITMAP
0000000000000230
0000000000000BF6
0000000000003FF7
000000000002DFB1
00000000000CC600
0000000000000000
0000000018DFC300
00000001CFC6CD10
0000000BFC106F50
0000007FF3008F70
000001EFA001EF60
000008FF301BFF10
00001EFC02BFF800
00006FF60EFFC100
0000CFF108EA1000
0002FFA000000000
0007FF3000000000
000DFC0000000000
003FF50000000000
009FC00000000000
02FF300000000000
1BF848ACEFC30000
7FFEFFFFFFFE0000
2DEB8643359E1000
ENDCHAR
STARTCHAR lacute
ENCODING 314
SWIDTH 279 0
DWIDTH 7 0
BBX 11 24 0 0
BITMAP
000000001400
000000008F90
00000001EFA0
0000001CFC10
000000AD7100
000000000000
00000AD10000
00000FF50000
00003FF30000
00007FE00000
0000CFA00000
0002FF500000
0007FE100000
000CFA000000
002FF4000000
007FE0000000
00CF90000000
03FF40000000
08FE00000000
0DF900000000
2FF500000000
4FF542000000
2FFFF3000000
07ED50000000
ENDCHAR
STARTCHAR Lcommaaccent
ENCODING 315
SWIDTH 517 0
DWIDTH 12 0
BBX 15 24 -1 -6
BITMAP
0000000018DFC300
00000001CFC6CD10
0000000BFC106F50
0000007FF3008F70
000001EFA001EF60
000008FF301BFF10
00001EFC02BFF800
00006FF60EFFC100
0000CFF108EA1000
0002FFA000000000
0007FF3000000000
000DFC0000000000
003FF50000000000
009FC00000000000
02FF300000000000
1BF848ACEFC30000
7FFEFFFFFFFE0000
2DEB8643359E1000
0000000000000000
003DE30000000000
004FF70000000000
000FF30000000000
007F800000000000
03D6000000000000
ENDCHAR
STARTCHAR lcommaaccent
ENCODING 316
SWIDTH 279 0
DWIDTH 7 0
BBX 9 26 -1 -6
BITMAP
0000003610
000000CF80
000000EF90
000002FF60
000006FF30
000009FD00
00000DF900
00003FF400
00008FD000
0000DF8000
0003FF3000
0008FD0000
000DF80000
003FF30000
008FD00000
00CF900000
01FF500000
03FF542000
01FFFF3000
006ED60000
0000000000
02CF600000
02FFA00000
00CF600000
04FA000000
1D80000000
ENDCHAR
STARTCHAR Lcaron
ENCODING 317
SWIDTH 517 0
DWIDTH 12 0
BBX 20 23 -1 0
BITMAP
00000000000000001650
00000000000000009FF1
00000000000000006FF1
00000000000000005FC0
0000000000000000AF40
0000000018DFC305F700
00000001CFC6CD174000
0000000BFC106F500000
0000007FF3008F700000
000001EFA001EF600000
000008FF301BFF100000
00001EFC02BFF8000000
00006FF60EFFC1000000
0000CFF108EA10000000
0002FFA0000000000000
0007FF30000000000000
000DFC00000000000000
003FF500000000000000
009FC000000000000000
02FF3000000000000000
1BF848ACEFC300000000
7FFEFFFFFFFE00000000
2DEB8643359E10000000
ENDCHAR
STARTCHAR lcaron
ENCODING 318
SWIDTH 467 0
DWIDTH 11 0
BBX 14 20 0 0
BITMAP
00000361000650
00000CF8007FF2
00000EF9005FF2
00002FF6004FD0
00006FF3009F50
00009FD004F800
0000DF90065000
0003FF40000000
0008FD00000000
000DF800000000
003FF300000000
008FD000000000
00DF8000000000
03FF3000000000
08FD0000000000
0CF90000000000
1FF50000000000
3FF54200000000
1FFFF300000000
06ED6000000000
ENDCHAR
STARTCHAR Ldot
ENCODING 319
SWIDTH 668 0
DWIDTH 16 0
BBX 18 18 -1 0
BITMAP
0000000018DFC30000
00000001CFC6CD1000
0000000BFC106F5000
0000007FF3008F7000
000001EFA001EF6000
000008FF301BFF1000
00001EFC02BFF80000
00006FF60EFFC10000
0000CFF108EA100320
0002FFA0000000CFF3
0007FF30000002FFF5
000DFC00000000BFC0
003FF5000000000200
009FC0000000000000
02FF30000000000000
1BF848ACEFC3000000
7FFEFFFFFFFE000000
2DEB8643359E100000
ENDCHAR
STARTCHAR ldot
ENCODING 320
SWIDTH 489 0
DWIDTH 12 0
BBX 12 20 0 0
BITMAP
000003610000
00000CF80000
00000EF90000
00002FF60000
00006FF30000
00009FD00000
0000DF900000
0003FF400000
0008FD000000
000DF8000000
003FF300BFC2
008FD004FFF7
00DF8002FFF3
03FF30004840
08FD00000000
0CF900000000
1FF500000000
3FF542000000
1FFFF3000000
06ED60000000
ENDCHAR
STARTCHAR Lslash
ENCODING 321
SWIDTH 517 0
DWIDTH 12 0
BBX 15 18 -1 0
BITMAP
0000000018DFB200
00000001CFC6CD00
0000000CFC106F50
0000007FF4007F70
000002FFB000DF60
000008FF5009FF20
00001EFE008FFB00
00006FF80AFFE200
0000CFF20DFE5000
0002FFC001620000
006CFFFFA0000000
2DFFFFFFF3000000
177FF80010000000
00AFE10000000000
02FF600000000000
1CFA2579BC920000
7FFDFFFFFFFD0000
2DEB9643469E1000
ENDCHAR
STARTCHAR lslash
ENCODING 322
SWIDTH 279 0
DWIDTH 7 0
BBX 11 20 0 0
BITMAP
0002DA300000
0003FFFFFFA0
00001EFA4100
00002FF50000
00007FF10000
0000BFB00000
0001FF600000
0005FF200000
000AFC000000
001EF7000000
005FF2000000
009FC0000000
00EF70000000
04FF30000000
09FD00000000
0DF900000000
2FF500000000
4FF542000000
1FFFF3000000
06ED50000000
ENDCHAR
STARTCHAR Nacute
ENCODING 323
SWIDTH 708 0
DWIDTH 17 0
BBX 19 24 0 0
BITMAP
00000000000000004100
0000000000000005FC00
000000000000000CFD00
000000000000009FE300
00000000000006E91000
00000000000000000000
00000005DE30001CE800
0000006FFF30002EFF50
000004FFFF000007FF80
00001DFBFD000005FF80
00008F99FD000006FF40
0001EE1AFD000008FE00
0008F80AFE00000DF800
001EF209FF00003FF200
006FB008FF20009F8000
00CF5007FF5001EE1000
02FF1004FF7008F70000
07FB0001FFB01ED00000
0CF70000DFE06F600000
1FF300008FF4DD000000
4FE000003FFDF5000000
7FB000000CFFE0000000
8F80000003FF90000000
3E500000005E60000000
ENDCHAR
STARTCHAR nacute
ENCODING 324
SWIDTH 561 0
DWIDTH 13 0
BBX 13 19 0 0
BITMAP
00000000005910
0000000000DF70
0000000005FF60
000000001DFC00
00000000AFB100
00000007D50000
00000000000000
003DE7004CEA00
002EFD05FFFF60
000CFB4FA5FF70
001FF8EA05FF40
005FECB00CFD00
00BFFD104FF600
02FFE300BFD000
08FF5001FF7000
0EFB0006FF2000
6FF40008FE2410
DFC00006FFFE10
8E400000AEC400
ENDCHAR
STARTCHAR Ncommaaccent
ENCODING 325
SWIDTH 708 0
DWIDTH 17 0
BBX 19 24 0 -6
BITMAP
00000005DE30001CE800
0000006FFF30002EFF50
000004FFFF000007FF80
00001DFBFD000005FF80
00008F99FD000006FF40
0001EE1AFD000008FE00
0008F80AFE00000DF800
001EF209FF00003FF200
006FB008FF20009F8000
00CF5007FF5001EE1000
02FF1004FF7008F70000
07FB0001FFB01ED00000
0CF70000DFE06F600000
1FF300008FF4DD000000
4FE000003FFDF5000000
7FB000000CFFE0000000
8F80000003FF90000000
3E500000005E60000000
00000000000000000000
000001BE500000000000
000002EFA00000000000
000000CF600000000000
000004FB000000000000
00000D80000000000000
ENDCHAR
STARTCHAR ncommaaccent
ENCODING 326
SWIDTH 561 0
DWIDTH 13 0
BBX 13 18 0 -6
BITMAP
003DE7004CEA00
002EFD05FFFF60
000CFB4FA5FF70
001FF8EA05FF40
005FECB00CFD00
00BFFD104FF600
02FFE300BFD000
08FF5001FF7000
0EFB0006FF2000
6FF40008FE2410
DFC00006FFFE10
8E400000AEC400
00000000000000
003DE300000000
004FF700000000
000FF300000000
007F8000000000
03D60000000000
ENDCHAR
STARTCHAR Ncaron
ENCODING 327
SWIDTH 708 0
DWIDTH 17 0
BBX 19 23 0 0
BITMAP
00000000001BD70007B0
000000000008FF53CFB0
000000000000CFEFD700
0000000000004EA40000
00000000000000000000
00000005DE30001CE800
0000006FFF30002EFF50
000004FFFF000007FF80
00001DFBFD000005FF80
00008F99FD000006FF40
0001EE1AFD000008FE00
0008F80AFE00000DF800
001EF209FF00003FF200
006FB008FF20009F8000
00CF5007FF5001EE1000
02FF1004FF7008F70000
07FB0001FFB01ED00000
0CF70000DFE06F600000
1FF300008FF4DD000000
4FE000003FFDF5000000
7FB000000CFFE0000000
8F80000003FF90000000
3E500000005E60000000
ENDCHAR
STARTCHAR ncaron
ENCODING 328
SWIDTH 561 0
DWIDTH 13 0
BBX 15 18 0 0
BITMAP
0000005B60001C40
0000004FF104EF40
0000000DF69FD400
00000009FFE71000
00000003B6000000
0000000000000000
003DE7004CEA0000
002EFD05FFFF6000
000CFB4FA5FF7000
001FF8EA05FF4000
005FECB00CFD0000
00BFFD104FF60000
02FFE300BFD00000
08FF5001FF700000
0EFB0006FF200000
6FF40008FE241000
DFC00006FFFE1000
8E400000AEC40000
ENDCHAR
STARTCHAR Eng
ENCODING 330
SWIDTH 698 0
DWIDTH 17 0
BBX 19 24 0 -6
BITMAP
00000007ED00003DD500
000000AFFE00004FFF20
000007FFFB00000AFF50
00003FDDF9000008FF50
0000BF5DF9000008FF20
0004FC0EF900000AFE00
000BF50EFA00000DFA00
003FD00DFB00001FF600
009F800CFD00005FE100
01EF200AFF1000AF9000
05FC0008FF4000EF3000
0BF70005FF8005FC0000
1FF30001FFC00BF50000
4FE00000CFF22FC00000
8FB000006FF88F400000
AF7000001EFEEB000000
BF50000005FFE2000000
5E20000003FF50000000
000000000CFA00000000
000000009FC100000000
00000008FD1000000000
0000009FD20000000000
00004CFB100000000000
0004EC60000000000000
ENDCHAR
STARTCHAR eng
ENCODING 331
SWIDTH 561 0
DWIDTH 13 0
BBX 13 18 0 -6
BITMAP
003DE7004CEA00
002EFD05FFFF70
000CFB4FA5FF70
001FF8EA02FF50
005FECB005FF10
00BFFD100AFC00
02FFE3001EF700
08FF50006FF100
0EFB0000CFA000
6FF40004FF4000
DFC0000CFC0000
8E40005FF50000
000000DFB00000
000007FF200000
00003FF6000000
0001DF90000000
002DFA00000000
00BD7000000000
ENDCHAR
STARTCHAR Omacron
ENCODING 332
SWIDTH 655 0
DWIDTH 16 0
BBX 16 22 1 0
BITMAP
00000000AFFFFFFE
00000004FFFFFFF7
0000000001111100
0000000000000000
000000039DFDA200
000001AFF969FE20
00001CFE4000AF90
0001CFF300007FE0
000AFF6000006FF1
004FFA0000007FF1
00DFF2000000AFF0
05FF90000000EFC0
0BFF20000004FF90
1FFC00000009FF40
4FF70000002FFD00
7FF30000009FF500
8FF0000002FFB000
8FE000000CFE2000
5FE000009FF50000
1EF40009FF600000
06FE77DFD4000000
004BEEC710000000
ENDCHAR
STARTCHAR omacron
ENCODING 333
SWIDTH 514 0
DWIDTH 12 0
BBX 14 16 0 0
BITMAP
000006EFFFFFF4
00000EFFFFFFA0
00000011111100
00000000000000
000006CEEA2000
0001BFE7AFC000
001CFE203FF500
009FF4002FF700
03FFA0004FF700
09FF30008FF400
0EFD0000DFE000
1FF90005FF9000
2FF7001DFE1000
0EF700AFF40000
07FD6BFE400000
007DFD91000000
ENDCHAR
STARTCHAR Obreve
ENCODING 334
SWIDTH 655 0
DWIDTH 16 0
BBX 17 24 1 0
BITMAP
000000000360000510
000000001EF0003F20
000000001FF826E700
0000000006FFFD5000
000000000013200000
000000000000000000
000000039DFDA20000
000001AFF969FE2000
00001CFE4000AF9000
0001CFF300007FE000
000AFF6000006FF100
004FFA0000007FF100
00DFF2000000AFF000
05FF90000000EFC000
0BFF20000004FF9000
1FFC00000009FF4000
4FF70000002FFD0000
7FF30000009FF50000
8FF0000002FFB00000
8FE000000CFE200000
5FE000009FF5000000
1EF40009FF60000000
06FE77DFD400000000
004BEEC71000000000
ENDCHAR
STARTCHAR obreve
ENCODING 335
SWIDTH 514 0
DWIDTH 12 0
BBX 14 18 0 0
BITMAP
0000004E300076
000000CF6002E5
000000AFC24E90
0000002DFFE700
00000000330000
00000000000000
000006CEEA2000
0001BFE7AFC000
001CFE203FF500
009FF4002FF700
03FFA0004FF700
09FF30008FF400
0EFD0000DFE000
1FF90005FF9000
2FF7001DFE1000
0EF700AFF40000
07FD6BFE400000
007DFD91000000
ENDCHAR
STARTCHAR Ohungarumlaut
ENCODING 336
SWIDTH 655 0
DWIDTH 16 0
BBX 17 24 1 0
BITMAP
000000000026001610
00000000009F506F90
0000000000DF30BF60
000000000AF706FB00
000000007D504E7000
000000000000000000
000000039DFDA20000
000001AFF969FE2000
00001CFE4000AF9000
0001CFF300007FE000
000AFF6000006FF100
004FFA0000007FF100
00DFF2000000AFF000
05FF90000000EFC000
0BFF20000004FF9000
1FFC00000009FF4000
4FF70000002FFD0000
7FF30000009FF50000
8FF0000002FFB00000
8FE000000CFE200000
5FE000009FF5000000
1EF40009FF60000000
06FE77DFD400000000
004BEEC71000000000
ENDCHAR
STARTCHAR ohungarumlaut
ENCODING 337
SWIDTH 514 0
DWIDTH 12 0
BBX 14 19 0 0
BITMAP
00000000940086
00000005FA02FD
0000000DF60AF9
0000007FB04FD1
000005FC12ED20
00002E800CA100
00000000000000
000006CEEA2000
0001BFE7AFC000
001CFE203FF500
009FF4002FF700
03FFA0004FF700
09FF30008FF400
0EFD0000DFE000
1FF90005FF9000
2FF7001DFE1000
0EF700AFF40000
07FD6BFE400000
007DFD91000000
ENDCHAR
STARTCHAR OE
ENCODING 338
SWIDTH 900 0
DWIDTH 22 0
BBX 23 18 2 0
BITMAP
000000029DFEB404ADFEC500
0000008FFA68FFDFFD86AF40
00001BFF50008FFF90004F90
0000BFF500009FF90000BF80
0008FF800002FFC0001BFF30
003FFC000007FF5002DFF900
00BFF4000009FF0004FFA000
03FFB0000009FE0000330000
09FF40000003FF3120000000
0DFD000000006FFFF8000000
2FF900000001AFFEA4000000
4FF50000001DFFA200000000
6FF2000000AFF80000000000
6FF1000006FFB00000100000
3FF200004FFF500007E00000
0DF60005EFFF50008FD00000
04FF76BFF9DFD77DFD300000
003BEFD93019DFEC61000000
ENDCHAR
STARTCHAR oe
ENCODING 339
SWIDTH 777 0
DWIDTH 19 0
BBX 18 12 1 0
BITMAP
000019DFC5005CEE80
0005EFA6EF6BFB6DF6
005FF900AFFFB009FA
02EFC0009FFE200CFB
0AFF3000BFF8005FF6
1FFB0001EFF205FFC0
6FF60005FFD6BFF910
8FF2000CFFFDB82000
9FF0006FFF60000000
7FF003EFFF90002C40
1EF97EFECFF76AFE20
02BEFC8118DFEC8200
ENDCHAR
STARTCHAR Racute
ENCODING 340
SWIDTH 623 0
DWIDTH 15 0
BBX 16 25 -1 -1
BITMAP
0000000000000320
0000000000001EF2
0000000000007FF3
000000000004FF70
00000000002EB400
0000000000000000
0000038BDFFDA400
0001BFFFA767CFA0
0004FF9200000CF7
0000442EC00008FD
000000BFE00008FF
000003FF90000DFD
000009FF30006FF8
00000EFD0005FFD1
00004FF8019FFC20
0000AFF9AFFF8000
0001EFEFFE820000
0006FF55FE300000
000CFD00BFD00000
004FF7004FF70000
00BFD0000CFE1000
05FF400005FFA000
3EF8000000AFFA62
7E700000001AFFC1
0000000000002300
ENDCHAR
STARTCHAR racute
ENCODING 341
SWIDTH 407 0
DWIDTH 10 0
BBX 12 19 0 0
BITMAP
000000000960
000000004FF1
00000000BFE1
00000005FF60
0000003EF600
000000DA2000
000000000000
006ED402BE80
005FF91DFFC0
000FF7BC8E60
002FF8C10000
006FDE200000
00BFF7000000
01FFC0000000
06FF50000000
0CFD00000000
3FF600000000
8FF100000000
4D9000000000
ENDCHAR
STARTCHAR Rcommaaccent
ENCODING 342
SWIDTH 623 0
DWIDTH 15 0
BBX 16 24 -1 -6
BITMAP
0000038BDFFDA400
0001BFFFA767CFA0
0004FF9200000CF7
0000442EC00008FD
000000BFE00008FF
000003FF90000DFD
000009FF30006FF8
00000EFD0005FFD1
00004FF8019FFC20
0000AFF9AFFF8000
0001EFEFFE820000
0006FF55FE300000
000CFD00BFD00000
004FF7004FF70000
00BFD0000CFE1000
05FF400005FFA000
3EF8000000AFFA62
7E700000001AFFC1
0000000000002300
0000AE8000000000
0001DFD000000000
00009F9000000000
0002ED1000000000
000BA10000000000
ENDCHAR
STARTCHAR rcommaaccent
ENCODING 343
SWIDTH 407 0
DWIDTH 10 0
BBX 13 18 -2 -6
BITMAP
00006ED402BE70
00005FF91DFFC0
00000FF6BC8E60
00003FF8C10000
00006FDE200000
0000BFF7000000
0001FFC0000000
0006FF50000000
000CFD00000000
003FF600000000
008FE100000000
004D8000000000
00000000000000
05ED2000000000
07FF5000000000
02FE1000000000
09F50000000000
5D400000000000
ENDCHAR
STARTCHAR Rcaron
ENCODING 344
SWIDTH 623 0
DWIDTH 15 0
BBX 17 24 -1 -1
BITMAP
000000008DB1003D20
000000003EFA19FE20
0000000007FFEE9200
0000000001CC610000
000000000000000000
0000038BDFFDA40000
0001BFFFA767CFA000
0004FF9200000CF700
0000442EC00008FD00
000000BFE00008FF00
000003FF90000DFD00
000009FF30006FF800
00000EFD0005FFD100
00004FF8019FFC2000
0000AFF9AFFF800000
0001EFEFFE82000000
0006FF55FE30000000
000CFD00BFD0000000
004FF7004FF7000000
00BFD0000CFE100000
05FF400005FFA00000
3EF8000000AFFA6200
7E700000001AFFC100
000000000000230000
ENDCHAR
STARTCHAR rcaron
ENCODING 345
SWIDTH 407 0
DWIDTH 10 0
BBX 13 18 0 0
BITMAP
00000AB20006C0
00000AFA009FC0
000005FD4DFA10
000001FFFB3000
00000089300000
00000000000000
006ED402BE8000
005FF91DFFC000
000FF7BC8E6000
002FF8C1000000
006FDE20000000
00BFF700000000
01FFC000000000
06FF5000000000
0CFD0000000000
3FF60000000000
8FF10000000000
4D900000000000
ENDCHAR
STARTCHAR Sacute
ENCODING 346
SWIDTH 474 0
DWIDTH 11 0
BBX 15 24 0 0
BITMAP
0000000000003200
000000000001EF20
000000000008FF30
00000000005FF700
0000000002EB3000
0000000000000000
0000006CEEB40000
00001BFC76CF4000
0000CFA0002FC000
0007FE10001FF100
000DF900005FF100
003FF70001DFE000
004FF8002CFF7000
004FFB006FFC0000
001FFF3006600000
000AFFC000000000
0002EFF800000000
00004FFF20000000
000007FF80000000
09D000DFA0000000
4FD0008F90000000
6FF100AF40000000
2EFC69F700000000
03BEEB4000000000
ENDCHAR
STARTCHAR sacute
ENCODING 347
SWIDTH 423 0
DWIDTH 10 0
BBX 12 19 0 0
BITMAP
000000000870
000000002FF4
000000008FF3
00000002FF80
0000001DF800
000000BB3000
000000000000
00018DFDA200
001CF96CFD00
007FD004FF20
00AFE004FB00
008FF7002000
002FFF300000
0008FFC00000
0000CFF50000
2A303FF90000
9F800EF70000
8FF8AFB10000
08DEC7100000
ENDCHAR
STARTCHAR Scircumflex
ENCODING 348
SWIDTH 474 0
DWIDTH 11 0
BBX 15 24 0 0
BITMAP
0000000000020000
00000000004EC000
0000000007FFF400
00000005CFABFD00
0000002EC502CF50
0000000000000000
0000006CEEB40000
00001BFC76CF4000
0000CFA0002FC000
0007FE10001FF100
000DF900005FF100
003FF70001DFE000
004FF8002CFF7000
004FFB006FFC0000
001FFF3006600000
000AFFC000000000
0002EFF800000000
00004FFF20000000
000007FF80000000
09D000DFA0000000
4FD0008F90000000
6FF100AF40000000
2EFC69F700000000
03BEEB4000000000
ENDCHAR
STARTCHAR scircumflex
ENCODING 349
SWIDTH 423 0
DWIDTH 10 0
BBX 12 19 0 0
BITMAP
000000000720
00000001BFB0
0000003DFFE0
000007FE4FF3
0003DFB20AFA
000174000165
000000000000
00018DFDA200
001CF96CFD00
007FD004FF20
00AFE004FB00
008FF7002000
002FFF300000
0008FFC00000
0000CFF50000
2A303FF90000
9F800EF70000
8FF8AFB10000
08DEC7100000
ENDCHAR
STARTCHAR Scedilla
ENCODING 350
SWIDTH 474 0
DWIDTH 11 0
BBX 14 24 0 -6
BITMAP
0000006CEEB400
00001BFC76CF50
0000CFA0002FD0
0007FE10001FF1
000EFA00005FF1
003FF70001DFD0
005FF7002DFF70
004FFB006FFA00
001FFF30054000
0009FFC0000000
0001DFF7000000
00003EFF100000
002006FF700000
0CE000CFA00000
5FD0008FA00000
6FF300CF500000
2EFEADF9000000
03CFFC50000000
000BC000000000
0009F300000000
001DF300000000
05DFE100000000
08FF5000000000
00420000000000
ENDCHAR
STARTCHAR scedilla
ENCODING 351
SWIDTH 423 0
DWIDTH 10 0
BBX 11 17 0 -5
BITMAP
00018DFDA200
001CF96CFD00
007FD004FF20
00AFE004FB00
008FF6002000
003FFE200000
0009FFC00000
0001DFF50000
3D404FF80000
AF800EF70000
6FF79FC10000
05EFD8100000
007E10000000
007F50000000
02EF60000000
6FFE10000000
3ED400000000
ENDCHAR
STARTCHAR Scaron
ENCODING 352
SWIDTH 474 0
DWIDTH 11 0
BBX 16 23 0 0
BITMAP
00000008DA1003D2
00000003FFA19FE2
000000008FFEE920
000000001DC61000
0000000000000000
0000006CEEB40000
00001BFC76CF4000
0000CFA0002FC000
0007FE10001FF100
000DF900005FF100
003FF70001DFE000
004FF8002CFF7000
004FFB006FFC0000
001FFF3006600000
000AFFC000000000
0002EFF800000000
00004FFF20000000
000007FF80000000
09D000DFA0000000
4FD0008F90000000
6FF100AF40000000
2EFC69F700000000
03BEEB4000000000
ENDCHAR
STARTCHAR scaron
ENCODING 353
SWIDTH 423 0
DWIDTH 10 0
BBX 14 18 0 0
BITMAP
000005B60001C4
000004FF104EF4
000000DF69FD40
0000009FFE7100
0000003B600000
00000000000000
00018DFDA20000
001CF96CFD0000
007FD004FF2000
00AFE004FB0000
008FF700200000
002FFF30000000
0008FFC0000000
0000CFF5000000
2A303FF9000000
9F800EF7000000
8FF8AFB1000000
08DEC710000000
ENDCHAR
STARTCHAR Tcommaaccent
ENCODING 354
SWIDTH 471 0
DWIDTH 11 0
BBX 15 24 1 -6
BITMAP
019EFDC964103C10
1CFFFFFFFFFFFD00
5FFB436FFDEEC300
5FC0008FF1000000
1A5000EFB0000000
000004FF70000000
000009FF20000000
00000EFD00000000
00003FF800000000
00008FF300000000
0000CFD000000000
0002FF8000000000
0007FF2000000000
000DFA0000000000
005FF30000000000
00DF900000000000
0AFC100000000000
5EA1000000000000
0000000000000000
07EB000000000000
0BFF100000000000
06FC000000000000
0CE3000000000000
8B20000000000000
ENDCHAR
STARTCHAR tcommaaccent
ENCODING 355
SWIDTH 358 0
DWIDTH 9 0
BBX 10 22 0 -6
BITMAP
0000036000
00001EF600
00008FF200
0001EFA000
03EFFFFFF4
003FFB5410
004FF40000
009FE00000
00DF900000
03FF400000
06FF000000
09FC000000
0BF9001100
0BFB15D500
08FFFFB000
01AED70000
0000000000
0AF9000000
0DFD000000
09F9000000
2ED1000000
BA10000000
ENDCHAR
STARTCHAR Tcaron
ENCODING 356
SWIDTH 471 0
DWIDTH 11 0
BBX 15 23 1 0
BITMAP
0000001BD70007B0
00000008FF54CFB0
00000000DFEFD700
000000005EA40000
0000000000000000
019EFDC964103C10
1CFFFFFFFFFFFD00
5FFB436FFDEEC300
5FC0008FF1000000
1A5000EFB0000000
000004FF70000000
000009FF20000000
00000EFD00000000
00003FF800000000
00008FF300000000
0000CFD000000000
0002FF8000000000
0007FF2000000000
000DFA0000000000
005FF30000000000
00DF900000000000
0AFC100000000000
5EA1000000000000
ENDCHAR
STARTCHAR tcaron
ENCODING 357
SWIDTH 497 0
DWIDTH 12 0
BBX 13 20 2 0
BITMAP
00000000005600
0000000005FF40
0000000003FF40
0000000002FE10
0000000007F700
0000AE303EA000
0006FF30560000
001EFA00000000
3EFFFFFE400000
04FFB541000000
05FF4000000000
09FE0000000000
0EF90000000000
3FF40000000000
7FE00000000000
9FB00000000000
BF900110000000
CFB15D40000000
8FFFFB00000000
1BED7000000000
ENDCHAR
STARTCHAR Tbar
ENCODING 358
SWIDTH 471 0
DWIDTH 11 0
BBX 15 18 1 0
BITMAP
019EFDC964103C10
1DFFFFFFFFFFFD00
5FFA436FFDEEC300
5FC0008FF1000000
084000EFB0000000
000005FF60000000
00000AFF10000000
00111EFC10000000
3EFFFFFFF5000000
1444CFF420000000
0000EFA000000000
0004FF5000000000
0009FE1000000000
000EF90000000000
006FF20000000000
01EF800000000000
1BFC000000000000
5EA1000000000000
ENDCHAR
STARTCHAR tbar
ENCODING 359
SWIDTH 358 0
DWIDTH 9 0
BBX 10 15 0 0
BITMAP
00000AE400
00006FF400
0001EFB000
03EFFFFFF4
003FFB5410
003FF50000
008FF21110
4EFFFFFFA0
26FF644300
06FE000000
09FB000000
0BF9001100
0BFB15D500
08FFFFB000
01AED70000
ENDCHAR
STARTCHAR Utilde
ENCODING 360
SWIDTH 624 0
DWIDTH 15 0
BBX 17 24 0 0
BITMAP
000000000020000100
000000003CFD200B40
00000001EFFFC17F20
00000009D26FFFF700
0000000A4007ED5000
000000000000000000
00004DFA0000009E50
00003EFF100003FF70
00000CFD00000BFE10
00001FF900003FF900
00007FF30000BFF300
0000DFC00004FFC000
0005FF50000CFF6000
000CFD00005FFF1000
003FF60000DFFB0000
00AFE10007FFF60000
01FF80001EFFF10000
07FF1000AECFB00000
0DFA0005F6EF700000
3FF5001EA2FF400000
6FF201CD15FF200000
8FF53CE206FF533000
5FFFFD2003FFFF6000
08EE9100008EE70000
ENDCHAR
STARTCHAR utilde
ENCODING 361
SWIDTH 553 0
DWIDTH 13 0
BBX 15 18 0 0
BITMAP
00000008ED300670
000000AFFFE34E50
000005F65FFFFB00
0000077005DE8000
0000000000000000
0000000000000000
002CFA00003EC100
001DFF1000CFD000
000BFD0006FF6000
001FF9001EFD0000
007FF3008FF70000
00DFC003FFE10000
05FF500CFF900000
0CFD009DCF400000
2FF607E4FF000000
6FF58F55FF350000
5FFFF605FFFD0000
0AEC4000BFC30000
ENDCHAR
STARTCHAR Umacron
ENCODING 362
SWIDTH 624 0
DWIDTH 15 0
BBX 17 22 0 0
BITMAP
00000003DFFFFFF900
00000009FFFFFFD300
000000000111110000
000000000000000000
00004DFA0000009E50
00003EFF100003FF70
00000CFD00000BFE10
00001FF900003FF900
00007FF30000BFF300
0000DFC00004FFC000
0005FF50000CFF6000
000CFD00005FFF1000
003FF60000DFFB0000
00AFE10007FFF60000
01FF80001EFFF10000
07FF1000AECFB00000
0DFA0005F6EF700000
3FF5001EA2FF400000
6FF201CD15FF200000
8FF53CE206FF533000
5FFFFD2003FFFF6000
08EE9100008EE70000
ENDCHAR
STARTCHAR umacron
ENCODING 363
SWIDTH 553 0
DWIDTH 13 0
BBX 14 16 0 0
BITMAP
000001CFFFFFFC
000007FFFFFFE4
00000001111100
00000000000000
002CFA00003EC1
001DFF1000CFD0
000BFD0006FF60
001FF9001EFD00
007FF3008FF700
00DFC003FFE100
05FF500CFF9000
0CFD009DCF4000
2FF607E4FF0000
6FF58F55FF3500
5FFFF605FFFD00
0AEC4000BFC300
ENDCHAR
STARTCHAR Ubreve
ENCODING 364
SWIDTH 624 0
DWIDTH 15 0
BBX 17 24 0 0
BITMAP
000000000530000500
000000005FA0008B00
000000006FE439E300
000000000BFFFB2000
000000000023100000
000000000000000000
00004DFA0000009E50
00003EFF100003FF70
00000CFD00000BFE10
00001FF900003FF900
00007FF30000BFF300
0000DFC00004FFC000
0005FF50000CFF6000
000CFD00005FFF1000
003FF60000DFFB0000
00AFE10007FFF60000
01FF80001EFFF10000
07FF1000AECFB00000
0DFA0005F6EF700000
3FF5001EA2FF400000
6FF201CD15FF200000
8FF53CE206FF533000
5FFFFD2003FFFF6000
08EE9100008EE70000
ENDCHAR
STARTCHAR ubreve
ENCODING 365
SWIDTH 553 0
DWIDTH 13 0
BBX 14 18 0 0
BITMAP
0000000BA0001C
0000004FD0009C
0000002FF729E3
00000007FFFB30
00000000132000
00000000000000
002CFA00003EC1
001DFF1000CFD0
000BFD0006FF60
001FF9001EFD00
007FF3008FF700
00DFC003FFE100
05FF500CFF9000
0CFD009DCF4000
2FF607E4FF0000
6FF58F55FF3500
5FFFF605FFFD00
0AEC4000BFC300
ENDCHAR
STARTCHAR Uring
ENCODING 366
SWIDTH 624 0
DWIDTH 15 0
BBX 17 24 0 0
BITMAP
000000000000100000
00000000007EFE5000
0000000009FA6FE000
000000002FE00EF200
000000005FB01FE000
000000004FD1AF8000
00004DFA0BFFF99E50
00003EFF103523FF70
00000CFD00000BFE10
00001FF900003FF900
00007FF30000BFF300
0000DFC00004FFC000
0005FF50000CFF6000
000CFD00005FFF1000
003FF60000DFFB0000
00AFE10007FFF60000
01FF80001EFFF10000
07FF1000AFCFB00000
0DFA0005F8DF700000
3FF5001EB2FF400000
6FF201CD15FF200000
8FF53CE306FF533000
5FFFFD3003FFFF6000
08EE9100008EE70000
ENDCHAR
STARTCHAR uring
ENCODING 367
SWIDTH 553 0
DWIDTH 13 0
BBX 14 19 0 0
BITMAP
000000006CED70
00000009FB6EF2
0000002FE00DF3
0000002FE27FC0
0000000AFFFB20
00000000242000
00000000000000
002CFA00003EC1
001DFF1000CFD0
000BFD0006FF60
001FF9001EFD00
007FF3008FF700
00DFC003FFE100
05FF500CFF9000
0CFD009DCF4000
2FF607E4FF0000
6FF58F55FF3500
5FFFF605FFFD00
0AEC4000BFC300
ENDCHAR
STARTCHAR Uhungarumlaut
ENCODING 368
SWIDTH 624 0
DWIDTH 15 0
BBX 17 24 0 0
BITMAP
000000000044003500
0000000000EF00BF30
0000000004FC02FF10
000000002DE31BF500
00000000CB209C4000
000000000000000000
00004DFA0000009E50
00003EFF100003FF70
00000CFD00000BFE10
00001FF900003FF900
00007FF30000BFF300
0000DFC00004FFC000
0005FF50000CFF6000
000CFD00005FFF1000
003FF60000DFFB0000
00AFE10007FFF60000
01FF80001EFFF10000
07FF1000AECFB00000
0DFA0005F6EF700000
3FF5001EA2FF400000
6FF201CD15FF200000
8FF53CE206FF533000
5FFFFD2003FFFF6000
08EE9100008EE70000
ENDCHAR
STARTCHAR uhungarumlaut
ENCODING 369
SWIDTH 553 0
DWIDTH 13 0
BBX 15 19 0 0
BITMAP
0000000059003A10
00000000CF209F60
00000005FD02FF20
0000001DF40BF700
000000CF609F9000
000008C405D60000
0000000000000000
002CFA00003EC100
001DFF1000CFD000
000BFD0006FF6000
001FF9001EFD0000
007FF3008FF70000
00DFC003FFE10000
05FF500CFF900000
0CFD009DCF400000
2FF607E4FF000000
6FF58F55FF350000
5FFFF605FFFD0000
0AEC4000BFC30000
ENDCHAR
STARTCHAR Uogonek
ENCODING 370
SWIDTH 684 0
DWIDTH 16 0
BBX 17 24 1 -6
BITMAP
00007EE6000000CD20
00007FFC000007FF30
00001FF900001EFB00
00005FF500008FF400
0000BFE00001EFD000
0003FF800008FF7000
0009FF10002FFF2000
001FF900009FFC0000
008FF20003FFF60000
00EFA0000BFFF10000
05FF30005FFFC00000
0BFC0001DCEF700000
2FF60009F6FF300000
7FF1004F67FE000000
AFD003EA09FD000000
CFE26EB00AFE242000
9FFFFB1007FFFF2000
1BFD600001BFE40000
0000000002CD200000
000000001DF2000000
000000009F90000000
00000000EF94200000
00000000BFFC100000
000000000320000000
ENDCHAR
STARTCHAR uogonek
ENCODING 371
SWIDTH 553 0
DWIDTH 13 0
BBX 14 18 0 -6
BITMAP
002CFA00003EC1
001DFF1000CFD0
000BFD0006FF60
001FF9001EFD00
007FF3008FF700
00DFC003FFE100
05FF500CFF9000
0CFD009DCF4000
2FF607E4FF0000
6FF58F55FF3500
5FFFF605FFFD00
0AEC4001BFE300
00000001CD2000
0000001CF30000
0000008FA00000
000000DFA33000
000000AFFC2000
00000003200000
ENDCHAR
STARTCHAR Wcircumflex
ENCODING 372
SWIDTH 941 0
DWIDTH 23 0
BBX 23 24 1 0
BITMAP
000000000000000200000000
000000000000006FA0000000
00000000000019FFF2000000
000000000006DF8CFB000000
00000000004EB303DF300000
000000000000000000000000
017CEE60000000000004DE30
0DFFFFF500000000000BFF90
09E94AFB000000000006FFD0
00002FF9000002410002FFE0
0000BFF300006EF90000FFD0
0003FFC00009FFD10000FFC0
000BFF4000AFFF300001FF90
003FFB0009FFF9000004FF50
00AFF4007FFFF2000008FF10
01FFC005FEEFB000000DF900
06FF502EE5FF6000004FF200
0BFD00CF56FF300000CF9000
1FF807F809FE000005FE1000
3FF42EB00AFC00001EF40000
4FF1BE100AFB0000BF600000
4FF6F40008FC001BF7000000
0EFE800003FF87DE40000000
04EC0000006DFC7100000000
ENDCHAR
STARTCHAR wcircumflex
ENCODING 373
SWIDTH 750 0
DWIDTH 18 0
BBX 18 19 0 0
BITMAP
000000000000630000
000000000009FE0000
0000000001BFFF2000
000000005EF6CF6000
0000001CFC307FD000
000000065000066000
000000000000000000
005EE8000000005ED2
004EFF0004EE105FF8
000AFC000CFD000EFA
000DF8006FF6000CF9
003FF201DFE0000DF6
009FB009FF70001FF1
01EF504FFF20006FA0
05FE02ECFE0000DE20
0BF91CB6FC0008F600
0FF8DC15FF208F8000
2FFFC102FFEEF70000
0AE800006DEB400000
ENDCHAR
STARTCHAR Ycircumflex
ENCODING 374
SWIDTH 580 0
DWIDTH 14 0
BBX 17 30 0 -6
BITMAP
000000000002A20000
00000000004EFB0000
0000000018FDFF3000
00000006EF91BFC000
000000027200166000
000000000000000000
00005DF9000000AE40
00004FFF000004FF60
00000DFC00000CFD00
00002FF800005FF700
00008FF20000CFF100
0001EFB00005FFA000
0006FF40000DFF4000
000DFC00006FFE0000
004FF50001EFF80000
00BFD00008FFF30000
02FF60002FFFC00000
08FE1000BEEF700000
0EF90006F9FF100000
4FF4002EA9FA000000
7FF101DC2FF4000000
9FF44DD29FC0000000
6FFFFD22FF40000000
09EE810AFB00000000
0000005FE200000000
000002EF6000000000
00001DF90000000000
0002DFA00000000000
017EF9000000000000
09EB40000000000000
ENDCHAR
STARTCHAR ycircumflex
ENCODING 375
SWIDTH 549 0
DWIDTH 13 0
BBX 14 26 0 -7
BITMAP
00000000007200
000000000AFD00
00000002CFFF10
0000006EE5EF50
00002DFC208FB0
00000640000660
00000000000000
001BFC10002DC1
001CFF3000AFE1
0009FF1003FFA0
000EFA000CFF40
005FF5005FFE00
00CFD001DFF900
04FF7009FFF300
0AFE106FBFD000
1FF804F6DF7000
4FF66F93FF2000
3FFFFA08FB0000
09ED601EF40000
0000006FC00000
000001EF400000
00000AFA000000
00009FD1000000
002AFE20000000
05FFC200000000
01640000000000
ENDCHAR
STARTCHAR Ydieresis
ENCODING 376
SWIDTH 580 0
DWIDTH 14 0
BBX 17 29 0 -6
BITMAP
00000005EE501CFA00
0000000DFFA07FFF10
0000000AFF504FFB00
000000016400046000
000000000000000000
00005DF9000000AE40
00004FFF000004FF60
00000DFC00000CFD00
00002FF800005FF700
00008FF20000CFF100
0001EFB00005FFA000
0006FF40000DFF4000
000DFC00006FFE0000
004FF50001EFF80000
00BFD00008FFF30000
02FF60002FFFC00000
08FE1000BEEF700000
0EF90006F9FF100000
4FF4002EA9FA000000
7FF101DC2FF4000000
9FF44DD29FC0000000
6FFFFD22FF40000000
09EE810AFB00000000
0000005FE200000000
000002EF6000000000
00001DF90000000000
0002DFA00000000000
017EF9000000000000
09EB40000000000000
ENDCHAR
STARTCHAR Zacute
ENCODING 377
SWIDTH 501 0
DWIDTH 12 0
BBX 16 24 -1 0
BITMAP
0000000000002200
000000000000EF30
000000000006FF40
00000000004FF800
0000000001EB4000
0000000000000000
0000D943347ADE60
0000CFFFFFFECFF3
00004CFFC842DFF2
00000000001DFF80
0000000001CFFA00
000000001CFFB000
00000000BFFC1000
0000000AFFC10000
0000009FFC100000
000007FFC1000000
00005FFC10000000
0003FFC100000000
001DFD1000000000
00BFE20000000000
07FF300012100000
1EF748BEFFF60000
4FFEFFFFFFFF1000
0CEB8421026D3000
ENDCHAR
STARTCHAR zacute
ENCODING 378
SWIDTH 430 0
DWIDTH 10 0
BBX 12 19 0 0
BITMAP
000000000591
000000000CF8
000000004FF7
00000000CFC1
0000000AFB10
0000006D6000
000000000000
002EA6447D90
001EFFFFEFF0
00015536FF90
0000007FFB00
00000AFF9000
0001BFF80000
001CFE500000
01CFE3000000
0BFE20000000
6FF668960000
CFFFFFFF8000
6EB6336BA000
ENDCHAR
STARTCHAR Zdotaccent
ENCODING 379
SWIDTH 501 0
DWIDTH 12 0
BBX 16 23 -1 0
BITMAP
000000002CE80000
000000009FFD0000
000000006FF90000
0000000005500000
0000000000000000
0000D943347ADE60
0000CFFFFFFECFF3
00004CFFC842DFF2
00000000001DFF80
0000000001CFFA00
000000001CFFB000
00000000BFFB1000
0000000AFFB10000
0000009FFB100000
000007FFC1000000
00005FFC10000000
0003FFC100000000
001DFD1000000000
00BFD20000000000
07FF300034200000
1EF759CFFFF70000
4FFEFFFFFFFF1000
0CEB8421026D3000
ENDCHAR
STARTCHAR zdotaccent
ENCODING 380
SWIDTH 430 0
DWIDTH 10 0
BBX 11 18 0 0
BITMAP
0000008ED200
000002FFF600
000000DFE200
000000262000
000000000000
000000000000
002EA6447D90
001EFFFFEFF0
00015536FF90
0000007FFB00
00000AFF9000
0001BFF80000
001CFE500000
01CFE3000000
0BFE20000000
6FF668960000
CFFFFFFF8000
6EB6336BA000
ENDCHAR
STARTCHAR Zcaron
ENCODING 381
SWIDTH 501 0
DWIDTH 12 0
BBX 16 23 -1 0
BITMAP
00000007DB2003D3
00000002EFB18FF3
000000006FFEFA20
000000001CC61000
0000000000000000
0000D943347ADE60
0000CFFFFFFECFF3
00004CFFC842DFF2
00000000001DFF80
0000000001CFFA00
000000001CFFB000
00000000BFFC1000
0000000AFFC10000
0000009FFC100000
000007FFC1000000
00005FFC10000000
0003FFC100000000
001DFD1000000000
00BFE20000000000
07FF300012100000
1EF748BEFFF60000
4FFEFFFFFFFF1000
0CEB8421026D3000
ENDCHAR
STARTCHAR zcaron
ENCODING 382
SWIDTH 430 0
DWIDTH 10 0
BBX 13 18 0 0
BITMAP
00002B90000890
00000DF701BF90
000008FB6EF800
000003FFFA2000
000000A8200000
00000000000000
002EA6447D9000
001EFFFFEFF000
00015536FF9000
0000007FFB0000
00000AFF900000
0001BFF8000000
001CFE50000000
01CFE300000000
0BFE2000000000
6FF66896000000
CFFFFFFF800000
6EB6336BA00000
ENDCHAR
STARTCHAR florin
ENCODING 402
SWIDTH 466 0
DWIDTH 11 0
BBX 19 27 -5 -6
BITMAP
00000000000000001000
000000000000008EFA10
0000000000000BFB5C90
0000000000007FC109E0
000000000002FF301EF0
000000000009FA00BFE0
00000000001FF408FF70
00000000007FE007FC10
0000000000DF90001000
0000000003FF62000000
000000004CFFFFD30000
0000000BFFFFFFF70000
0000001DDFF710000000
000000007FF200000000
00000000BFD000000000
00000000EF9000000000
00000003FF5000000000
00000007FF1000000000
0000000AFC0000000000
0000000EF80000000000
0000004FF30000000000
0000009FD00000000000
000000EF700000000000
0A9005FE100000000000
6FD01DF8000000000000
5FF8CFC0000000000000
05CEE910000000000000
ENDCHAR
STARTCHAR AEacute
ENCODING 508
SWIDTH 878 0
DWIDTH 21 0
BBX 25 24 -2 0
BITMAP
00000000000000000002300000
0000000000000000000EF30000
0000000000000000006FF40000
000000000000000004FF800000
00000000000000001EB4000000
00000000000000000000000000
00000000000005CEE98DEED800
000000000001AFFFFFFE967F80
00000000001CFE68FFC2000ED0
0000000000AFD13FFC10007FD0
0000000008FD10CFF20007FF80
000000004FF303FF9000BFFD10
00000001DF6005FF4001EFD200
00000009FB0004FF3000240000
0000004FE21223EF7020000000
000002DFEDFFFFFFFEFC000000
00009FFFFFFFFFFFFFA6000000
00009FF300000AFFC200000000
0000CF9000006FFB0000000000
0007FE100000DFE10000300000
002EF6000002FF900005F40000
00BFC0000001FFA0007FF20000
3BFE200000008FFA8DFE500000
8EC30000000006CEEC82000000
ENDCHAR
STARTCHAR aeacute
ENCODING 509
SWIDTH 770 0
DWIDTH 19 0
BBX 19 19 0 0
BITMAP
00000000000087000000
000000000002FF300000
000000000009FF200000
00000000003FF7000000
0000000002DF70000000
000000000CB300000000
00000000000000000000
000004BED65EBAEEB200
00009FE78FFFFB6DFC00
000AFD200DFFB009FF10
007FE3000EFF200CFF10
02FF80005FF9005FFC00
09FF1000BFF205FFE300
0EFB0002FFD5BFFD3000
2FF8000AFFFEDA500000
2FF7004FFFC000000000
1FF802E9BFE000089000
0AFD6DB04FFA68DF7000
01AFD70004CEFDA40000
ENDCHAR
STARTCHAR Scommaaccent
ENCODING 536
SWIDTH 474 0
DWIDTH 11 0
BBX 14 24 0 -6
BITMAP
0000006CEEB400
00001BFC76CF40
0000CFA0002FC0
0007FE10001FF1
000DF900005FF1
003FF70001DFE0
004FF8002CFF70
004FFB006FFC00
001FFF30066000
000AFFC0000000
0002EFF8000000
00004FFF200000
000007FF800000
09D000DFA00000
4FD0008F900000
6FF100AF400000
2EFC69F7000000
03BEEB40000000
00000000000000
007EC100000000
009FF300000000
004FD000000000
00BF4000000000
07C30000000000
ENDCHAR
STARTCHAR scommaaccent
ENCODING 537
SWIDTH 423 0
DWIDTH 10 0
BBX 11 18 0 -6
BITMAP
00018DFDA200
001CF96CFD00
007FD004FF20
00AFE004FB00
008FF7002000
002FFF300000
0008FFC00000
0000CFF50000
2A303FF90000
9F800EF70000
8FF8AFB10000
08DEC7100000
000000000000
04ED20000000
06FF50000000
01FF20000000
08F600000000
4D5000000000
ENDCHAR
STARTCHAR dotlessj
ENCODING 567
SWIDTH 277 0
DWIDTH 7 0
BBX 11 18 -5 -6
BITMAP
00000006EF80
00000005FFB0
00000001FFA0
00000002FF70
00000005FF40
00000008FF10
0000000DFB00
0000003FF600
0000007FF100
000000CFA000
000004FF4000
00000BFC0000
00002FF50000
0000AFB00000
0005FE200000
002EF5000000
04DF50000000
1EB300000000
ENDCHAR
STARTCHAR circumflex
ENCODING 710
SWIDTH 354 0
DWIDTH 9 0
BBX 9 5 0 13
BITMAP
000009E300
0001AFF700
003DFCFB00
29FE43FF10
9E91009F60
ENDCHAR
STARTCHAR caron
ENCODING 711
SWIDTH 381 0
DWIDTH 9 0
BBX 9 5 1 13
BITMAP
9B30004D10
8FC008FD00
2FF4CFA200
0DFFB40000
0693000000
ENDCHAR
STARTCHAR breve
ENCODING 728
SWIDTH 344 0
DWIDTH 8 0
BBX 8 5 1 13
BITMAP
6E100094
EF4004F3
CFB26E70
3DFFD600
01330000
ENDCHAR
STARTCHAR dotaccent
ENCODING 729
SWIDTH 217 0
DWIDTH 5 0
BBX 5 4 1 14
BITMAP
1BFB10
5FFF30
2FFC00
036100
ENDCHAR
STARTCHAR ring
ENCODING 730
SWIDTH 402 0
DWIDTH 10 0
BBX 7 7 3 12
BITMAP
02AEE900
2EE7BF70
9F706F90
CF308F80
BF74EE10
3EFFD300
01330000
ENDCHAR
STARTCHAR ogonek
ENCODING 731
SWIDTH 311 0
DWIDTH 7 0
BBX 6 8 1 -6
BITMAP
000178
003DB1
04FB00
2FE100
AF9000
EFA430
AFFC20
032000
ENDCHAR
STARTCHAR tilde
ENCODING 732
SWIDTH 397 0
DWIDTH 10 0
BBX 10 4 1 14
BITMAP
008ED30067
0AFFFE34E6
5F65FFFFB0
77005DE800
ENDCHAR
STARTCHAR hungarumlaut
ENCODING 733
SWIDTH 392 0
DWIDTH 9 0
BBX 10 6 0 13
BITMAP
0002A20094
0008F605FA
002FF30DF6
00AF807FB0
08F905FC10
4D602E8000
ENDCHAR
STARTCHAR pi
ENCODING 960
SWIDTH 640 0
DWIDTH 15 0
BBX 17 12 -1 0
BITMAP
00029EFFFFFFFFFF80
002EFFFFFFFFFFFE20
002520BF345DFC5100
000002FA002FF50000
000009F4008FE00000
00001FD000DF900000
00009F8003FF400000
0003FF2007FF100000
001DFA000AFC000000
02CFF2000BFC240000
3EFF700009FFFB0000
1CE7000002CEB10000
ENDCHAR
STARTCHAR uni1E02
ENCODING 7682
SWIDTH 551 0
DWIDTH 13 0
BBX 14 23 1 0
BITMAP
00000001BFA000
00000007FFF100
00000004FFB000
00000000460000
00000000000000
00159CEFFDA400
06EFFD9668EF70
0CFC5100005FF2
0131DE50002FF5
0008FF80004FF6
002FFE10009FF2
00AFF50005FFA0
01FFC0007FFC10
07FF537DFFB100
0DFFFFFFF50000
2FFC856CFC1000
6FE00001EF7000
AFA00000CFA000
CF600001EF8000
DF400008FF2000
CF50019FF70000
7FE89DFE600000
08DFEB61000000
ENDCHAR
STARTCHAR uni1E03
ENCODING 7683
SWIDTH 525 0
DWIDTH 13 0
BBX 13 20 1 0
BITMAP
00005400000000
0001FF30000000
0004FF300AFC10
0007FF104FFF40
000BFB002EFD10
000EF700036100
004FF200000000
009FC000000000
00DF64BFD60000
03FF6F89FF3000
08FDE501FF9000
0DFF7001FFB000
3FFC0002FFA000
8FF30005FF8000
CFB00009FF3000
EF60001EFB0000
FF2000AFF30000
DF2019FF600000
7FC9DFE4000000
07DFD810000000
ENDCHAR
STARTCHAR uni1E0A
ENCODING 7690
SWIDTH 630 0
DWIDTH 15 0
BBX 15 23 1 0
BITMAP
000000007ED30000
00000000FFF80000
00000000CFF30000
0000000016300000
0000000000000000
0048BDEFEB720000
07FFFC8669FF7000
02CD4000003EF700
00004A810007FF10
0001EFF20002FF60
0007FF800001FF80
001EFE100001FF70
007FF7000004FF60
00DFE1000008FF20
04FF9000001EFD00
0AFF3000008FF600
0EFC000002FFC000
4FF700001DFE3000
8FF20001BFF50000
BFD0001CFF600000
DFA004DFE4000000
9FC7BFFA20000000
08DEC82000000000
ENDCHAR
STARTCHAR uni1E0B
ENCODING 7691
SWIDTH 557 0
DWIDTH 13 0
BBX 15 20 1 0
BITMAP
0000000000003710
000000000001EF70
0002CE900007FF20
0008FFF0000DFA00
0005FFA0004FF500
00004500009FE000
0000000000EF8000
0000000004FF3000
00002AEE99FD0000
0005EF96EFF80000
006FF4008FF30000
03FF6000BFD00000
0DFC0001FF900000
5FF50005FF400000
BFE0000DFF100000
EFB0006FFB000000
FFA001DFF8000000
EFA00AACF9240000
9FE6BC1AFFF90000
1AEE8102CE910000
ENDCHAR
STARTCHAR uni1E1E
ENCODING 7710
SWIDTH 518 0
DWIDTH 12 0
BBX 15 23 0 0
BITMAP
0000000003DE7000
000000000AFFC000
0000000007FF7000
0000000000650000
0000000000000000
003BEEDB863104B0
03EFFFFFFFFFFF90
09FF8439FDCEEA10
09F8001EF6000000
0192007FF1000000
000000DFB0000000
000004FF60000000
000009FF20000000
00001EFFDFD40000
0008EFFFFFFC0000
001BEFF532210000
0001EFC000000000
0006FF6000000000
000DFD0000000000
005FF60000000000
01DFB00000000000
0BFD200000000000
2EB2000000000000
ENDCHAR
STARTCHAR uni1E1F
ENCODING 7711
SWIDTH 393 0
DWIDTH 9 0
BBX 14 27 -1 -3
BITMAP
00000000175000
00000000DFF600
00000000FFF600
000000007EA000
000000002BFE91
00000002EF69F9
0000000BF905FD
0000004FF20CFC
0000009FC07FF6
000000EF702A80
000004FF300000
000008FE000000
00000CF9210000
00016FFFFFB000
005EFFFFFFF200
007AEFB1000000
0001FF70000000
0005FF30000000
000AFD00000000
000EF900000000
004FF500000000
009FE100000000
00EFA000000000
05FF5000000000
0BFD0000000000
3FF70000000000
5EA00000000000
ENDCHAR
STARTCHAR uni1E40
ENCODING 7744
SWIDTH 931 0
DWIDTH 22 0
BBX 26 23 -3 0
BITMAP
00000000000000000009FC1000
0000000000000000003FFF4000
0000000000000000001EFD1000
00000000000000000003610000
00000000000000000000000000
00000000000007DE7000007DE4
000000000002CEFF90001BFFF5
00000000001DD7FF3000BF9FE1
0000000000CE2BFC0008F7BFA0
0000000008F62FF7004FC2FF50
000000003FC07FF200DF37FE00
00000000CF30CFC007F90DFA00
00000006FA01FF801EE13FF500
0000001EF205FF408F708FE100
0000008F9008FF01EE10DFA000
000002EE100BFC08F602FF6000
00000AF8000EF91ED006FF2000
00004FE1001FF78F6009FE0000
0000DF60002FF7ED000CFB0000
0008FC00002FFDF5000DF90000
005FF300002FFFB0000DFC2420
17FF7000000FFE200009FFFF30
5ED600000008E4000001BFD600
ENDCHAR
STARTCHAR uni1E41
ENCODING 7745
SWIDTH 814 0
DWIDTH 20 0
BBX 19 18 0 0
BITMAP
00000000003DE7000000
0000000000AFFD000000
00000000007FF8000000
00000000000550000000
00000000000000000000
00000000000000000000
003DE8004CE8002AEB10
002EFE05FFFF12DFFF80
000CFC3EC4EF1DC4FF90
001FF7DB11FBAC13FF50
005FECC107FDE20BFD00
00BFFD100DFF503FF600
02FFE3006FF900AFE000
08FF5000DFD001FF8000
0EFB0005FF5004FF2000
6FF4000CFC0006FF2510
DFC0002FF60005FFFE10
8E40001CC000009EC300
ENDCHAR
STARTCHAR uni1E56
ENCODING 7766
SWIDTH 553 0
DWIDTH 13 0
BBX 16 23 -1 0
BITMAP
00000000000AFB10
00000000004FFF40
00000000002EFD10
0000000000036100
0000000000000000
0000049CEFED9400
0002CFFFB767DF90
0006FF9200001EF7
0000634E90000AFC
000000DFC0000BFD
000005FF60002FFA
00000BFF1000BFF4
00001FFA001AFF90
00007FF504DFF900
0000CFF9DFFD5000
0002FFFED9400000
0008FF2000000000
000EFB0000000000
006FF40000000000
00DFB00000000000
07FE200000000000
5FF5000000000000
AD50000000000000
ENDCHAR
STARTCHAR uni1E57
ENCODING 7767
SWIDTH 550 0
DWIDTH 13 0
BBX 15 24 -2 -6
BITMAP
0000000009EC2000
000000003FFF5000
000000001EFE1000
0000000002620000
0000000000000000
0000000000000000
00009EC207DEB200
00008FF6BE7BFC00
00004FFDD205FF30
00007FFF3005FF40
0000AFF70006FF40
0000EFD0000AFF10
0003FF60001EFA00
0008FF10008FF400
000CFD0003FF9000
001FFD003DFC1000
006FFFBAFFA10000
00AFB6DFB5000000
01EF700000000000
05FF200000000000
0AFC000000000000
2FF7000000000000
8FE1000000000000
6E60000000000000
ENDCHAR
STARTCHAR uni1E60
ENCODING 7776
SWIDTH 474 0
DWIDTH 11 0
BBX 14 23 0 0
BITMAP
000000003DE700
00000000AFFC00
000000007FF700
00000000065000
00000000000000
0000006CEEB400
00001BFC76CF40
0000CFA0002FC0
0007FE10001FF1
000DF900005FF1
003FF70001DFE0
004FF8002CFF70
004FFB006FFC00
001FFF30066000
000AFFC0000000
0002EFF8000000
00004FFF200000
000007FF800000
09D000DFA00000
4FD0008F900000
6FF100AF400000
2EFC69F7000000
03BEEB40000000
ENDCHAR
STARTCHAR uni1E61
ENCODING 7777
SWIDTH 423 0
DWIDTH 10 0
BBX 11 18 0 0
BITMAP
0000002CFA00
0000007FFF10
0000004FFB00
000000046000
000000000000
000000000000
00018DFDA200
001CF96CFD00
007FD004FF20
00AFE004FB00
008FF7002000
002FFF300000
0008FFC00000
0000CFF50000
2A303FF90000
9F800EF70000
8FF8AFB10000
08DEC7100000
ENDCHAR
STARTCHAR uni1E6A
ENCODING 7786
SWIDTH 430 0
DWIDTH 10 0
BBX 14 23 1 0
BITMAP
00000003DE7000
00000009FFD000
00000006FF8000
00000000550000
00000000000000
05CFEDA7520187
7FFFFFFFFFFFF4
EFE633CFEDEE70
EF3002FF700000
5A0007FF200000
00000DFD000000
00003FF8000000
00007FF4000000
0000CFE0000000
0002FFA0000000
0006FF50000000
000BFE00000000
001FF800000000
007FF200000000
00DF9000000000
07FE2000000000
5FF50000000000
DD500000000000
ENDCHAR
STARTCHAR uni1E6B
ENCODING 7787
SWIDTH 358 0
DWIDTH 9 0
BBX 9 19 1 0
BITMAP
000004DE60
00000CFFB0
000009FF60
0000048400
00005FE000
0000DFB000
0006FF4000
08FFFFFFC0
018FF74300
00AFD00000
01EF800000
04FF300000
09FD000000
0CF9000000
0FF5000000
2FF3002000
2FF528D000
0EFFFF6000
04DEB40000
ENDCHAR
STARTCHAR Wgrave
ENCODING 7808
SWIDTH 941 0
DWIDTH 23 0
BBX 23 24 1 0
BITMAP
000000000000260000000000
000000000001EF3000000000
000000000003FF9000000000
000000000000AFF400000000
00000000000006CD00000000
000000000000000000000000
017CEE60000000000004DE30
0DFFFFF600000000000BFF90
08D94AFB000000000006FFD0
00002FF9000002510002FFE0
0000BFF300007FF80000FFD0
0003FFB0000AFFC10000FFC0
000BFF3001BFFE200001FF90
003FFA000BFFF8000004FF50
00AFF300AFFFF1000009FF10
01FFA007FDEFA000000EF900
06FF403FE5FF5000006FF200
0BFC01DF46FF200001DF9000
1FF709F709FE000008FE1000
3FF34FB00AFC00003FF40000
4FF1DD100AFB0002EF600000
4FF9F40008FD004EF7000000
0EFF800003FFCCFE40000000
04EB0000006DFC7100000000
ENDCHAR
STARTCHAR wgrave
ENCODING 7809
SWIDTH 750 0
DWIDTH 18 0
BBX 18 19 0 0
BITMAP
0000000006E9000000
000000000FFA000000
000000000EF9000000
0000000009FA000000
0000000002ED000000
00000000003D300000
000000000000000000
005EE8000000005ED2
004EFF0004EE105FF8
000AFC000CFD000EFA
000DF8006FF6000CF9
003FF201DFE0000DF6
009FB009FF70001FF1
01EF504FFF20006FA0
05FE02ECFE0000DE20
0BF91CB6FC0008F600
0FF8DC15FF208F8000
2FFFC102FFEEF70000
0AE800006DEB400000
ENDCHAR
STARTCHAR Wacute
ENCODING 7810
SWIDTH 941 0
DWIDTH 23 0
BBX 23 24 1 0
BITMAP
000000000000000031000000
0000000000000002FE100000
000000000000000AFF100000
000000000000007FF5000000
00000000000004EA20000000
000000000000000000000000
017CEE60000000000004DE30
0DFFFFF500000000000BFF90
09E94AFB000000000006FFD0
00002FF9000002410002FFE0
0000BFF300006EF90000FFD0
0003FFC00009FFD10000FFC0
000BFF4000AFFF300001FF90
003FFB0009FFF9000004FF50
00AFF4007FFFF2000008FF10
01FFC005FEEFB000000DF900
06FF502EE5FF6000004FF200
0BFD00CF56FF300000CF9000
1FF807F809FE000005FE1000
3FF42EB00AFC00001EF40000
4FF1BE100AFB0000BF600000
4FF6F40008FC001BF7000000
0EFE800003FF87DE40000000
04EC0000006DFC7100000000
ENDCHAR
STARTCHAR wacute
ENCODING 7811
SWIDTH 750 0
DWIDTH 18 0
BBX 18 19 0 0
BITMAP
000000000002A40000
000000000007FD0000
00000000000DFC0000
00000000008FE30000
0000000005FE300000
000000002E81000000
000000000000000000
005EE8000000005ED2
004EFF0004EE105FF8
000AFC000CFD000EFA
000DF8006FF6000CF9
003FF201DFE0000DF6
009FB009FF70001FF1
01EF504FFF20006FA0
05FE02ECFE0000DE20
0BF91CB6FC0008F600
0FF8DC15FF208F8000
2FFFC102FFEEF70000
0AE800006DEB400000
ENDCHAR
STARTCHAR Wdieresis
ENCODING 7812
SWIDTH 941 0
DWIDTH 23 0
BBX 23 23 1 0
BITMAP
00000000003DE700AFB10000
0000000000AFFD04FFF40000
00000000007FF801EFD10000
000000000005500036100000
000000000000000000000000
017CEE60000000000004DE30
0DFFFFF600000000000BFF90
08D94AFB000000000006FFD0
00002FF9000002510002FFE0
0000BFF300007FF80000FFD0
0003FFB0000AFFC10000FFC0
000BFF3001BFFE200001FF90
003FFA000BFFF8000004FF50
00AFF300AFFFF1000009FF10
01FFA007FDEFA000000EF900
06FF403FE5FF5000006FF200
0BFC01DF46FF200001DF9000
1FF709F709FE000008FE1000
3FF34FB00AFC00003FF40000
4FF1DD100AFB0002EF600000
4FF9F40008FD004EF7000000
0EFF800003FFCCFE40000000
04EB0000006DFC7100000000
ENDCHAR
STARTCHAR wdieresis
ENCODING 7813
SWIDTH 750 0
DWIDTH 18 0
BBX 18 18 0 0
BITMAP
00000007ED303DE800
0000000FFF809FFD00
0000000CFF306FF800
000000016300055000
000000000000000000
000000000000000000
005EE8000000005ED2
004EFF0004EE105FF8
000AFC000CFD000EFA
000DF8006FF6000CF9
003FF201DFE0000DF6
009FB009FF70001FF1
01EF504FFF20006FA0
05FE02ECFE0000DE20
0BF91CB6FC0008F600
0FF8DC15FF208F8000
2FFFC102FFEEF70000
0AE800006DEB400000
ENDCHAR
STARTCHAR Ygrave
ENCODING 7922
SWIDTH 580 0
DWIDTH 14 0
BBX 17 30 0 -6
BITMAP
000000000450000000
000000004FE1000000
000000005FF8000000
0000000007FF600000
000000000016500000
000000000000000000
00005DF9000000AE40
00004FFF000004FF60
00000DFC00000CFD00
00002FF800005FF700
00008FF20000CFF100
0001EFB00005FFA000
0006FF40000DFF4000
000DFC00006FFE0000
004FF50001EFF80000
00BFD00008FFF30000
02FF60002FFFC00000
08FE1000BEEF700000
0EF90006F9FF100000
4FF4002EA9FA000000
7FF101DC2FF4000000
9FF44DD29FC0000000
6FFFFD22FF40000000
09EE810AFB00000000
0000005FE200000000
000002EF6000000000
00001DF90000000000
0002DFA00000000000
017EF9000000000000
09EB40000000000000
ENDCHAR
STARTCHAR ygrave
ENCODING 7923
SWIDTH 549 0
DWIDTH 13 0
BBX 14 26 0 -7
BITMAP
00000007E70000
0000001FF80000
0000000FF80000
0000000AF80000
00000003EC0000
000000004D2000
00000000000000
001BFC10002DC1
001CFF3000AFE1
0009FF1003FFA0
000EFA000CFF40
005FF5005FFE00
00CFD001DFF900
04FF7009FFF300
0AFE106FBFD000
1FF804F6DF7000
4FF66F93FF2000
3FFFFA08FB0000
09ED601EF40000
0000006FC00000
000001EF400000
00000AFA000000
00009FD1000000
002AFE20000000
05FFC200000000
01640000000000
ENDCHAR
STARTCHAR endash
ENCODING 8211
SWIDTH 751 0
DWIDTH 18 0
BBX 15 3 2 6
BITMAP
0122222222222200
6FFFFFFFFFFFFF50
CFFFFFFFFFFFFB10
ENDCHAR
STARTCHAR emdash
ENCODING 8212
SWIDTH 1066 0
DWIDTH 26 0
BBX 22 3 2 6
BITMAP
0122222222222222222221
5FFFFFFFFFFFFFFFFFFFFF
BFFFFFFFFFFFFFFFFFFFF7
ENDCHAR
STARTCHAR quoteleft
ENCODING 8216
SWIDTH 268 0
DWIDTH 6 0
BBX 5 6 3 14
BITMAP
007E30
09F600
4FD000
9FC000
AFF400
3EC200
ENDCHAR
STARTCHAR quoteright
ENCODING 8217
SWIDTH 268 0
DWIDTH 6 0
BBX 5 6 3 13
BITMAP
03DD20
05FF80
00EF80
00EF30
08F700
4D6000
ENDCHAR
STARTCHAR quotesinglbase
ENCODING 8218
SWIDTH 268 0
DWIDTH 6 0
BBX 5 6 0 -3
BITMAP
08EA00
0BFF30
05FF20
05FC00
1DE300
AC3000
ENDCHAR
STARTCHAR quotedblleft
ENCODING 8220
SWIDTH 485 0
DWIDTH 12 0
BBX 10 6 3 14
BITMAP
003BB005D6
03EC107F80
1EF204FC00
6FF00BFB00
8FF50DFF10
4EC208EA00
ENDCHAR
STARTCHAR quotedblright
ENCODING 8221
SWIDTH 480 0
DWIDTH 12 0
BBX 10 6 3 14
BITMAP
008E901BE5
00EFF03FFA
009FD00DF8
00BF601EF2
06F900AF50
4E7009C400
ENDCHAR
STARTCHAR quotedblbase
ENCODING 8222
SWIDTH 463 0
DWIDTH 11 0
BBX 9 6 0 -3
BITMAP
08EA01BE60
0BFF31EFD0
05FF209FC0
05FC009F70
1DE304FC00
AC301D9100
ENDCHAR
STARTCHAR dagger
ENCODING 8224
SWIDTH 488 0
DWIDTH 12 0
BBX 11 18 2 0
BITMAP
00000DD50000
00003FFC0000
00006FFA0000
0000AFF60000
5BAAEFFDDF10
2AEFFFFEC500
0006FF700000
000AFF200000
000EFC000000
003FF6000000
007FE1000000
00CF90000000
02FF30000000
07FB00000000
0CF400000000
3FB000000000
9F2000000000
C50000000000
ENDCHAR
STARTCHAR daggerdbl
ENCODING 8225
SWIDTH 488 0
DWIDTH 12 0
BBX 12 18 1 0
BITMAP
000000DD5000
000003FFC000
000006FFA000
00000AFF6000
04BA9EFFCDE1
02AEFFFFFD60
00006FF80000
0000AFF30000
0000EFC00000
0003FF700000
3A8BFFCDE000
19DFFFEC4000
002FF3000000
007FC0000000
00CF40000000
02FB00000000
09F200000000
0C5000000000
ENDCHAR
STARTCHAR bullet
ENCODING 8226
SWIDTH 437 0
DWIDTH 10 0
BBX 7 6 2 5
BITMAP
02AEE700
0DFFFF30
4FFFFF60
3FFFFF30
0BFFF900
01795000
ENDCHAR
STARTCHAR ellipsis
ENCODING 8230
SWIDTH 810 0
DWIDTH 19 0
BBX 18 4 0 -1
BITMAP
1CEB1006ED6001CEB1
5FFF500DFFD006FFF5
3FFE200BFF8004FFE1
058300018700005830
ENDCHAR
STARTCHAR perthousand
ENCODING 8240
SWIDTH 1184 0
DWIDTH 28 0
BBX 26 18 1 0
BITMAP
0006CEC4000006E70000000000
009FD7FE20005FE10000000000
06FF20DF6001EF500000000000
0DF900EF700AFA000000000000
2FF404FF405FD1000000000000
2FF10AFD01EF40000000000000
0EF46FF30AF900000000000000
04EFFD405FD100000000000000
00133001EF4000000000000000
0000000AF90000000000000000
0000005FD103BFFA10005CFE80
000001EF404FF6AF8007FE5CF5
00000AF901EF706FD03FF409F9
00005FD107FE108FD0AFB00BF9
0001EF400AFA00DFA0EF702FF6
000AF8000AF805FF30DF509FE1
006FC00006FD7EF6009FB8FE40
00DB1000008DEC400019EEA300
ENDCHAR
STARTCHAR guilsinglleft
ENCODING 8249
SWIDTH 413 0
DWIDTH 10 0
BBX 8 10 1 2
BITMAP
0000007A
00004DF5
001AFE40
06EFC200
4FFA0000
1DFB0000
02EFA000
003EF900
0003EF60
00003710
ENDCHAR
STARTCHAR guilsinglright
ENCODING 8250
SWIDTH 416 0
DWIDTH 10 0
BBX 8 10 1 2
BITMAP
03EB1000
01DFB100
002EFB00
0003EFA0
00005FF6
0002DFE3
005EFA10
09FD4000
7E700000
42000000
ENDCHAR
STARTCHAR fraction
ENCODING 8260
SWIDTH 580 0
DWIDTH 14 0
BBX 14 20 0 0
BITMAP
00000000000162
00000000001CF4
00000000008FB0
0000000002FF30
000000000AF900
000000004FE100
00000000DF6000
00000007FC0000
0000001EF30000
0000009F900000
000003FE100000
00000CF7000000
00005FD0000000
0001DF40000000
0008FA00000000
002FF200000000
00AF8000000000
04FD1000000000
0DF50000000000
3E800000000000
ENDCHAR
STARTCHAR Euro
ENCODING 8364
SWIDTH 622 0
DWIDTH 15 0
BBX 15 18 1 0
BITMAP
0000000007CEE800
00000003DFD78F70
0000004FFA101FD0
000004FFB0006FE0
00001EFD1003EFC0
0000AFF4002EFF50
0003FFC0001EF900
001AFF5111024000
07FFFFFFFB000000
008FF84310000000
01AFF41110000000
7FFFFFFFB0000000
02DFE43100000000
00CFF00000000000
00AFF20000110000
005FF70004E70000
000AFF76AFF40000
00007CEED9200000
ENDCHAR
STARTCHAR trademark
ENCODING 8482
SWIDTH 1084 0
DWIDTH 26 0
BBX 20 11 4 8
BITMAP
01332100000021000020
9FFFFFEDD32CFA005EF6
CBADFCBB70CFFA03FFF5
001EE10005FBF70BBDF2
007FA0000DBAF55F4FE0
00DF40005F4BF2CA5FC0
02FE0000DD0DF6F27FA0
05FB0006F60EFD909F90
06FB001EC00DFF20AF90
03FE40BE3009F7006FD0
00361062000150000550
ENDCHAR
STARTCHAR Omega
ENCODING 8486
SWIDTH 839 0
DWIDTH 20 0
BBX 18 19 1 0
BITMAP
000000013310000000
000006CFFFFD810000
0003DFE7436CFE5000
003EFB1000008FF600
01DFD10000000AFF20
07FF6000000002FFB0
0DFE0000000000BFF1
1FFB00000000008FF5
3FFA00000000007FF7
3FFA00000000006FF7
2FFC00000000008FF6
0EFF1000000000CFF2
08FF5000000001FFB0
02EFB000000008FF50
005FF40000001EF900
0008FD0000009FB100
78208F800005FB016A
CFFC9EF6003EF9BEFF
5EFFFFFD009FFFFFE8
ENDCHAR
STARTCHAR partialdiff
ENCODING 8706
SWIDTH 580 0
DWIDTH 14 0
BBX 14 21 0 -1
BITMAP
00000000365100
0000002CFFFE40
000000DFC23EE1
000004FF3009F6
000002EE0006F9
000000120006FB
000000477407FB
00004DFFFFABFA
0006FFD405FFF8
004FFE2000BFF5
01DFF40000BFF2
07FFA00002FFC0
0DFF300008FF60
2FFD00001EFE10
4FF800007FF800
5FF60002EFD100
4FF4000BFF5000
1FF5009FF70000
09FD7BFE600000
019FFEA2000000
00011000000000
ENDCHAR
STARTCHAR Delta
ENCODING 8710
SWIDTH 663 0
DWIDTH 16 0
BBX 16 15 0 0
BITMAP
0000000051000000
0000000AF9000000
0000005FFF200000
000000DCDF800000
000007F47FE10000
00001EB01EF70000
00008F3008FE1000
0002FA0002FF6000
000AF200009FD000
003F8000003FF500
00BE1000000BFC00
04F700000004FF40
0CD100000000CFB0
5F94444444449FF2
9FFFFFFFFFFFFFA0
ENDCHAR
STARTCHAR product
ENCODING 8719
SWIDTH 667 0
DWIDTH 16 0
BBX 14 21 1 -2
BITMAP
00133333333330
05EFFFFFFFFFF4
1FF70000005FF4
2FF70000005FF4
2FF70000005FF4
2FF70000005FF4
2FF70000005FF4
2FF70000005FF4
2FF70000005FF4
2FF70000005FF4
2FF70000005FF4
2FF70000005FF4
2FF70000005FF4
2FF70000005FF4
2FF70000005FF4
2FF70000005FF4
2FF70000005FF4
2FF70000005FF4
2FF70000005FF4
2FF60000005FF4
2FC10000004FA1
ENDCHAR
STARTCHAR summation
ENCODING 8721
SWIDTH 677 0
DWIDTH 16 0
BBX 15 22 0 -3
BITMAP
0001333333333320
004EFFFFFFFFFFC0
00CFF85544444300
008FFD1000000000
001DFF9000000000
0004FFF500000000
00009FFE10000000
00001DFFB0000000
000003FFF6000000
0000007FFE200000
0000000BFF500000
00000009FD100000
0000006FE2000000
000004FF40000000
00002EF700000000
0001DF9000000000
000BFC0000000000
009FD10000000000
07FF300000000000
1FFFFFFFFFFFFD10
1EFFFFFFFFFFFB00
0134444444432000
ENDCHAR
STARTCHAR minus
ENCODING 8722
SWIDTH 617 0
DWIDTH 15 0
BBX 13 2 1 8
BITMAP
19AAAAAAAAAA30
6FFFFFFFFFFE20
ENDCHAR
STARTCHAR radical
ENCODING 8730
SWIDTH 709 0
DWIDTH 17 0
BBX 19 24 0 -1
BITMAP
00000000000000000690
00000000000000001EE0
00000000000000008FC0
0000000000000001FF90
0000000000000009FF30
000000000000002FF900
000000000000009FE100
00000000000002FF7000
00000000000009FD0000
0000000000002FF50000
0000000000009FB00000
000AB5000002FF300000
009FFF10000AF9000000
09FEFF40002FE1000000
2B72FF7000AF70000000
0000DF9003FD00000000
0000AFC00AF500000000
00006FF03FB000000000
00003FF3AF3000000000
00000EF9F90000000000
00000BFFE10000000000
000007FF700000000000
000003FC000000000000
00000010000000000000
ENDCHAR
STARTCHAR infinity
ENCODING 8734
SWIDTH 681 0
DWIDTH 16 0
BBX 15 8 1 5
BITMAP
0025510001562000
06FFFE408FFFF700
3FFB9EEBFFD8BF30
9F8001EFFA003F70
AF1006FFC0007F70
8F418FFFF626EF30
1EFFFFC2CFFFF900
029CB60018CC7000
ENDCHAR
STARTCHAR integral
ENCODING 8747
SWIDTH 583 0
DWIDTH 14 0
BBX 19 28 -2 -5
BITMAP
00000000000000388200
00000000000007FFFE20
0000000000005FF71D90
000000000002EF801EC0
000000000009FE10AFB0
00000000002FF707FF60
00000000008FF104EA00
0000000000EFA0000000
0000000004FF50000000
000000000AFF10000000
000000000EFB00000000
000000004FF600000000
000000008FF200000000
00000000DFC000000000
00000002FF8000000000
00000006FF3000000000
0000000BFE0000000000
0000001FF90000000000
0000005FF50000000000
0000009FE10000000000
000000EFA00000000000
08B204FF400000000000
7FF70BFD000000000000
DFA03FF5000000000000
FD00BFC0000000000000
CA09FF30000000000000
5FFFF500000000000000
05A83000000000000000
ENDCHAR
STARTCHAR approxequal
ENCODING 8776
SWIDTH 671 0
DWIDTH 16 0
BBX 15 11 1 3
BITMAP
0000587100000500
002DFFFE30005F10
01DFBDFFE302EB00
09F301BFFFCFE200
0D70001BFFFC2000
0200000046400000
0029ED8000009300
04EFFFFB0005F300
1ED66EFFB36EB000
7E2003EFFFFD1000
7600003CFE910000
ENDCHAR
STARTCHAR notequal
ENCODING 8800
SWIDTH 617 0
DWIDTH 15 0
BBX 13 16 1 1
BITMAP
00000000004910
0000000006FB00
000000002EE200
00000000BF6000
00111116FD2100
0CFFFFFFFFFFC0
089999EFB99930
000003FE100000
00000CF6000000
04669FE6666620
3FFFFFFFFFFF70
044CF944444400
003FD100000000
00CF4000000000
08F80000000000
0A700000000000
ENDCHAR
STARTCHAR lessequal
ENCODING 8804
SWIDTH 704 0
DWIDTH 17 0
BBX 13 16 1 0
BITMAP
00000000006D40
000000005DFD10
0000003BFE7000
00002AFFA20000
0018FFC3000000
07EFE600000000
8FFD1000000000
18FFD500000000
002AFFB3000000
00003BFF910000
0000004DFE6000
000000006EFC20
00000000017A20
00000000000000
19BBBBBBBBBB40
4FFFFFFFFFFE30
ENDCHAR
STARTCHAR greaterequal
ENCODING 8805
SWIDTH 617 0
DWIDTH 15 0
BBX 13 16 1 0
BITMAP
5FA20000000000
1AFF9100000000
004CFE71000000
00006EFD600000
0000018FFC4000
00000002BFFB10
000000005EFE40
0000003BFF9200
000019FFB30000
0006EFC4000000
04CFD600000000
4FE71000000000
48100000000000
00000000000000
2ABBBBBBBBBA20
7FFFFFFFFFFC10
ENDCHAR
STARTCHAR lozenge
ENCODING 9674
SWIDTH 580 0
DWIDTH 14 0
BBX 12 20 1 -1
BITMAP
000002100000
00002FD00000
0000BFF70000
0005FDFE2000
001DF2AFA000
008F801EF400
02FD1007FD00
0BF40000CF70
4FA000004FE2
CF2000000AF8
BF60000006F8
3FE100001EE1
09F900009F60
01EF3004FC00
007FB00DF300
000CF57F9000
0004FDFE1000
0000AFF60000
00002EC00000
000001000000
ENDCHAR
STARTCHAR commaaccent
ENCODING 63171
SWIDTH 250 0
DWIDTH 6 0
BBX 4 6 1 -7
BITMAP
09D5
2EFB
0AF8
2ED1
CC20
2000
ENDCHAR
STARTCHAR ff
ENCODING 64256
SWIDTH 773 0
DWIDTH 19 0
BBX 23 23 -1 -3
BITMAP
000000003CFFA10002BFFB20
00000002EF7AF9001DF98FB0
0000000BF905FD009FB03FF0
0000004FF20BFC01FF409FE0
0000009FC07FF707FE05FF90
000000EF802B800CFA01B910
000003FF3000001FF5000000
000008FE0000005FF1000000
00000CF9000111AFC1000000
00003FFDCEFFFFFFFFF90000
006DFFFFFFFFFFFFFFFE2000
01DCEFC4321108FD00000000
0001EF7000000DF900000000
0005FF3000003FF500000000
0009FE0000007FF100000000
000EF9000000CFB000000000
004FF5000002FF7000000000
009FE1000006FF2000000000
00EFA000000CFC0000000000
04FF5000003FF70000000000
0BFD0000009FF10000000000
3FF7000001FF900000000000
5EA0000003EB100000000000
ENDCHAR
STARTCHAR fi
ENCODING 64257
SWIDTH 623 0
DWIDTH 15 0
BBX 17 24 -1 -3
BITMAP
000000000000100000
00000000019EFFB200
000000003EFB56FD10
00000002EF8000CF60
0000000BFC0000CF80
0000004FF30002FF80
000000BFB0000CFF30
000003FF600009F900
000008FF1000001000
00002DFEACDEFFD100
003BFFFDA866CFF200
00EFFFE000009FD000
0042CFA00000EF8000
0002FF600004FF3000
0006FF10000AFC0000
000BFC00001FF50000
000EF800007FE00000
004FF30000CF900000
009FD00000EF810000
00EF800000DFFF5000
05FF3000005EE80000
0BFC00000000000000
4FF500000000000000
6FA000000000000000
ENDCHAR
STARTCHAR fl
ENCODING 64258
SWIDTH 637 0
DWIDTH 15 0
BBX 17 24 -1 -3
BITMAP
000000000000100000
0000000002AEFFC600
000000004EFB56EF70
00000002EFA0009FC0
0000000BFD00009FC0
0000004FF40000BFA0
000000CFC00000EF60
000002FF600004FF20
000008FE100009FD00
00000DFA00000EF800
00004FFEFD604FF300
003CFFFFFFE09FD000
009DEFD33210EF8000
0001FF800005FF3000
0005FF40000AFD0000
0009FE00001EF80000
000EFA00004FF30000
003FF500008FE00000
009FE100009FE25000
00EFA000007FFFC000
05FF4000001BEB2000
0CFC00000000000000
4FF500000000000000
7F9000000000000000
ENDCHAR
STARTCHAR .notdef
ENCODING -1
SWIDTH 896 0
DWIDTH 22 0
BBX 23 23 1 -1
BITMAP
000000012222222222222100
000000AFFFFFFFFFFFFFFF50
000005FFFFFFFFFFFFFFFF80
00000AFFFFFFFFFFFFFFFF40
00001EFFFFFFFFFFFFFFFE00
00005FFFFECFFFFDBEFFFA00
00009FFFC12FFF7005FFF600
0000EFFF502FF501AFFFF100
0003FFFF301F602DFFFFC000
0007FFFF500903EFFFFF8000
000CFFFF80002EFFFFFF3000
001FFFFFC001DFFFFFFE0000
005FFFFFF103FFFFFFFA0000
00AFFFFF7000DFFFFFF50000
00EFFFFA03007FFFFFF10000
03FFFF902E400BBBFFB00000
08FFF801DFD0000AFF700000
0CFFF54DFFFB33AFFF300000
2FFFFFFFFFFFFFFFFD000000
6FFFFFFFFFFFFFFFF8000000
9FFFFFFFFFFFFFFFF2000000
6FFFFFFFFFFFFFFF80000000
023333333333333200000000
ENDCHAR
ENDFONT
